%TF.GenerationSoftware,KiCad,Pcbnew,10.0.1*%
%TF.CreationDate,2026-07-27T21:53:35+01:00*%
%TF.ProjectId,MCU Datalogger,4d435520-4461-4746-916c-6f676765722e,rev?*%
%TF.SameCoordinates,Original*%
%TF.FileFunction,Legend,Bot*%
%TF.FilePolarity,Positive*%
%FSLAX46Y46*%
G04 Gerber Fmt 4.6, Leading zero omitted, Abs format (unit mm)*
G04 Created by KiCad (PCBNEW 10.0.1) date 2026-07-27 21:53:35*
%MOMM*%
%LPD*%
G01*
G04 APERTURE LIST*
%ADD10C,0.300000*%
%ADD11C,0.010000*%
G04 APERTURE END LIST*
D10*
X115740993Y-76085277D02*
X115740993Y-76394801D01*
X116050517Y-76270992D02*
X115740993Y-76394801D01*
X115740993Y-76394801D02*
X115431470Y-76270992D01*
X115926708Y-76642420D02*
X115740993Y-76394801D01*
X115740993Y-76394801D02*
X115555279Y-76642420D01*
X114007660Y-76209087D02*
X113945756Y-76147182D01*
X113945756Y-76147182D02*
X113821946Y-76085277D01*
X113821946Y-76085277D02*
X113512422Y-76085277D01*
X113512422Y-76085277D02*
X113388613Y-76147182D01*
X113388613Y-76147182D02*
X113326708Y-76209087D01*
X113326708Y-76209087D02*
X113264803Y-76332896D01*
X113264803Y-76332896D02*
X113264803Y-76456706D01*
X113264803Y-76456706D02*
X113326708Y-76642420D01*
X113326708Y-76642420D02*
X114069565Y-77385277D01*
X114069565Y-77385277D02*
X113264803Y-77385277D01*
X112707661Y-77385277D02*
X112707661Y-76085277D01*
X112707661Y-76085277D02*
X112274327Y-77013849D01*
X112274327Y-77013849D02*
X111840994Y-76085277D01*
X111840994Y-76085277D02*
X111840994Y-77385277D01*
X111221947Y-77385277D02*
X111221947Y-76085277D01*
X111221947Y-76580515D02*
X111098137Y-76518611D01*
X111098137Y-76518611D02*
X110850518Y-76518611D01*
X110850518Y-76518611D02*
X110726709Y-76580515D01*
X110726709Y-76580515D02*
X110664804Y-76642420D01*
X110664804Y-76642420D02*
X110602899Y-76766230D01*
X110602899Y-76766230D02*
X110602899Y-77137658D01*
X110602899Y-77137658D02*
X110664804Y-77261468D01*
X110664804Y-77261468D02*
X110726709Y-77323373D01*
X110726709Y-77323373D02*
X110850518Y-77385277D01*
X110850518Y-77385277D02*
X111098137Y-77385277D01*
X111098137Y-77385277D02*
X111221947Y-77323373D01*
X110045757Y-77385277D02*
X110045757Y-76518611D01*
X110045757Y-76085277D02*
X110107661Y-76147182D01*
X110107661Y-76147182D02*
X110045757Y-76209087D01*
X110045757Y-76209087D02*
X109983852Y-76147182D01*
X109983852Y-76147182D02*
X110045757Y-76085277D01*
X110045757Y-76085277D02*
X110045757Y-76209087D01*
X109612423Y-76518611D02*
X109117185Y-76518611D01*
X109426709Y-76085277D02*
X109426709Y-77199563D01*
X109426709Y-77199563D02*
X109364804Y-77323373D01*
X109364804Y-77323373D02*
X109240994Y-77385277D01*
X109240994Y-77385277D02*
X109117185Y-77385277D01*
X107693376Y-76704325D02*
X107260042Y-76704325D01*
X107074328Y-77385277D02*
X107693376Y-77385277D01*
X107693376Y-77385277D02*
X107693376Y-76085277D01*
X107693376Y-76085277D02*
X107074328Y-76085277D01*
X106517186Y-76704325D02*
X106083852Y-76704325D01*
X105898138Y-77385277D02*
X106517186Y-77385277D01*
X106517186Y-77385277D02*
X106517186Y-76085277D01*
X106517186Y-76085277D02*
X105898138Y-76085277D01*
X105340996Y-77385277D02*
X105340996Y-76085277D01*
X105340996Y-76085277D02*
X104845758Y-76085277D01*
X104845758Y-76085277D02*
X104721948Y-76147182D01*
X104721948Y-76147182D02*
X104660043Y-76209087D01*
X104660043Y-76209087D02*
X104598139Y-76332896D01*
X104598139Y-76332896D02*
X104598139Y-76518611D01*
X104598139Y-76518611D02*
X104660043Y-76642420D01*
X104660043Y-76642420D02*
X104721948Y-76704325D01*
X104721948Y-76704325D02*
X104845758Y-76766230D01*
X104845758Y-76766230D02*
X105340996Y-76766230D01*
X103298139Y-77385277D02*
X103731472Y-76766230D01*
X104040996Y-77385277D02*
X104040996Y-76085277D01*
X104040996Y-76085277D02*
X103545758Y-76085277D01*
X103545758Y-76085277D02*
X103421948Y-76147182D01*
X103421948Y-76147182D02*
X103360043Y-76209087D01*
X103360043Y-76209087D02*
X103298139Y-76332896D01*
X103298139Y-76332896D02*
X103298139Y-76518611D01*
X103298139Y-76518611D02*
X103360043Y-76642420D01*
X103360043Y-76642420D02*
X103421948Y-76704325D01*
X103421948Y-76704325D02*
X103545758Y-76766230D01*
X103545758Y-76766230D02*
X104040996Y-76766230D01*
X102493377Y-76085277D02*
X102245758Y-76085277D01*
X102245758Y-76085277D02*
X102121948Y-76147182D01*
X102121948Y-76147182D02*
X101998139Y-76270992D01*
X101998139Y-76270992D02*
X101936234Y-76518611D01*
X101936234Y-76518611D02*
X101936234Y-76951944D01*
X101936234Y-76951944D02*
X101998139Y-77199563D01*
X101998139Y-77199563D02*
X102121948Y-77323373D01*
X102121948Y-77323373D02*
X102245758Y-77385277D01*
X102245758Y-77385277D02*
X102493377Y-77385277D01*
X102493377Y-77385277D02*
X102617186Y-77323373D01*
X102617186Y-77323373D02*
X102740996Y-77199563D01*
X102740996Y-77199563D02*
X102802900Y-76951944D01*
X102802900Y-76951944D02*
X102802900Y-76518611D01*
X102802900Y-76518611D02*
X102740996Y-76270992D01*
X102740996Y-76270992D02*
X102617186Y-76147182D01*
X102617186Y-76147182D02*
X102493377Y-76085277D01*
X101379091Y-77385277D02*
X101379091Y-76085277D01*
X101379091Y-76085277D02*
X100945757Y-77013849D01*
X100945757Y-77013849D02*
X100512424Y-76085277D01*
X100512424Y-76085277D02*
X100512424Y-77385277D01*
X115740993Y-78178204D02*
X115740993Y-78487728D01*
X116050517Y-78363919D02*
X115740993Y-78487728D01*
X115740993Y-78487728D02*
X115431470Y-78363919D01*
X115926708Y-78735347D02*
X115740993Y-78487728D01*
X115740993Y-78487728D02*
X115555279Y-78735347D01*
X113202899Y-79478204D02*
X113636232Y-78859157D01*
X113945756Y-79478204D02*
X113945756Y-78178204D01*
X113945756Y-78178204D02*
X113450518Y-78178204D01*
X113450518Y-78178204D02*
X113326708Y-78240109D01*
X113326708Y-78240109D02*
X113264803Y-78302014D01*
X113264803Y-78302014D02*
X113202899Y-78425823D01*
X113202899Y-78425823D02*
X113202899Y-78611538D01*
X113202899Y-78611538D02*
X113264803Y-78735347D01*
X113264803Y-78735347D02*
X113326708Y-78797252D01*
X113326708Y-78797252D02*
X113450518Y-78859157D01*
X113450518Y-78859157D02*
X113945756Y-78859157D01*
X112831470Y-78178204D02*
X112088613Y-78178204D01*
X112460041Y-79478204D02*
X112460041Y-78178204D01*
X110912423Y-79354395D02*
X110974327Y-79416300D01*
X110974327Y-79416300D02*
X111160042Y-79478204D01*
X111160042Y-79478204D02*
X111283851Y-79478204D01*
X111283851Y-79478204D02*
X111469565Y-79416300D01*
X111469565Y-79416300D02*
X111593375Y-79292490D01*
X111593375Y-79292490D02*
X111655280Y-79168680D01*
X111655280Y-79168680D02*
X111717184Y-78921061D01*
X111717184Y-78921061D02*
X111717184Y-78735347D01*
X111717184Y-78735347D02*
X111655280Y-78487728D01*
X111655280Y-78487728D02*
X111593375Y-78363919D01*
X111593375Y-78363919D02*
X111469565Y-78240109D01*
X111469565Y-78240109D02*
X111283851Y-78178204D01*
X111283851Y-78178204D02*
X111160042Y-78178204D01*
X111160042Y-78178204D02*
X110974327Y-78240109D01*
X110974327Y-78240109D02*
X110912423Y-78302014D01*
X115740993Y-80271131D02*
X115740993Y-80580655D01*
X116050517Y-80456846D02*
X115740993Y-80580655D01*
X115740993Y-80580655D02*
X115431470Y-80456846D01*
X115926708Y-80828274D02*
X115740993Y-80580655D01*
X115740993Y-80580655D02*
X115555279Y-80828274D01*
X113945756Y-81571131D02*
X113945756Y-80271131D01*
X113388612Y-80394941D02*
X113326708Y-80333036D01*
X113326708Y-80333036D02*
X113202898Y-80271131D01*
X113202898Y-80271131D02*
X112893374Y-80271131D01*
X112893374Y-80271131D02*
X112769565Y-80333036D01*
X112769565Y-80333036D02*
X112707660Y-80394941D01*
X112707660Y-80394941D02*
X112645755Y-80518750D01*
X112645755Y-80518750D02*
X112645755Y-80642560D01*
X112645755Y-80642560D02*
X112707660Y-80828274D01*
X112707660Y-80828274D02*
X113450517Y-81571131D01*
X113450517Y-81571131D02*
X112645755Y-81571131D01*
X111345756Y-81447322D02*
X111407660Y-81509227D01*
X111407660Y-81509227D02*
X111593375Y-81571131D01*
X111593375Y-81571131D02*
X111717184Y-81571131D01*
X111717184Y-81571131D02*
X111902898Y-81509227D01*
X111902898Y-81509227D02*
X112026708Y-81385417D01*
X112026708Y-81385417D02*
X112088613Y-81261607D01*
X112088613Y-81261607D02*
X112150517Y-81013988D01*
X112150517Y-81013988D02*
X112150517Y-80828274D01*
X112150517Y-80828274D02*
X112088613Y-80580655D01*
X112088613Y-80580655D02*
X112026708Y-80456846D01*
X112026708Y-80456846D02*
X111902898Y-80333036D01*
X111902898Y-80333036D02*
X111717184Y-80271131D01*
X111717184Y-80271131D02*
X111593375Y-80271131D01*
X111593375Y-80271131D02*
X111407660Y-80333036D01*
X111407660Y-80333036D02*
X111345756Y-80394941D01*
X110726708Y-81509227D02*
X110726708Y-81571131D01*
X110726708Y-81571131D02*
X110788613Y-81694941D01*
X110788613Y-81694941D02*
X110850517Y-81756846D01*
X110231469Y-81509227D02*
X110045755Y-81571131D01*
X110045755Y-81571131D02*
X109736231Y-81571131D01*
X109736231Y-81571131D02*
X109612422Y-81509227D01*
X109612422Y-81509227D02*
X109550517Y-81447322D01*
X109550517Y-81447322D02*
X109488612Y-81323512D01*
X109488612Y-81323512D02*
X109488612Y-81199703D01*
X109488612Y-81199703D02*
X109550517Y-81075893D01*
X109550517Y-81075893D02*
X109612422Y-81013988D01*
X109612422Y-81013988D02*
X109736231Y-80952084D01*
X109736231Y-80952084D02*
X109983850Y-80890179D01*
X109983850Y-80890179D02*
X110107660Y-80828274D01*
X110107660Y-80828274D02*
X110169565Y-80766369D01*
X110169565Y-80766369D02*
X110231469Y-80642560D01*
X110231469Y-80642560D02*
X110231469Y-80518750D01*
X110231469Y-80518750D02*
X110169565Y-80394941D01*
X110169565Y-80394941D02*
X110107660Y-80333036D01*
X110107660Y-80333036D02*
X109983850Y-80271131D01*
X109983850Y-80271131D02*
X109674327Y-80271131D01*
X109674327Y-80271131D02*
X109488612Y-80333036D01*
X108931470Y-81571131D02*
X108931470Y-80271131D01*
X108931470Y-80271131D02*
X108436232Y-80271131D01*
X108436232Y-80271131D02*
X108312422Y-80333036D01*
X108312422Y-80333036D02*
X108250517Y-80394941D01*
X108250517Y-80394941D02*
X108188613Y-80518750D01*
X108188613Y-80518750D02*
X108188613Y-80704465D01*
X108188613Y-80704465D02*
X108250517Y-80828274D01*
X108250517Y-80828274D02*
X108312422Y-80890179D01*
X108312422Y-80890179D02*
X108436232Y-80952084D01*
X108436232Y-80952084D02*
X108931470Y-80952084D01*
X107631470Y-81571131D02*
X107631470Y-80271131D01*
X106950517Y-81509227D02*
X106950517Y-81571131D01*
X106950517Y-81571131D02*
X107012422Y-81694941D01*
X107012422Y-81694941D02*
X107074326Y-81756846D01*
X104721945Y-80333036D02*
X104845755Y-80271131D01*
X104845755Y-80271131D02*
X105031469Y-80271131D01*
X105031469Y-80271131D02*
X105217183Y-80333036D01*
X105217183Y-80333036D02*
X105340993Y-80456846D01*
X105340993Y-80456846D02*
X105402898Y-80580655D01*
X105402898Y-80580655D02*
X105464802Y-80828274D01*
X105464802Y-80828274D02*
X105464802Y-81013988D01*
X105464802Y-81013988D02*
X105402898Y-81261607D01*
X105402898Y-81261607D02*
X105340993Y-81385417D01*
X105340993Y-81385417D02*
X105217183Y-81509227D01*
X105217183Y-81509227D02*
X105031469Y-81571131D01*
X105031469Y-81571131D02*
X104907660Y-81571131D01*
X104907660Y-81571131D02*
X104721945Y-81509227D01*
X104721945Y-81509227D02*
X104660041Y-81447322D01*
X104660041Y-81447322D02*
X104660041Y-81013988D01*
X104660041Y-81013988D02*
X104907660Y-81013988D01*
X104102898Y-81571131D02*
X104102898Y-80271131D01*
X104102898Y-80271131D02*
X103607660Y-80271131D01*
X103607660Y-80271131D02*
X103483850Y-80333036D01*
X103483850Y-80333036D02*
X103421945Y-80394941D01*
X103421945Y-80394941D02*
X103360041Y-80518750D01*
X103360041Y-80518750D02*
X103360041Y-80704465D01*
X103360041Y-80704465D02*
X103421945Y-80828274D01*
X103421945Y-80828274D02*
X103483850Y-80890179D01*
X103483850Y-80890179D02*
X103607660Y-80952084D01*
X103607660Y-80952084D02*
X104102898Y-80952084D01*
X102802898Y-81571131D02*
X102802898Y-80271131D01*
X101936231Y-80271131D02*
X101688612Y-80271131D01*
X101688612Y-80271131D02*
X101564802Y-80333036D01*
X101564802Y-80333036D02*
X101440993Y-80456846D01*
X101440993Y-80456846D02*
X101379088Y-80704465D01*
X101379088Y-80704465D02*
X101379088Y-81137798D01*
X101379088Y-81137798D02*
X101440993Y-81385417D01*
X101440993Y-81385417D02*
X101564802Y-81509227D01*
X101564802Y-81509227D02*
X101688612Y-81571131D01*
X101688612Y-81571131D02*
X101936231Y-81571131D01*
X101936231Y-81571131D02*
X102060040Y-81509227D01*
X102060040Y-81509227D02*
X102183850Y-81385417D01*
X102183850Y-81385417D02*
X102245754Y-81137798D01*
X102245754Y-81137798D02*
X102245754Y-80704465D01*
X102245754Y-80704465D02*
X102183850Y-80456846D01*
X102183850Y-80456846D02*
X102060040Y-80333036D01*
X102060040Y-80333036D02*
X101936231Y-80271131D01*
X100883849Y-81509227D02*
X100760040Y-81571131D01*
X100760040Y-81571131D02*
X100512421Y-81571131D01*
X100512421Y-81571131D02*
X100388611Y-81509227D01*
X100388611Y-81509227D02*
X100326707Y-81385417D01*
X100326707Y-81385417D02*
X100326707Y-81323512D01*
X100326707Y-81323512D02*
X100388611Y-81199703D01*
X100388611Y-81199703D02*
X100512421Y-81137798D01*
X100512421Y-81137798D02*
X100698135Y-81137798D01*
X100698135Y-81137798D02*
X100821945Y-81075893D01*
X100821945Y-81075893D02*
X100883849Y-80952084D01*
X100883849Y-80952084D02*
X100883849Y-80890179D01*
X100883849Y-80890179D02*
X100821945Y-80766369D01*
X100821945Y-80766369D02*
X100698135Y-80704465D01*
X100698135Y-80704465D02*
X100512421Y-80704465D01*
X100512421Y-80704465D02*
X100388611Y-80766369D01*
X91579289Y-80726914D02*
X91365003Y-80798342D01*
X91365003Y-80798342D02*
X91293574Y-80869771D01*
X91293574Y-80869771D02*
X91222146Y-81012628D01*
X91222146Y-81012628D02*
X91222146Y-81226914D01*
X91222146Y-81226914D02*
X91293574Y-81369771D01*
X91293574Y-81369771D02*
X91365003Y-81441200D01*
X91365003Y-81441200D02*
X91507860Y-81512628D01*
X91507860Y-81512628D02*
X92079289Y-81512628D01*
X92079289Y-81512628D02*
X92079289Y-80012628D01*
X92079289Y-80012628D02*
X91579289Y-80012628D01*
X91579289Y-80012628D02*
X91436432Y-80084057D01*
X91436432Y-80084057D02*
X91365003Y-80155485D01*
X91365003Y-80155485D02*
X91293574Y-80298342D01*
X91293574Y-80298342D02*
X91293574Y-80441200D01*
X91293574Y-80441200D02*
X91365003Y-80584057D01*
X91365003Y-80584057D02*
X91436432Y-80655485D01*
X91436432Y-80655485D02*
X91579289Y-80726914D01*
X91579289Y-80726914D02*
X92079289Y-80726914D01*
X90722146Y-80512628D02*
X90365003Y-81512628D01*
X90007860Y-80512628D02*
X90365003Y-81512628D01*
X90365003Y-81512628D02*
X90507860Y-81869771D01*
X90507860Y-81869771D02*
X90579289Y-81941200D01*
X90579289Y-81941200D02*
X90722146Y-82012628D01*
X87865003Y-80012628D02*
X87865003Y-81084057D01*
X87865003Y-81084057D02*
X87936432Y-81298342D01*
X87936432Y-81298342D02*
X88079289Y-81441200D01*
X88079289Y-81441200D02*
X88293575Y-81512628D01*
X88293575Y-81512628D02*
X88436432Y-81512628D01*
X86936432Y-81512628D02*
X87079289Y-81441200D01*
X87079289Y-81441200D02*
X87150718Y-81369771D01*
X87150718Y-81369771D02*
X87222146Y-81226914D01*
X87222146Y-81226914D02*
X87222146Y-80798342D01*
X87222146Y-80798342D02*
X87150718Y-80655485D01*
X87150718Y-80655485D02*
X87079289Y-80584057D01*
X87079289Y-80584057D02*
X86936432Y-80512628D01*
X86936432Y-80512628D02*
X86722146Y-80512628D01*
X86722146Y-80512628D02*
X86579289Y-80584057D01*
X86579289Y-80584057D02*
X86507861Y-80655485D01*
X86507861Y-80655485D02*
X86436432Y-80798342D01*
X86436432Y-80798342D02*
X86436432Y-81226914D01*
X86436432Y-81226914D02*
X86507861Y-81369771D01*
X86507861Y-81369771D02*
X86579289Y-81441200D01*
X86579289Y-81441200D02*
X86722146Y-81512628D01*
X86722146Y-81512628D02*
X86936432Y-81512628D01*
X85865003Y-81441200D02*
X85722146Y-81512628D01*
X85722146Y-81512628D02*
X85436432Y-81512628D01*
X85436432Y-81512628D02*
X85293575Y-81441200D01*
X85293575Y-81441200D02*
X85222146Y-81298342D01*
X85222146Y-81298342D02*
X85222146Y-81226914D01*
X85222146Y-81226914D02*
X85293575Y-81084057D01*
X85293575Y-81084057D02*
X85436432Y-81012628D01*
X85436432Y-81012628D02*
X85650718Y-81012628D01*
X85650718Y-81012628D02*
X85793575Y-80941200D01*
X85793575Y-80941200D02*
X85865003Y-80798342D01*
X85865003Y-80798342D02*
X85865003Y-80726914D01*
X85865003Y-80726914D02*
X85793575Y-80584057D01*
X85793575Y-80584057D02*
X85650718Y-80512628D01*
X85650718Y-80512628D02*
X85436432Y-80512628D01*
X85436432Y-80512628D02*
X85293575Y-80584057D01*
X84579289Y-81512628D02*
X84579289Y-80012628D01*
X83936432Y-81512628D02*
X83936432Y-80726914D01*
X83936432Y-80726914D02*
X84007860Y-80584057D01*
X84007860Y-80584057D02*
X84150717Y-80512628D01*
X84150717Y-80512628D02*
X84365003Y-80512628D01*
X84365003Y-80512628D02*
X84507860Y-80584057D01*
X84507860Y-80584057D02*
X84579289Y-80655485D01*
X114126489Y-72798512D02*
X114126489Y-71298512D01*
X114126489Y-71298512D02*
X113769346Y-71298512D01*
X113769346Y-71298512D02*
X113555060Y-71369941D01*
X113555060Y-71369941D02*
X113412203Y-71512798D01*
X113412203Y-71512798D02*
X113340774Y-71655655D01*
X113340774Y-71655655D02*
X113269346Y-71941369D01*
X113269346Y-71941369D02*
X113269346Y-72155655D01*
X113269346Y-72155655D02*
X113340774Y-72441369D01*
X113340774Y-72441369D02*
X113412203Y-72584226D01*
X113412203Y-72584226D02*
X113555060Y-72727084D01*
X113555060Y-72727084D02*
X113769346Y-72798512D01*
X113769346Y-72798512D02*
X114126489Y-72798512D01*
X111983632Y-72798512D02*
X111983632Y-72012798D01*
X111983632Y-72012798D02*
X112055060Y-71869941D01*
X112055060Y-71869941D02*
X112197917Y-71798512D01*
X112197917Y-71798512D02*
X112483632Y-71798512D01*
X112483632Y-71798512D02*
X112626489Y-71869941D01*
X111983632Y-72727084D02*
X112126489Y-72798512D01*
X112126489Y-72798512D02*
X112483632Y-72798512D01*
X112483632Y-72798512D02*
X112626489Y-72727084D01*
X112626489Y-72727084D02*
X112697917Y-72584226D01*
X112697917Y-72584226D02*
X112697917Y-72441369D01*
X112697917Y-72441369D02*
X112626489Y-72298512D01*
X112626489Y-72298512D02*
X112483632Y-72227084D01*
X112483632Y-72227084D02*
X112126489Y-72227084D01*
X112126489Y-72227084D02*
X111983632Y-72155655D01*
X111483631Y-71798512D02*
X110912203Y-71798512D01*
X111269346Y-71298512D02*
X111269346Y-72584226D01*
X111269346Y-72584226D02*
X111197917Y-72727084D01*
X111197917Y-72727084D02*
X111055060Y-72798512D01*
X111055060Y-72798512D02*
X110912203Y-72798512D01*
X109769346Y-72798512D02*
X109769346Y-72012798D01*
X109769346Y-72012798D02*
X109840774Y-71869941D01*
X109840774Y-71869941D02*
X109983631Y-71798512D01*
X109983631Y-71798512D02*
X110269346Y-71798512D01*
X110269346Y-71798512D02*
X110412203Y-71869941D01*
X109769346Y-72727084D02*
X109912203Y-72798512D01*
X109912203Y-72798512D02*
X110269346Y-72798512D01*
X110269346Y-72798512D02*
X110412203Y-72727084D01*
X110412203Y-72727084D02*
X110483631Y-72584226D01*
X110483631Y-72584226D02*
X110483631Y-72441369D01*
X110483631Y-72441369D02*
X110412203Y-72298512D01*
X110412203Y-72298512D02*
X110269346Y-72227084D01*
X110269346Y-72227084D02*
X109912203Y-72227084D01*
X109912203Y-72227084D02*
X109769346Y-72155655D01*
X107197917Y-72798512D02*
X107912203Y-72798512D01*
X107912203Y-72798512D02*
X107912203Y-71298512D01*
X106483631Y-72798512D02*
X106626488Y-72727084D01*
X106626488Y-72727084D02*
X106697917Y-72655655D01*
X106697917Y-72655655D02*
X106769345Y-72512798D01*
X106769345Y-72512798D02*
X106769345Y-72084226D01*
X106769345Y-72084226D02*
X106697917Y-71941369D01*
X106697917Y-71941369D02*
X106626488Y-71869941D01*
X106626488Y-71869941D02*
X106483631Y-71798512D01*
X106483631Y-71798512D02*
X106269345Y-71798512D01*
X106269345Y-71798512D02*
X106126488Y-71869941D01*
X106126488Y-71869941D02*
X106055060Y-71941369D01*
X106055060Y-71941369D02*
X105983631Y-72084226D01*
X105983631Y-72084226D02*
X105983631Y-72512798D01*
X105983631Y-72512798D02*
X106055060Y-72655655D01*
X106055060Y-72655655D02*
X106126488Y-72727084D01*
X106126488Y-72727084D02*
X106269345Y-72798512D01*
X106269345Y-72798512D02*
X106483631Y-72798512D01*
X104697917Y-71798512D02*
X104697917Y-73012798D01*
X104697917Y-73012798D02*
X104769345Y-73155655D01*
X104769345Y-73155655D02*
X104840774Y-73227084D01*
X104840774Y-73227084D02*
X104983631Y-73298512D01*
X104983631Y-73298512D02*
X105197917Y-73298512D01*
X105197917Y-73298512D02*
X105340774Y-73227084D01*
X104697917Y-72727084D02*
X104840774Y-72798512D01*
X104840774Y-72798512D02*
X105126488Y-72798512D01*
X105126488Y-72798512D02*
X105269345Y-72727084D01*
X105269345Y-72727084D02*
X105340774Y-72655655D01*
X105340774Y-72655655D02*
X105412202Y-72512798D01*
X105412202Y-72512798D02*
X105412202Y-72084226D01*
X105412202Y-72084226D02*
X105340774Y-71941369D01*
X105340774Y-71941369D02*
X105269345Y-71869941D01*
X105269345Y-71869941D02*
X105126488Y-71798512D01*
X105126488Y-71798512D02*
X104840774Y-71798512D01*
X104840774Y-71798512D02*
X104697917Y-71869941D01*
X103340774Y-71798512D02*
X103340774Y-73012798D01*
X103340774Y-73012798D02*
X103412202Y-73155655D01*
X103412202Y-73155655D02*
X103483631Y-73227084D01*
X103483631Y-73227084D02*
X103626488Y-73298512D01*
X103626488Y-73298512D02*
X103840774Y-73298512D01*
X103840774Y-73298512D02*
X103983631Y-73227084D01*
X103340774Y-72727084D02*
X103483631Y-72798512D01*
X103483631Y-72798512D02*
X103769345Y-72798512D01*
X103769345Y-72798512D02*
X103912202Y-72727084D01*
X103912202Y-72727084D02*
X103983631Y-72655655D01*
X103983631Y-72655655D02*
X104055059Y-72512798D01*
X104055059Y-72512798D02*
X104055059Y-72084226D01*
X104055059Y-72084226D02*
X103983631Y-71941369D01*
X103983631Y-71941369D02*
X103912202Y-71869941D01*
X103912202Y-71869941D02*
X103769345Y-71798512D01*
X103769345Y-71798512D02*
X103483631Y-71798512D01*
X103483631Y-71798512D02*
X103340774Y-71869941D01*
X102055059Y-72727084D02*
X102197916Y-72798512D01*
X102197916Y-72798512D02*
X102483631Y-72798512D01*
X102483631Y-72798512D02*
X102626488Y-72727084D01*
X102626488Y-72727084D02*
X102697916Y-72584226D01*
X102697916Y-72584226D02*
X102697916Y-72012798D01*
X102697916Y-72012798D02*
X102626488Y-71869941D01*
X102626488Y-71869941D02*
X102483631Y-71798512D01*
X102483631Y-71798512D02*
X102197916Y-71798512D01*
X102197916Y-71798512D02*
X102055059Y-71869941D01*
X102055059Y-71869941D02*
X101983631Y-72012798D01*
X101983631Y-72012798D02*
X101983631Y-72155655D01*
X101983631Y-72155655D02*
X102697916Y-72298512D01*
X101340774Y-72798512D02*
X101340774Y-71798512D01*
X101340774Y-72084226D02*
X101269345Y-71941369D01*
X101269345Y-71941369D02*
X101197917Y-71869941D01*
X101197917Y-71869941D02*
X101055059Y-71798512D01*
X101055059Y-71798512D02*
X100912202Y-71798512D01*
X114269346Y-74213428D02*
X113983632Y-75213428D01*
X113983632Y-75213428D02*
X113697917Y-74499142D01*
X113697917Y-74499142D02*
X113412203Y-75213428D01*
X113412203Y-75213428D02*
X113126489Y-74213428D01*
X112555060Y-75213428D02*
X112555060Y-74213428D01*
X112555060Y-73713428D02*
X112626488Y-73784857D01*
X112626488Y-73784857D02*
X112555060Y-73856285D01*
X112555060Y-73856285D02*
X112483631Y-73784857D01*
X112483631Y-73784857D02*
X112555060Y-73713428D01*
X112555060Y-73713428D02*
X112555060Y-73856285D01*
X112055059Y-74213428D02*
X111483631Y-74213428D01*
X111840774Y-73713428D02*
X111840774Y-74999142D01*
X111840774Y-74999142D02*
X111769345Y-75142000D01*
X111769345Y-75142000D02*
X111626488Y-75213428D01*
X111626488Y-75213428D02*
X111483631Y-75213428D01*
X110983631Y-75213428D02*
X110983631Y-73713428D01*
X110340774Y-75213428D02*
X110340774Y-74427714D01*
X110340774Y-74427714D02*
X110412202Y-74284857D01*
X110412202Y-74284857D02*
X110555059Y-74213428D01*
X110555059Y-74213428D02*
X110769345Y-74213428D01*
X110769345Y-74213428D02*
X110912202Y-74284857D01*
X110912202Y-74284857D02*
X110983631Y-74356285D01*
X108697916Y-74213428D02*
X108126488Y-74213428D01*
X108483631Y-73713428D02*
X108483631Y-74999142D01*
X108483631Y-74999142D02*
X108412202Y-75142000D01*
X108412202Y-75142000D02*
X108269345Y-75213428D01*
X108269345Y-75213428D02*
X108126488Y-75213428D01*
X107626488Y-75213428D02*
X107626488Y-73713428D01*
X106983631Y-75213428D02*
X106983631Y-74427714D01*
X106983631Y-74427714D02*
X107055059Y-74284857D01*
X107055059Y-74284857D02*
X107197916Y-74213428D01*
X107197916Y-74213428D02*
X107412202Y-74213428D01*
X107412202Y-74213428D02*
X107555059Y-74284857D01*
X107555059Y-74284857D02*
X107626488Y-74356285D01*
X105697916Y-75142000D02*
X105840773Y-75213428D01*
X105840773Y-75213428D02*
X106126488Y-75213428D01*
X106126488Y-75213428D02*
X106269345Y-75142000D01*
X106269345Y-75142000D02*
X106340773Y-74999142D01*
X106340773Y-74999142D02*
X106340773Y-74427714D01*
X106340773Y-74427714D02*
X106269345Y-74284857D01*
X106269345Y-74284857D02*
X106126488Y-74213428D01*
X106126488Y-74213428D02*
X105840773Y-74213428D01*
X105840773Y-74213428D02*
X105697916Y-74284857D01*
X105697916Y-74284857D02*
X105626488Y-74427714D01*
X105626488Y-74427714D02*
X105626488Y-74570571D01*
X105626488Y-74570571D02*
X106340773Y-74713428D01*
X103912202Y-74784857D02*
X103197917Y-74784857D01*
X104055059Y-75213428D02*
X103555059Y-73713428D01*
X103555059Y-73713428D02*
X103055059Y-75213428D01*
X102769345Y-73713428D02*
X101912203Y-73713428D01*
X102340774Y-75213428D02*
X102340774Y-73713428D01*
X101412203Y-75213428D02*
X101412203Y-73713428D01*
X101412203Y-73713428D02*
X100912203Y-74784857D01*
X100912203Y-74784857D02*
X100412203Y-73713428D01*
X100412203Y-73713428D02*
X100412203Y-75213428D01*
X99126488Y-75142000D02*
X99269345Y-75213428D01*
X99269345Y-75213428D02*
X99555060Y-75213428D01*
X99555060Y-75213428D02*
X99697917Y-75142000D01*
X99697917Y-75142000D02*
X99769345Y-74999142D01*
X99769345Y-74999142D02*
X99769345Y-74427714D01*
X99769345Y-74427714D02*
X99697917Y-74284857D01*
X99697917Y-74284857D02*
X99555060Y-74213428D01*
X99555060Y-74213428D02*
X99269345Y-74213428D01*
X99269345Y-74213428D02*
X99126488Y-74284857D01*
X99126488Y-74284857D02*
X99055060Y-74427714D01*
X99055060Y-74427714D02*
X99055060Y-74570571D01*
X99055060Y-74570571D02*
X99769345Y-74713428D01*
X97769346Y-74213428D02*
X97769346Y-75427714D01*
X97769346Y-75427714D02*
X97840774Y-75570571D01*
X97840774Y-75570571D02*
X97912203Y-75642000D01*
X97912203Y-75642000D02*
X98055060Y-75713428D01*
X98055060Y-75713428D02*
X98269346Y-75713428D01*
X98269346Y-75713428D02*
X98412203Y-75642000D01*
X97769346Y-75142000D02*
X97912203Y-75213428D01*
X97912203Y-75213428D02*
X98197917Y-75213428D01*
X98197917Y-75213428D02*
X98340774Y-75142000D01*
X98340774Y-75142000D02*
X98412203Y-75070571D01*
X98412203Y-75070571D02*
X98483631Y-74927714D01*
X98483631Y-74927714D02*
X98483631Y-74499142D01*
X98483631Y-74499142D02*
X98412203Y-74356285D01*
X98412203Y-74356285D02*
X98340774Y-74284857D01*
X98340774Y-74284857D02*
X98197917Y-74213428D01*
X98197917Y-74213428D02*
X97912203Y-74213428D01*
X97912203Y-74213428D02*
X97769346Y-74284857D01*
X96412203Y-75213428D02*
X96412203Y-74427714D01*
X96412203Y-74427714D02*
X96483631Y-74284857D01*
X96483631Y-74284857D02*
X96626488Y-74213428D01*
X96626488Y-74213428D02*
X96912203Y-74213428D01*
X96912203Y-74213428D02*
X97055060Y-74284857D01*
X96412203Y-75142000D02*
X96555060Y-75213428D01*
X96555060Y-75213428D02*
X96912203Y-75213428D01*
X96912203Y-75213428D02*
X97055060Y-75142000D01*
X97055060Y-75142000D02*
X97126488Y-74999142D01*
X97126488Y-74999142D02*
X97126488Y-74856285D01*
X97126488Y-74856285D02*
X97055060Y-74713428D01*
X97055060Y-74713428D02*
X96912203Y-74642000D01*
X96912203Y-74642000D02*
X96555060Y-74642000D01*
X96555060Y-74642000D02*
X96412203Y-74570571D01*
X95840774Y-73713428D02*
X94912202Y-73713428D01*
X94912202Y-73713428D02*
X95412202Y-74284857D01*
X95412202Y-74284857D02*
X95197917Y-74284857D01*
X95197917Y-74284857D02*
X95055060Y-74356285D01*
X95055060Y-74356285D02*
X94983631Y-74427714D01*
X94983631Y-74427714D02*
X94912202Y-74570571D01*
X94912202Y-74570571D02*
X94912202Y-74927714D01*
X94912202Y-74927714D02*
X94983631Y-75070571D01*
X94983631Y-75070571D02*
X95055060Y-75142000D01*
X95055060Y-75142000D02*
X95197917Y-75213428D01*
X95197917Y-75213428D02*
X95626488Y-75213428D01*
X95626488Y-75213428D02*
X95769345Y-75142000D01*
X95769345Y-75142000D02*
X95840774Y-75070571D01*
X94340774Y-73856285D02*
X94269346Y-73784857D01*
X94269346Y-73784857D02*
X94126489Y-73713428D01*
X94126489Y-73713428D02*
X93769346Y-73713428D01*
X93769346Y-73713428D02*
X93626489Y-73784857D01*
X93626489Y-73784857D02*
X93555060Y-73856285D01*
X93555060Y-73856285D02*
X93483631Y-73999142D01*
X93483631Y-73999142D02*
X93483631Y-74142000D01*
X93483631Y-74142000D02*
X93555060Y-74356285D01*
X93555060Y-74356285D02*
X94412203Y-75213428D01*
X94412203Y-75213428D02*
X93483631Y-75213428D01*
X92626489Y-74356285D02*
X92769346Y-74284857D01*
X92769346Y-74284857D02*
X92840775Y-74213428D01*
X92840775Y-74213428D02*
X92912203Y-74070571D01*
X92912203Y-74070571D02*
X92912203Y-73999142D01*
X92912203Y-73999142D02*
X92840775Y-73856285D01*
X92840775Y-73856285D02*
X92769346Y-73784857D01*
X92769346Y-73784857D02*
X92626489Y-73713428D01*
X92626489Y-73713428D02*
X92340775Y-73713428D01*
X92340775Y-73713428D02*
X92197918Y-73784857D01*
X92197918Y-73784857D02*
X92126489Y-73856285D01*
X92126489Y-73856285D02*
X92055060Y-73999142D01*
X92055060Y-73999142D02*
X92055060Y-74070571D01*
X92055060Y-74070571D02*
X92126489Y-74213428D01*
X92126489Y-74213428D02*
X92197918Y-74284857D01*
X92197918Y-74284857D02*
X92340775Y-74356285D01*
X92340775Y-74356285D02*
X92626489Y-74356285D01*
X92626489Y-74356285D02*
X92769346Y-74427714D01*
X92769346Y-74427714D02*
X92840775Y-74499142D01*
X92840775Y-74499142D02*
X92912203Y-74642000D01*
X92912203Y-74642000D02*
X92912203Y-74927714D01*
X92912203Y-74927714D02*
X92840775Y-75070571D01*
X92840775Y-75070571D02*
X92769346Y-75142000D01*
X92769346Y-75142000D02*
X92626489Y-75213428D01*
X92626489Y-75213428D02*
X92340775Y-75213428D01*
X92340775Y-75213428D02*
X92197918Y-75142000D01*
X92197918Y-75142000D02*
X92126489Y-75070571D01*
X92126489Y-75070571D02*
X92055060Y-74927714D01*
X92055060Y-74927714D02*
X92055060Y-74642000D01*
X92055060Y-74642000D02*
X92126489Y-74499142D01*
X92126489Y-74499142D02*
X92197918Y-74427714D01*
X92197918Y-74427714D02*
X92340775Y-74356285D01*
X91412204Y-75213428D02*
X91412204Y-73713428D01*
X91412204Y-73713428D02*
X90840775Y-73713428D01*
X90840775Y-73713428D02*
X90697918Y-73784857D01*
X90697918Y-73784857D02*
X90626489Y-73856285D01*
X90626489Y-73856285D02*
X90555061Y-73999142D01*
X90555061Y-73999142D02*
X90555061Y-74213428D01*
X90555061Y-74213428D02*
X90626489Y-74356285D01*
X90626489Y-74356285D02*
X90697918Y-74427714D01*
X90697918Y-74427714D02*
X90840775Y-74499142D01*
X90840775Y-74499142D02*
X91412204Y-74499142D01*
D11*
%TO.C,REF\u002A\u002A*%
X95522078Y-69297639D02*
X95573751Y-69329175D01*
X95627291Y-69372529D01*
X95627291Y-70673222D01*
X95573751Y-70716576D01*
X95510750Y-70751681D01*
X95438830Y-70753360D01*
X95375672Y-70712191D01*
X95367885Y-70702819D01*
X95356904Y-70683799D01*
X95348452Y-70656314D01*
X95342201Y-70615092D01*
X95337822Y-70554865D01*
X95334988Y-70470361D01*
X95333370Y-70356310D01*
X95332640Y-70207444D01*
X95332469Y-70018491D01*
X95332469Y-69372529D01*
X95386008Y-69329175D01*
X95433646Y-69299503D01*
X95479880Y-69285822D01*
X95522078Y-69297639D01*
G36*
X95522078Y-69297639D02*
G01*
X95573751Y-69329175D01*
X95627291Y-69372529D01*
X95627291Y-70673222D01*
X95573751Y-70716576D01*
X95510750Y-70751681D01*
X95438830Y-70753360D01*
X95375672Y-70712191D01*
X95367885Y-70702819D01*
X95356904Y-70683799D01*
X95348452Y-70656314D01*
X95342201Y-70615092D01*
X95337822Y-70554865D01*
X95334988Y-70470361D01*
X95333370Y-70356310D01*
X95332640Y-70207444D01*
X95332469Y-70018491D01*
X95332469Y-69372529D01*
X95386008Y-69329175D01*
X95433646Y-69299503D01*
X95479880Y-69285822D01*
X95522078Y-69297639D01*
G37*
X109847207Y-69294654D02*
X109915821Y-69341487D01*
X109971487Y-69397153D01*
X109971487Y-70026052D01*
X109971405Y-70194863D01*
X109970885Y-70343969D01*
X109969538Y-70457980D01*
X109966971Y-70542297D01*
X109962795Y-70602318D01*
X109956618Y-70643444D01*
X109948050Y-70671073D01*
X109936700Y-70690606D01*
X109922177Y-70707440D01*
X109858969Y-70750560D01*
X109788324Y-70754109D01*
X109722023Y-70714572D01*
X109711362Y-70702782D01*
X109700414Y-70684533D01*
X109692045Y-70657731D01*
X109685909Y-70617119D01*
X109681662Y-70557438D01*
X109678959Y-70473430D01*
X109677455Y-70359839D01*
X109676806Y-70211407D01*
X109676666Y-70022875D01*
X109676745Y-69870877D01*
X109677257Y-69714363D01*
X109678551Y-69593807D01*
X109680970Y-69503953D01*
X109684860Y-69439542D01*
X109690566Y-69395317D01*
X109698432Y-69366020D01*
X109708802Y-69346393D01*
X109722023Y-69331179D01*
X109780650Y-69292967D01*
X109847207Y-69294654D01*
G36*
X109847207Y-69294654D02*
G01*
X109915821Y-69341487D01*
X109971487Y-69397153D01*
X109971487Y-70026052D01*
X109971405Y-70194863D01*
X109970885Y-70343969D01*
X109969538Y-70457980D01*
X109966971Y-70542297D01*
X109962795Y-70602318D01*
X109956618Y-70643444D01*
X109948050Y-70671073D01*
X109936700Y-70690606D01*
X109922177Y-70707440D01*
X109858969Y-70750560D01*
X109788324Y-70754109D01*
X109722023Y-70714572D01*
X109711362Y-70702782D01*
X109700414Y-70684533D01*
X109692045Y-70657731D01*
X109685909Y-70617119D01*
X109681662Y-70557438D01*
X109678959Y-70473430D01*
X109677455Y-70359839D01*
X109676806Y-70211407D01*
X109676666Y-70022875D01*
X109676745Y-69870877D01*
X109677257Y-69714363D01*
X109678551Y-69593807D01*
X109680970Y-69503953D01*
X109684860Y-69439542D01*
X109690566Y-69395317D01*
X109698432Y-69366020D01*
X109708802Y-69346393D01*
X109722023Y-69331179D01*
X109780650Y-69292967D01*
X109847207Y-69294654D01*
G37*
X109903693Y-56453840D02*
X110113606Y-56505272D01*
X110312580Y-56597582D01*
X110494345Y-56730786D01*
X110652631Y-56904896D01*
X110781166Y-57119929D01*
X110815626Y-57195680D01*
X110843543Y-57272459D01*
X110859207Y-57349215D01*
X110866073Y-57444154D01*
X110867595Y-57575480D01*
X110866675Y-57684786D01*
X110861132Y-57785241D01*
X110847542Y-57863616D01*
X110822510Y-57937911D01*
X110782645Y-58026125D01*
X110771113Y-58049633D01*
X110634808Y-58264889D01*
X110463374Y-58441996D01*
X110261678Y-58576797D01*
X110034584Y-58665136D01*
X109918060Y-58689788D01*
X109681668Y-58701323D01*
X109452707Y-58663998D01*
X109237891Y-58581639D01*
X109043935Y-58458073D01*
X108877551Y-58297128D01*
X108745455Y-58102630D01*
X108654360Y-57878405D01*
X108621031Y-57694911D01*
X108618028Y-57492417D01*
X108645135Y-57295449D01*
X108701061Y-57124835D01*
X108765680Y-57002857D01*
X108909536Y-56809331D01*
X109080078Y-56656595D01*
X109271035Y-56544663D01*
X109476137Y-56473550D01*
X109689114Y-56443271D01*
X109903693Y-56453840D01*
G36*
X109903693Y-56453840D02*
G01*
X110113606Y-56505272D01*
X110312580Y-56597582D01*
X110494345Y-56730786D01*
X110652631Y-56904896D01*
X110781166Y-57119929D01*
X110815626Y-57195680D01*
X110843543Y-57272459D01*
X110859207Y-57349215D01*
X110866073Y-57444154D01*
X110867595Y-57575480D01*
X110866675Y-57684786D01*
X110861132Y-57785241D01*
X110847542Y-57863616D01*
X110822510Y-57937911D01*
X110782645Y-58026125D01*
X110771113Y-58049633D01*
X110634808Y-58264889D01*
X110463374Y-58441996D01*
X110261678Y-58576797D01*
X110034584Y-58665136D01*
X109918060Y-58689788D01*
X109681668Y-58701323D01*
X109452707Y-58663998D01*
X109237891Y-58581639D01*
X109043935Y-58458073D01*
X108877551Y-58297128D01*
X108745455Y-58102630D01*
X108654360Y-57878405D01*
X108621031Y-57694911D01*
X108618028Y-57492417D01*
X108645135Y-57295449D01*
X108701061Y-57124835D01*
X108765680Y-57002857D01*
X108909536Y-56809331D01*
X109080078Y-56656595D01*
X109271035Y-56544663D01*
X109476137Y-56473550D01*
X109689114Y-56443271D01*
X109903693Y-56453840D01*
G37*
X94116555Y-69285825D02*
X94305641Y-69286005D01*
X94455335Y-69286688D01*
X94570661Y-69288178D01*
X94656643Y-69290780D01*
X94718303Y-69294801D01*
X94760665Y-69300546D01*
X94788753Y-69308321D01*
X94807591Y-69318430D01*
X94822201Y-69331179D01*
X94859981Y-69396906D01*
X94862887Y-69472396D01*
X94830026Y-69539170D01*
X94827293Y-69542090D01*
X94804787Y-69558885D01*
X94770430Y-69570045D01*
X94715848Y-69576662D01*
X94632671Y-69579830D01*
X94512526Y-69580643D01*
X94232558Y-69580643D01*
X94232558Y-70110531D01*
X94232407Y-70262864D01*
X94231587Y-70396792D01*
X94229614Y-70496804D01*
X94226006Y-70568959D01*
X94220279Y-70619315D01*
X94211950Y-70653931D01*
X94200536Y-70678864D01*
X94185555Y-70700174D01*
X94180953Y-70705811D01*
X94118319Y-70751298D01*
X94049254Y-70754440D01*
X93983094Y-70714572D01*
X93969075Y-70698348D01*
X93958082Y-70677057D01*
X93950006Y-70645229D01*
X93944399Y-70597062D01*
X93940815Y-70526751D01*
X93938807Y-70428495D01*
X93937930Y-70296488D01*
X93937737Y-70124929D01*
X93937737Y-69580643D01*
X93644562Y-69580643D01*
X93622263Y-69580641D01*
X93508723Y-69580189D01*
X93430687Y-69577901D01*
X93379676Y-69572276D01*
X93347208Y-69561816D01*
X93324805Y-69545018D01*
X93303986Y-69520383D01*
X93272150Y-69458734D01*
X93278382Y-69390871D01*
X93329899Y-69325509D01*
X93339825Y-69318041D01*
X93360336Y-69308326D01*
X93391325Y-69300766D01*
X93437774Y-69295096D01*
X93504667Y-69291051D01*
X93596985Y-69288366D01*
X93719712Y-69286776D01*
X93877830Y-69286016D01*
X94076321Y-69285822D01*
X94116555Y-69285825D01*
G36*
X94116555Y-69285825D02*
G01*
X94305641Y-69286005D01*
X94455335Y-69286688D01*
X94570661Y-69288178D01*
X94656643Y-69290780D01*
X94718303Y-69294801D01*
X94760665Y-69300546D01*
X94788753Y-69308321D01*
X94807591Y-69318430D01*
X94822201Y-69331179D01*
X94859981Y-69396906D01*
X94862887Y-69472396D01*
X94830026Y-69539170D01*
X94827293Y-69542090D01*
X94804787Y-69558885D01*
X94770430Y-69570045D01*
X94715848Y-69576662D01*
X94632671Y-69579830D01*
X94512526Y-69580643D01*
X94232558Y-69580643D01*
X94232558Y-70110531D01*
X94232407Y-70262864D01*
X94231587Y-70396792D01*
X94229614Y-70496804D01*
X94226006Y-70568959D01*
X94220279Y-70619315D01*
X94211950Y-70653931D01*
X94200536Y-70678864D01*
X94185555Y-70700174D01*
X94180953Y-70705811D01*
X94118319Y-70751298D01*
X94049254Y-70754440D01*
X93983094Y-70714572D01*
X93969075Y-70698348D01*
X93958082Y-70677057D01*
X93950006Y-70645229D01*
X93944399Y-70597062D01*
X93940815Y-70526751D01*
X93938807Y-70428495D01*
X93937930Y-70296488D01*
X93937737Y-70124929D01*
X93937737Y-69580643D01*
X93644562Y-69580643D01*
X93622263Y-69580641D01*
X93508723Y-69580189D01*
X93430687Y-69577901D01*
X93379676Y-69572276D01*
X93347208Y-69561816D01*
X93324805Y-69545018D01*
X93303986Y-69520383D01*
X93272150Y-69458734D01*
X93278382Y-69390871D01*
X93329899Y-69325509D01*
X93339825Y-69318041D01*
X93360336Y-69308326D01*
X93391325Y-69300766D01*
X93437774Y-69295096D01*
X93504667Y-69291051D01*
X93596985Y-69288366D01*
X93719712Y-69286776D01*
X93877830Y-69286016D01*
X94076321Y-69285822D01*
X94116555Y-69285825D01*
G37*
X92758451Y-69331179D02*
X92769766Y-69343615D01*
X92779993Y-69360099D01*
X92788202Y-69383758D01*
X92794586Y-69418832D01*
X92799340Y-69469565D01*
X92802656Y-69540199D01*
X92804728Y-69634977D01*
X92805749Y-69758141D01*
X92805912Y-69913934D01*
X92805411Y-70106598D01*
X92804439Y-70340375D01*
X92804302Y-70368852D01*
X92803124Y-70492928D01*
X92800468Y-70580684D01*
X92795354Y-70639707D01*
X92786805Y-70677583D01*
X92773845Y-70701899D01*
X92755494Y-70720241D01*
X92688281Y-70755231D01*
X92618072Y-70749402D01*
X92555990Y-70700174D01*
X92537891Y-70673650D01*
X92522922Y-70636414D01*
X92514147Y-70584124D01*
X92510019Y-70506688D01*
X92508987Y-70394013D01*
X92508987Y-70147608D01*
X91511130Y-70147608D01*
X91511130Y-70418464D01*
X91510983Y-70490366D01*
X91509451Y-70583439D01*
X91505079Y-70644781D01*
X91496447Y-70683011D01*
X91482136Y-70706752D01*
X91460727Y-70724625D01*
X91395936Y-70754899D01*
X91325048Y-70749541D01*
X91263312Y-70700174D01*
X91253959Y-70687609D01*
X91242035Y-70666466D01*
X91232932Y-70638483D01*
X91226271Y-70598155D01*
X91221673Y-70539982D01*
X91218756Y-70458461D01*
X91217143Y-70348089D01*
X91216454Y-70203365D01*
X91216308Y-70018786D01*
X91216308Y-69397153D01*
X91271974Y-69341487D01*
X91335011Y-69296803D01*
X91401766Y-69291400D01*
X91465773Y-69331179D01*
X91482418Y-69350807D01*
X91497308Y-69382733D01*
X91506022Y-69430882D01*
X91510112Y-69504957D01*
X91511130Y-69614661D01*
X91511130Y-69852786D01*
X92508987Y-69852786D01*
X92508987Y-69624970D01*
X92508988Y-69620728D01*
X92509867Y-69516872D01*
X92513812Y-69447514D01*
X92522884Y-69402161D01*
X92539144Y-69370316D01*
X92564653Y-69341487D01*
X92627690Y-69296803D01*
X92694444Y-69291400D01*
X92758451Y-69331179D01*
G36*
X92758451Y-69331179D02*
G01*
X92769766Y-69343615D01*
X92779993Y-69360099D01*
X92788202Y-69383758D01*
X92794586Y-69418832D01*
X92799340Y-69469565D01*
X92802656Y-69540199D01*
X92804728Y-69634977D01*
X92805749Y-69758141D01*
X92805912Y-69913934D01*
X92805411Y-70106598D01*
X92804439Y-70340375D01*
X92804302Y-70368852D01*
X92803124Y-70492928D01*
X92800468Y-70580684D01*
X92795354Y-70639707D01*
X92786805Y-70677583D01*
X92773845Y-70701899D01*
X92755494Y-70720241D01*
X92688281Y-70755231D01*
X92618072Y-70749402D01*
X92555990Y-70700174D01*
X92537891Y-70673650D01*
X92522922Y-70636414D01*
X92514147Y-70584124D01*
X92510019Y-70506688D01*
X92508987Y-70394013D01*
X92508987Y-70147608D01*
X91511130Y-70147608D01*
X91511130Y-70418464D01*
X91510983Y-70490366D01*
X91509451Y-70583439D01*
X91505079Y-70644781D01*
X91496447Y-70683011D01*
X91482136Y-70706752D01*
X91460727Y-70724625D01*
X91395936Y-70754899D01*
X91325048Y-70749541D01*
X91263312Y-70700174D01*
X91253959Y-70687609D01*
X91242035Y-70666466D01*
X91232932Y-70638483D01*
X91226271Y-70598155D01*
X91221673Y-70539982D01*
X91218756Y-70458461D01*
X91217143Y-70348089D01*
X91216454Y-70203365D01*
X91216308Y-70018786D01*
X91216308Y-69397153D01*
X91271974Y-69341487D01*
X91335011Y-69296803D01*
X91401766Y-69291400D01*
X91465773Y-69331179D01*
X91482418Y-69350807D01*
X91497308Y-69382733D01*
X91506022Y-69430882D01*
X91510112Y-69504957D01*
X91511130Y-69614661D01*
X91511130Y-69852786D01*
X92508987Y-69852786D01*
X92508987Y-69624970D01*
X92508988Y-69620728D01*
X92509867Y-69516872D01*
X92513812Y-69447514D01*
X92522884Y-69402161D01*
X92539144Y-69370316D01*
X92564653Y-69341487D01*
X92627690Y-69296803D01*
X92694444Y-69291400D01*
X92758451Y-69331179D01*
G37*
X102211262Y-70513939D02*
X102207306Y-70579788D01*
X102201422Y-70625835D01*
X102193232Y-70657579D01*
X102182355Y-70680525D01*
X102168412Y-70700174D01*
X102121409Y-70759929D01*
X101788546Y-70758736D01*
X101718644Y-70758137D01*
X101520798Y-70751245D01*
X101358152Y-70735812D01*
X101223364Y-70710585D01*
X101109089Y-70674314D01*
X101007986Y-70625748D01*
X101001239Y-70621897D01*
X100885099Y-70548133D01*
X100800013Y-70473871D01*
X100734087Y-70386512D01*
X100675427Y-70273455D01*
X100666825Y-70254139D01*
X100621468Y-70127203D01*
X100609948Y-70035686D01*
X100909771Y-70035686D01*
X100921046Y-70085364D01*
X100932550Y-70117261D01*
X100998703Y-70237613D01*
X101093803Y-70329528D01*
X101221903Y-70396094D01*
X101387055Y-70440400D01*
X101392668Y-70441409D01*
X101485652Y-70453387D01*
X101598948Y-70461880D01*
X101709313Y-70465108D01*
X101897916Y-70465108D01*
X101897916Y-69580643D01*
X101722157Y-69581543D01*
X101587720Y-69586518D01*
X101402099Y-69609121D01*
X101242761Y-69648374D01*
X101118258Y-69702563D01*
X101056102Y-69744205D01*
X100999611Y-69804003D01*
X100952724Y-69889238D01*
X100938406Y-69921313D01*
X100914653Y-69986606D01*
X100909771Y-70035686D01*
X100609948Y-70035686D01*
X100607464Y-70015952D01*
X100624744Y-69905408D01*
X100673243Y-69780589D01*
X100674842Y-69777188D01*
X100756106Y-69637725D01*
X100857927Y-69524022D01*
X100983938Y-69434489D01*
X101137774Y-69367534D01*
X101323067Y-69321569D01*
X101543452Y-69295001D01*
X101802563Y-69286240D01*
X101809738Y-69286230D01*
X101930315Y-69286511D01*
X102014550Y-69288593D01*
X102071029Y-69293804D01*
X102108332Y-69303472D01*
X102135045Y-69318924D01*
X102159750Y-69341487D01*
X102215416Y-69397153D01*
X102215416Y-70018786D01*
X102215365Y-70142547D01*
X102214912Y-70300821D01*
X102213671Y-70422784D01*
X102212552Y-70465108D01*
X102211262Y-70513939D01*
G36*
X102211262Y-70513939D02*
G01*
X102207306Y-70579788D01*
X102201422Y-70625835D01*
X102193232Y-70657579D01*
X102182355Y-70680525D01*
X102168412Y-70700174D01*
X102121409Y-70759929D01*
X101788546Y-70758736D01*
X101718644Y-70758137D01*
X101520798Y-70751245D01*
X101358152Y-70735812D01*
X101223364Y-70710585D01*
X101109089Y-70674314D01*
X101007986Y-70625748D01*
X101001239Y-70621897D01*
X100885099Y-70548133D01*
X100800013Y-70473871D01*
X100734087Y-70386512D01*
X100675427Y-70273455D01*
X100666825Y-70254139D01*
X100621468Y-70127203D01*
X100609948Y-70035686D01*
X100909771Y-70035686D01*
X100921046Y-70085364D01*
X100932550Y-70117261D01*
X100998703Y-70237613D01*
X101093803Y-70329528D01*
X101221903Y-70396094D01*
X101387055Y-70440400D01*
X101392668Y-70441409D01*
X101485652Y-70453387D01*
X101598948Y-70461880D01*
X101709313Y-70465108D01*
X101897916Y-70465108D01*
X101897916Y-69580643D01*
X101722157Y-69581543D01*
X101587720Y-69586518D01*
X101402099Y-69609121D01*
X101242761Y-69648374D01*
X101118258Y-69702563D01*
X101056102Y-69744205D01*
X100999611Y-69804003D01*
X100952724Y-69889238D01*
X100938406Y-69921313D01*
X100914653Y-69986606D01*
X100909771Y-70035686D01*
X100609948Y-70035686D01*
X100607464Y-70015952D01*
X100624744Y-69905408D01*
X100673243Y-69780589D01*
X100674842Y-69777188D01*
X100756106Y-69637725D01*
X100857927Y-69524022D01*
X100983938Y-69434489D01*
X101137774Y-69367534D01*
X101323067Y-69321569D01*
X101543452Y-69295001D01*
X101802563Y-69286240D01*
X101809738Y-69286230D01*
X101930315Y-69286511D01*
X102014550Y-69288593D01*
X102071029Y-69293804D01*
X102108332Y-69303472D01*
X102135045Y-69318924D01*
X102159750Y-69341487D01*
X102215416Y-69397153D01*
X102215416Y-70018786D01*
X102215365Y-70142547D01*
X102214912Y-70300821D01*
X102213671Y-70422784D01*
X102212552Y-70465108D01*
X102211262Y-70513939D01*
G37*
X116457950Y-69658197D02*
X116458058Y-69820146D01*
X116457558Y-70022875D01*
X116457479Y-70174873D01*
X116456967Y-70331388D01*
X116455673Y-70451943D01*
X116453254Y-70541798D01*
X116449364Y-70606209D01*
X116443658Y-70650434D01*
X116435793Y-70679731D01*
X116425422Y-70699358D01*
X116412201Y-70714572D01*
X116398205Y-70727095D01*
X116372093Y-70741761D01*
X116333626Y-70751310D01*
X116274555Y-70756810D01*
X116186633Y-70759327D01*
X116061610Y-70759929D01*
X115963280Y-70759175D01*
X115748607Y-70750278D01*
X115569355Y-70730013D01*
X115419091Y-70696689D01*
X115291381Y-70648615D01*
X115179792Y-70584100D01*
X115077890Y-70501456D01*
X115065860Y-70489698D01*
X114991797Y-70392248D01*
X114929320Y-70270088D01*
X114886163Y-70141028D01*
X114875554Y-70063195D01*
X115171303Y-70063195D01*
X115208030Y-70165520D01*
X115267636Y-70257764D01*
X115361447Y-70342962D01*
X115484773Y-70402833D01*
X115643773Y-70441275D01*
X115646766Y-70441754D01*
X115745145Y-70453389D01*
X115863057Y-70461707D01*
X115975639Y-70464936D01*
X116162737Y-70465108D01*
X116162737Y-69580643D01*
X116009657Y-69580614D01*
X116003574Y-69580633D01*
X115900878Y-69584579D01*
X115780136Y-69594072D01*
X115666212Y-69607187D01*
X115565850Y-69625862D01*
X115415679Y-69678633D01*
X115300147Y-69757582D01*
X115216775Y-69864125D01*
X115174151Y-69967115D01*
X115171303Y-70063195D01*
X114875554Y-70063195D01*
X114870058Y-70022875D01*
X114872628Y-69980253D01*
X114897362Y-69864909D01*
X114942621Y-69744552D01*
X115001342Y-69635971D01*
X115066464Y-69555954D01*
X115105722Y-69521756D01*
X115215634Y-69443031D01*
X115336779Y-69382503D01*
X115475789Y-69338386D01*
X115639299Y-69308891D01*
X115833942Y-69292234D01*
X116066353Y-69286626D01*
X116145670Y-69285820D01*
X116237500Y-69284990D01*
X116309421Y-69288615D01*
X116363844Y-69301235D01*
X116403183Y-69327392D01*
X116429851Y-69371626D01*
X116446259Y-69438477D01*
X116454822Y-69532488D01*
X116456021Y-69580643D01*
X116457950Y-69658197D01*
G36*
X116457950Y-69658197D02*
G01*
X116458058Y-69820146D01*
X116457558Y-70022875D01*
X116457479Y-70174873D01*
X116456967Y-70331388D01*
X116455673Y-70451943D01*
X116453254Y-70541798D01*
X116449364Y-70606209D01*
X116443658Y-70650434D01*
X116435793Y-70679731D01*
X116425422Y-70699358D01*
X116412201Y-70714572D01*
X116398205Y-70727095D01*
X116372093Y-70741761D01*
X116333626Y-70751310D01*
X116274555Y-70756810D01*
X116186633Y-70759327D01*
X116061610Y-70759929D01*
X115963280Y-70759175D01*
X115748607Y-70750278D01*
X115569355Y-70730013D01*
X115419091Y-70696689D01*
X115291381Y-70648615D01*
X115179792Y-70584100D01*
X115077890Y-70501456D01*
X115065860Y-70489698D01*
X114991797Y-70392248D01*
X114929320Y-70270088D01*
X114886163Y-70141028D01*
X114875554Y-70063195D01*
X115171303Y-70063195D01*
X115208030Y-70165520D01*
X115267636Y-70257764D01*
X115361447Y-70342962D01*
X115484773Y-70402833D01*
X115643773Y-70441275D01*
X115646766Y-70441754D01*
X115745145Y-70453389D01*
X115863057Y-70461707D01*
X115975639Y-70464936D01*
X116162737Y-70465108D01*
X116162737Y-69580643D01*
X116009657Y-69580614D01*
X116003574Y-69580633D01*
X115900878Y-69584579D01*
X115780136Y-69594072D01*
X115666212Y-69607187D01*
X115565850Y-69625862D01*
X115415679Y-69678633D01*
X115300147Y-69757582D01*
X115216775Y-69864125D01*
X115174151Y-69967115D01*
X115171303Y-70063195D01*
X114875554Y-70063195D01*
X114870058Y-70022875D01*
X114872628Y-69980253D01*
X114897362Y-69864909D01*
X114942621Y-69744552D01*
X115001342Y-69635971D01*
X115066464Y-69555954D01*
X115105722Y-69521756D01*
X115215634Y-69443031D01*
X115336779Y-69382503D01*
X115475789Y-69338386D01*
X115639299Y-69308891D01*
X115833942Y-69292234D01*
X116066353Y-69286626D01*
X116145670Y-69285820D01*
X116237500Y-69284990D01*
X116309421Y-69288615D01*
X116363844Y-69301235D01*
X116403183Y-69327392D01*
X116429851Y-69371626D01*
X116446259Y-69438477D01*
X116454822Y-69532488D01*
X116456021Y-69580643D01*
X116457950Y-69658197D01*
G37*
X106523951Y-69283461D02*
X106546868Y-69295791D01*
X106568059Y-69317209D01*
X106590734Y-69345577D01*
X106599679Y-69357552D01*
X106611730Y-69378636D01*
X106620930Y-69406410D01*
X106627662Y-69446397D01*
X106632312Y-69504122D01*
X106635260Y-69585109D01*
X106636892Y-69694881D01*
X106637590Y-69838962D01*
X106637737Y-70022875D01*
X106637691Y-70140458D01*
X106637252Y-70299340D01*
X106636029Y-70421768D01*
X106633637Y-70513269D01*
X106629693Y-70579364D01*
X106623814Y-70625578D01*
X106615617Y-70657435D01*
X106604718Y-70680459D01*
X106590734Y-70700174D01*
X106529605Y-70749178D01*
X106459407Y-70754963D01*
X106385116Y-70716612D01*
X106376710Y-70709630D01*
X106360285Y-70692499D01*
X106348110Y-70669294D01*
X106339306Y-70633470D01*
X106332994Y-70578481D01*
X106328298Y-70497783D01*
X106324338Y-70384830D01*
X106320237Y-70233076D01*
X106308898Y-69792858D01*
X105775951Y-70276288D01*
X105627624Y-70410437D01*
X105496683Y-70527188D01*
X105391828Y-70617505D01*
X105309313Y-70683643D01*
X105245391Y-70727855D01*
X105196316Y-70752394D01*
X105158343Y-70759517D01*
X105127726Y-70751475D01*
X105100717Y-70730524D01*
X105073573Y-70698917D01*
X105061026Y-70681874D01*
X105049713Y-70660625D01*
X105041253Y-70632182D01*
X105035323Y-70591095D01*
X105031596Y-70531911D01*
X105029750Y-70449180D01*
X105029458Y-70337450D01*
X105030396Y-70191270D01*
X105032239Y-70005188D01*
X105038898Y-69372471D01*
X105092437Y-69329146D01*
X105144800Y-69296619D01*
X105210810Y-69291052D01*
X105280180Y-69329127D01*
X105288842Y-69336328D01*
X105305179Y-69353464D01*
X105317291Y-69376751D01*
X105326052Y-69412722D01*
X105332335Y-69467909D01*
X105337015Y-69548846D01*
X105340964Y-69662063D01*
X105345058Y-69814094D01*
X105356398Y-70255756D01*
X105719255Y-69926705D01*
X105893505Y-69768736D01*
X106045725Y-69631339D01*
X106170553Y-69520146D01*
X106271196Y-69433018D01*
X106350865Y-69367814D01*
X106412766Y-69322396D01*
X106460108Y-69294624D01*
X106496101Y-69282359D01*
X106523951Y-69283461D01*
G36*
X106523951Y-69283461D02*
G01*
X106546868Y-69295791D01*
X106568059Y-69317209D01*
X106590734Y-69345577D01*
X106599679Y-69357552D01*
X106611730Y-69378636D01*
X106620930Y-69406410D01*
X106627662Y-69446397D01*
X106632312Y-69504122D01*
X106635260Y-69585109D01*
X106636892Y-69694881D01*
X106637590Y-69838962D01*
X106637737Y-70022875D01*
X106637691Y-70140458D01*
X106637252Y-70299340D01*
X106636029Y-70421768D01*
X106633637Y-70513269D01*
X106629693Y-70579364D01*
X106623814Y-70625578D01*
X106615617Y-70657435D01*
X106604718Y-70680459D01*
X106590734Y-70700174D01*
X106529605Y-70749178D01*
X106459407Y-70754963D01*
X106385116Y-70716612D01*
X106376710Y-70709630D01*
X106360285Y-70692499D01*
X106348110Y-70669294D01*
X106339306Y-70633470D01*
X106332994Y-70578481D01*
X106328298Y-70497783D01*
X106324338Y-70384830D01*
X106320237Y-70233076D01*
X106308898Y-69792858D01*
X105775951Y-70276288D01*
X105627624Y-70410437D01*
X105496683Y-70527188D01*
X105391828Y-70617505D01*
X105309313Y-70683643D01*
X105245391Y-70727855D01*
X105196316Y-70752394D01*
X105158343Y-70759517D01*
X105127726Y-70751475D01*
X105100717Y-70730524D01*
X105073573Y-70698917D01*
X105061026Y-70681874D01*
X105049713Y-70660625D01*
X105041253Y-70632182D01*
X105035323Y-70591095D01*
X105031596Y-70531911D01*
X105029750Y-70449180D01*
X105029458Y-70337450D01*
X105030396Y-70191270D01*
X105032239Y-70005188D01*
X105038898Y-69372471D01*
X105092437Y-69329146D01*
X105144800Y-69296619D01*
X105210810Y-69291052D01*
X105280180Y-69329127D01*
X105288842Y-69336328D01*
X105305179Y-69353464D01*
X105317291Y-69376751D01*
X105326052Y-69412722D01*
X105332335Y-69467909D01*
X105337015Y-69548846D01*
X105340964Y-69662063D01*
X105345058Y-69814094D01*
X105356398Y-70255756D01*
X105719255Y-69926705D01*
X105893505Y-69768736D01*
X106045725Y-69631339D01*
X106170553Y-69520146D01*
X106271196Y-69433018D01*
X106350865Y-69367814D01*
X106412766Y-69322396D01*
X106460108Y-69294624D01*
X106496101Y-69282359D01*
X106523951Y-69283461D01*
G37*
X108125583Y-69296092D02*
X108338542Y-69328868D01*
X108527005Y-69385221D01*
X108685299Y-69463381D01*
X108807752Y-69561581D01*
X108860125Y-69627598D01*
X108919404Y-69726435D01*
X108970173Y-69834632D01*
X109005629Y-69937423D01*
X109018969Y-70020040D01*
X109015836Y-70059646D01*
X108989837Y-70162769D01*
X108943304Y-70276327D01*
X108883254Y-70384642D01*
X108816701Y-70472038D01*
X108796217Y-70492827D01*
X108661447Y-70596839D01*
X108500481Y-70676980D01*
X108327291Y-70726001D01*
X108216871Y-70742298D01*
X108029131Y-70755566D01*
X107848769Y-70751373D01*
X107683053Y-70730791D01*
X107539248Y-70694891D01*
X107424623Y-70644745D01*
X107346442Y-70581422D01*
X107343679Y-70577453D01*
X107329440Y-70526776D01*
X107320925Y-70431852D01*
X107318094Y-70292304D01*
X107319822Y-70167283D01*
X107329303Y-70072095D01*
X107352787Y-70007602D01*
X107396520Y-69968322D01*
X107466750Y-69948775D01*
X107569724Y-69943477D01*
X107711688Y-69946949D01*
X107809363Y-69953000D01*
X107910203Y-69969458D01*
X107975481Y-69997690D01*
X108010554Y-70040351D01*
X108020783Y-70100096D01*
X108020569Y-70109219D01*
X108003087Y-70179118D01*
X107954854Y-70226161D01*
X107871955Y-70252679D01*
X107750478Y-70261000D01*
X107612916Y-70261000D01*
X107612916Y-70338047D01*
X107613017Y-70356399D01*
X107617478Y-70391055D01*
X107636095Y-70411735D01*
X107679047Y-70425672D01*
X107756514Y-70440101D01*
X107767511Y-70441977D01*
X107962278Y-70461872D01*
X108143064Y-70456008D01*
X108305602Y-70426416D01*
X108445622Y-70375127D01*
X108558855Y-70304171D01*
X108641032Y-70215579D01*
X108687884Y-70111382D01*
X108695141Y-69993611D01*
X108684054Y-69935563D01*
X108630449Y-69823285D01*
X108537659Y-69731558D01*
X108407116Y-69661575D01*
X108240251Y-69614529D01*
X108190682Y-69605592D01*
X108011227Y-69584499D01*
X107850899Y-69586969D01*
X107694017Y-69612955D01*
X107623416Y-69626594D01*
X107532135Y-69628639D01*
X107469226Y-69603464D01*
X107428739Y-69549651D01*
X107415914Y-69492904D01*
X107434972Y-69430177D01*
X107453713Y-69403207D01*
X107522487Y-69355934D01*
X107628201Y-69320031D01*
X107765846Y-69296935D01*
X107930416Y-69288083D01*
X108125583Y-69296092D01*
G36*
X108125583Y-69296092D02*
G01*
X108338542Y-69328868D01*
X108527005Y-69385221D01*
X108685299Y-69463381D01*
X108807752Y-69561581D01*
X108860125Y-69627598D01*
X108919404Y-69726435D01*
X108970173Y-69834632D01*
X109005629Y-69937423D01*
X109018969Y-70020040D01*
X109015836Y-70059646D01*
X108989837Y-70162769D01*
X108943304Y-70276327D01*
X108883254Y-70384642D01*
X108816701Y-70472038D01*
X108796217Y-70492827D01*
X108661447Y-70596839D01*
X108500481Y-70676980D01*
X108327291Y-70726001D01*
X108216871Y-70742298D01*
X108029131Y-70755566D01*
X107848769Y-70751373D01*
X107683053Y-70730791D01*
X107539248Y-70694891D01*
X107424623Y-70644745D01*
X107346442Y-70581422D01*
X107343679Y-70577453D01*
X107329440Y-70526776D01*
X107320925Y-70431852D01*
X107318094Y-70292304D01*
X107319822Y-70167283D01*
X107329303Y-70072095D01*
X107352787Y-70007602D01*
X107396520Y-69968322D01*
X107466750Y-69948775D01*
X107569724Y-69943477D01*
X107711688Y-69946949D01*
X107809363Y-69953000D01*
X107910203Y-69969458D01*
X107975481Y-69997690D01*
X108010554Y-70040351D01*
X108020783Y-70100096D01*
X108020569Y-70109219D01*
X108003087Y-70179118D01*
X107954854Y-70226161D01*
X107871955Y-70252679D01*
X107750478Y-70261000D01*
X107612916Y-70261000D01*
X107612916Y-70338047D01*
X107613017Y-70356399D01*
X107617478Y-70391055D01*
X107636095Y-70411735D01*
X107679047Y-70425672D01*
X107756514Y-70440101D01*
X107767511Y-70441977D01*
X107962278Y-70461872D01*
X108143064Y-70456008D01*
X108305602Y-70426416D01*
X108445622Y-70375127D01*
X108558855Y-70304171D01*
X108641032Y-70215579D01*
X108687884Y-70111382D01*
X108695141Y-69993611D01*
X108684054Y-69935563D01*
X108630449Y-69823285D01*
X108537659Y-69731558D01*
X108407116Y-69661575D01*
X108240251Y-69614529D01*
X108190682Y-69605592D01*
X108011227Y-69584499D01*
X107850899Y-69586969D01*
X107694017Y-69612955D01*
X107623416Y-69626594D01*
X107532135Y-69628639D01*
X107469226Y-69603464D01*
X107428739Y-69549651D01*
X107415914Y-69492904D01*
X107434972Y-69430177D01*
X107453713Y-69403207D01*
X107522487Y-69355934D01*
X107628201Y-69320031D01*
X107765846Y-69296935D01*
X107930416Y-69288083D01*
X108125583Y-69296092D01*
G37*
X104209484Y-69345577D02*
X104219426Y-69359004D01*
X104231167Y-69380241D01*
X104240129Y-69408540D01*
X104246686Y-69449372D01*
X104251212Y-69508207D01*
X104254081Y-69590517D01*
X104255667Y-69701771D01*
X104256344Y-69847441D01*
X104256487Y-70032997D01*
X104256429Y-70165419D01*
X104255963Y-70322753D01*
X104254716Y-70443826D01*
X104252320Y-70534023D01*
X104248409Y-70598727D01*
X104242613Y-70643322D01*
X104234565Y-70673193D01*
X104223899Y-70693723D01*
X104210246Y-70710295D01*
X104201176Y-70719652D01*
X104184643Y-70732683D01*
X104161822Y-70742550D01*
X104127132Y-70749692D01*
X104074990Y-70754550D01*
X103999817Y-70757563D01*
X103896031Y-70759171D01*
X103758049Y-70759813D01*
X103580293Y-70759929D01*
X103540768Y-70759916D01*
X103365940Y-70759381D01*
X103230032Y-70757842D01*
X103127668Y-70755001D01*
X103053475Y-70750558D01*
X103002078Y-70744214D01*
X102968103Y-70735669D01*
X102946176Y-70724625D01*
X102925098Y-70704564D01*
X102898457Y-70642053D01*
X102900833Y-70569955D01*
X102933306Y-70506581D01*
X102937704Y-70502008D01*
X102955157Y-70489416D01*
X102981960Y-70480043D01*
X103024113Y-70473421D01*
X103087618Y-70469083D01*
X103178476Y-70466563D01*
X103302687Y-70465394D01*
X103466252Y-70465108D01*
X103961666Y-70465108D01*
X103961666Y-70147608D01*
X103635339Y-70147608D01*
X103563683Y-70147446D01*
X103451645Y-70145844D01*
X103373020Y-70141817D01*
X103319876Y-70134502D01*
X103284283Y-70123034D01*
X103258308Y-70106550D01*
X103250989Y-70100154D01*
X103214010Y-70037927D01*
X103212736Y-69964930D01*
X103247971Y-69897392D01*
X103248095Y-69897254D01*
X103267523Y-69879924D01*
X103294229Y-69867759D01*
X103335828Y-69859861D01*
X103399936Y-69855332D01*
X103494166Y-69853273D01*
X103626134Y-69852786D01*
X103963929Y-69852786D01*
X103957128Y-69722384D01*
X103950326Y-69591983D01*
X103464010Y-69585849D01*
X103413754Y-69585190D01*
X103249786Y-69582218D01*
X103124591Y-69577428D01*
X103032957Y-69569402D01*
X102969671Y-69556718D01*
X102929522Y-69537957D01*
X102907298Y-69511698D01*
X102897785Y-69476520D01*
X102895773Y-69431004D01*
X102895785Y-69426252D01*
X102898103Y-69386011D01*
X102907741Y-69354285D01*
X102929453Y-69330064D01*
X102967993Y-69312339D01*
X103028117Y-69300101D01*
X103114578Y-69292340D01*
X103232131Y-69288046D01*
X103385530Y-69286209D01*
X103579530Y-69285822D01*
X104162481Y-69285822D01*
X104209484Y-69345577D01*
G36*
X104209484Y-69345577D02*
G01*
X104219426Y-69359004D01*
X104231167Y-69380241D01*
X104240129Y-69408540D01*
X104246686Y-69449372D01*
X104251212Y-69508207D01*
X104254081Y-69590517D01*
X104255667Y-69701771D01*
X104256344Y-69847441D01*
X104256487Y-70032997D01*
X104256429Y-70165419D01*
X104255963Y-70322753D01*
X104254716Y-70443826D01*
X104252320Y-70534023D01*
X104248409Y-70598727D01*
X104242613Y-70643322D01*
X104234565Y-70673193D01*
X104223899Y-70693723D01*
X104210246Y-70710295D01*
X104201176Y-70719652D01*
X104184643Y-70732683D01*
X104161822Y-70742550D01*
X104127132Y-70749692D01*
X104074990Y-70754550D01*
X103999817Y-70757563D01*
X103896031Y-70759171D01*
X103758049Y-70759813D01*
X103580293Y-70759929D01*
X103540768Y-70759916D01*
X103365940Y-70759381D01*
X103230032Y-70757842D01*
X103127668Y-70755001D01*
X103053475Y-70750558D01*
X103002078Y-70744214D01*
X102968103Y-70735669D01*
X102946176Y-70724625D01*
X102925098Y-70704564D01*
X102898457Y-70642053D01*
X102900833Y-70569955D01*
X102933306Y-70506581D01*
X102937704Y-70502008D01*
X102955157Y-70489416D01*
X102981960Y-70480043D01*
X103024113Y-70473421D01*
X103087618Y-70469083D01*
X103178476Y-70466563D01*
X103302687Y-70465394D01*
X103466252Y-70465108D01*
X103961666Y-70465108D01*
X103961666Y-70147608D01*
X103635339Y-70147608D01*
X103563683Y-70147446D01*
X103451645Y-70145844D01*
X103373020Y-70141817D01*
X103319876Y-70134502D01*
X103284283Y-70123034D01*
X103258308Y-70106550D01*
X103250989Y-70100154D01*
X103214010Y-70037927D01*
X103212736Y-69964930D01*
X103247971Y-69897392D01*
X103248095Y-69897254D01*
X103267523Y-69879924D01*
X103294229Y-69867759D01*
X103335828Y-69859861D01*
X103399936Y-69855332D01*
X103494166Y-69853273D01*
X103626134Y-69852786D01*
X103963929Y-69852786D01*
X103957128Y-69722384D01*
X103950326Y-69591983D01*
X103464010Y-69585849D01*
X103413754Y-69585190D01*
X103249786Y-69582218D01*
X103124591Y-69577428D01*
X103032957Y-69569402D01*
X102969671Y-69556718D01*
X102929522Y-69537957D01*
X102907298Y-69511698D01*
X102897785Y-69476520D01*
X102895773Y-69431004D01*
X102895785Y-69426252D01*
X102898103Y-69386011D01*
X102907741Y-69354285D01*
X102929453Y-69330064D01*
X102967993Y-69312339D01*
X103028117Y-69300101D01*
X103114578Y-69292340D01*
X103232131Y-69288046D01*
X103385530Y-69286209D01*
X103579530Y-69285822D01*
X104162481Y-69285822D01*
X104209484Y-69345577D01*
G37*
X113605104Y-69285854D02*
X113759986Y-69286240D01*
X113878405Y-69287415D01*
X113965968Y-69289808D01*
X114028282Y-69293851D01*
X114070957Y-69299974D01*
X114099598Y-69308609D01*
X114119814Y-69320184D01*
X114137213Y-69335132D01*
X114140798Y-69338509D01*
X114155351Y-69353654D01*
X114166685Y-69371770D01*
X114175204Y-69398156D01*
X114181309Y-69438109D01*
X114185402Y-69496928D01*
X114187886Y-69579911D01*
X114189163Y-69692357D01*
X114189634Y-69839563D01*
X114189701Y-70026829D01*
X114189628Y-70173057D01*
X114189129Y-70330107D01*
X114187850Y-70451073D01*
X114185445Y-70541232D01*
X114181566Y-70605859D01*
X114175864Y-70650230D01*
X114167992Y-70679622D01*
X114157601Y-70699311D01*
X114144344Y-70714572D01*
X114137646Y-70720954D01*
X114120526Y-70733230D01*
X114096415Y-70742621D01*
X114059832Y-70749512D01*
X114005295Y-70754288D01*
X113927325Y-70757333D01*
X113820441Y-70759031D01*
X113679161Y-70759769D01*
X113498005Y-70759929D01*
X113413411Y-70759905D01*
X113250393Y-70759540D01*
X113124851Y-70758429D01*
X113031303Y-70756188D01*
X112964270Y-70752432D01*
X112918271Y-70746777D01*
X112887824Y-70738839D01*
X112867449Y-70728232D01*
X112851666Y-70714572D01*
X112822082Y-70671180D01*
X112806308Y-70612518D01*
X112817355Y-70564492D01*
X112851666Y-70510465D01*
X112861668Y-70501208D01*
X112881306Y-70488577D01*
X112909663Y-70479286D01*
X112952845Y-70472824D01*
X113016959Y-70468685D01*
X113108110Y-70466358D01*
X113232406Y-70465335D01*
X113395951Y-70465108D01*
X113894880Y-70465108D01*
X113894880Y-70147608D01*
X113571087Y-70147608D01*
X113499131Y-70147316D01*
X113367297Y-70143855D01*
X113272393Y-70134945D01*
X113208640Y-70118664D01*
X113170257Y-70093089D01*
X113151466Y-70056297D01*
X113146487Y-70006366D01*
X113148089Y-69965673D01*
X113158640Y-69921827D01*
X113184342Y-69890987D01*
X113231230Y-69870907D01*
X113305337Y-69859343D01*
X113412699Y-69854051D01*
X113559348Y-69852786D01*
X113897143Y-69852786D01*
X113890342Y-69722384D01*
X113883541Y-69591983D01*
X113385896Y-69585858D01*
X113260155Y-69584093D01*
X113122622Y-69581191D01*
X113020359Y-69577312D01*
X112947529Y-69571988D01*
X112898296Y-69564749D01*
X112866825Y-69555127D01*
X112847280Y-69542656D01*
X112835196Y-69529793D01*
X112809062Y-69466147D01*
X112816215Y-69394456D01*
X112855942Y-69332062D01*
X112862474Y-69326190D01*
X112880514Y-69313430D01*
X112904830Y-69303682D01*
X112941003Y-69296542D01*
X112994617Y-69291606D01*
X113071256Y-69288469D01*
X113176503Y-69286729D01*
X113315939Y-69285981D01*
X113495150Y-69285822D01*
X113605104Y-69285854D01*
G36*
X113605104Y-69285854D02*
G01*
X113759986Y-69286240D01*
X113878405Y-69287415D01*
X113965968Y-69289808D01*
X114028282Y-69293851D01*
X114070957Y-69299974D01*
X114099598Y-69308609D01*
X114119814Y-69320184D01*
X114137213Y-69335132D01*
X114140798Y-69338509D01*
X114155351Y-69353654D01*
X114166685Y-69371770D01*
X114175204Y-69398156D01*
X114181309Y-69438109D01*
X114185402Y-69496928D01*
X114187886Y-69579911D01*
X114189163Y-69692357D01*
X114189634Y-69839563D01*
X114189701Y-70026829D01*
X114189628Y-70173057D01*
X114189129Y-70330107D01*
X114187850Y-70451073D01*
X114185445Y-70541232D01*
X114181566Y-70605859D01*
X114175864Y-70650230D01*
X114167992Y-70679622D01*
X114157601Y-70699311D01*
X114144344Y-70714572D01*
X114137646Y-70720954D01*
X114120526Y-70733230D01*
X114096415Y-70742621D01*
X114059832Y-70749512D01*
X114005295Y-70754288D01*
X113927325Y-70757333D01*
X113820441Y-70759031D01*
X113679161Y-70759769D01*
X113498005Y-70759929D01*
X113413411Y-70759905D01*
X113250393Y-70759540D01*
X113124851Y-70758429D01*
X113031303Y-70756188D01*
X112964270Y-70752432D01*
X112918271Y-70746777D01*
X112887824Y-70738839D01*
X112867449Y-70728232D01*
X112851666Y-70714572D01*
X112822082Y-70671180D01*
X112806308Y-70612518D01*
X112817355Y-70564492D01*
X112851666Y-70510465D01*
X112861668Y-70501208D01*
X112881306Y-70488577D01*
X112909663Y-70479286D01*
X112952845Y-70472824D01*
X113016959Y-70468685D01*
X113108110Y-70466358D01*
X113232406Y-70465335D01*
X113395951Y-70465108D01*
X113894880Y-70465108D01*
X113894880Y-70147608D01*
X113571087Y-70147608D01*
X113499131Y-70147316D01*
X113367297Y-70143855D01*
X113272393Y-70134945D01*
X113208640Y-70118664D01*
X113170257Y-70093089D01*
X113151466Y-70056297D01*
X113146487Y-70006366D01*
X113148089Y-69965673D01*
X113158640Y-69921827D01*
X113184342Y-69890987D01*
X113231230Y-69870907D01*
X113305337Y-69859343D01*
X113412699Y-69854051D01*
X113559348Y-69852786D01*
X113897143Y-69852786D01*
X113890342Y-69722384D01*
X113883541Y-69591983D01*
X113385896Y-69585858D01*
X113260155Y-69584093D01*
X113122622Y-69581191D01*
X113020359Y-69577312D01*
X112947529Y-69571988D01*
X112898296Y-69564749D01*
X112866825Y-69555127D01*
X112847280Y-69542656D01*
X112835196Y-69529793D01*
X112809062Y-69466147D01*
X112816215Y-69394456D01*
X112855942Y-69332062D01*
X112862474Y-69326190D01*
X112880514Y-69313430D01*
X112904830Y-69303682D01*
X112941003Y-69296542D01*
X112994617Y-69291606D01*
X113071256Y-69288469D01*
X113176503Y-69286729D01*
X113315939Y-69285981D01*
X113495150Y-69285822D01*
X113605104Y-69285854D01*
G37*
X96394549Y-69304729D02*
X96430630Y-69341916D01*
X96472015Y-69404357D01*
X96521901Y-69496135D01*
X96583485Y-69621336D01*
X96659964Y-69784045D01*
X96689362Y-69847092D01*
X96749125Y-69974022D01*
X96801548Y-70083722D01*
X96843724Y-70170199D01*
X96872747Y-70227460D01*
X96885710Y-70249512D01*
X96888440Y-70248345D01*
X96908513Y-70220326D01*
X96943249Y-70160986D01*
X96988645Y-70077381D01*
X97040693Y-69976564D01*
X97072781Y-69913306D01*
X97130939Y-69802104D01*
X97176117Y-69723722D01*
X97212711Y-69672540D01*
X97245117Y-69642938D01*
X97277731Y-69629298D01*
X97314949Y-69626000D01*
X97336048Y-69626955D01*
X97368424Y-69635407D01*
X97399189Y-69657231D01*
X97432533Y-69697958D01*
X97472649Y-69763117D01*
X97523728Y-69858241D01*
X97589962Y-69988858D01*
X97609514Y-70027540D01*
X97658648Y-70121294D01*
X97699300Y-70193942D01*
X97727691Y-70238919D01*
X97740044Y-70249661D01*
X97742791Y-70243090D01*
X97761623Y-70201084D01*
X97795496Y-70126877D01*
X97841533Y-70026729D01*
X97896861Y-69906901D01*
X97958606Y-69773652D01*
X98012274Y-69658700D01*
X98071785Y-69534169D01*
X98118133Y-69442281D01*
X98154251Y-69377913D01*
X98183073Y-69335940D01*
X98207534Y-69311236D01*
X98230569Y-69298678D01*
X98249472Y-69292867D01*
X98299907Y-69292569D01*
X98354434Y-69323391D01*
X98357047Y-69325369D01*
X98401412Y-69370843D01*
X98423608Y-69415491D01*
X98423701Y-69416776D01*
X98414578Y-69452258D01*
X98388735Y-69521698D01*
X98349041Y-69618820D01*
X98298367Y-69737346D01*
X98239583Y-69870999D01*
X98175559Y-70013503D01*
X98109166Y-70158581D01*
X98043274Y-70299955D01*
X97980753Y-70431349D01*
X97924474Y-70546485D01*
X97877307Y-70639087D01*
X97842122Y-70702878D01*
X97821789Y-70731581D01*
X97752667Y-70758438D01*
X97668900Y-70745658D01*
X97658123Y-70736222D01*
X97626324Y-70691722D01*
X97581722Y-70617873D01*
X97528652Y-70522012D01*
X97471450Y-70411478D01*
X97311191Y-70091569D01*
X97164163Y-70386062D01*
X97144685Y-70424815D01*
X97090487Y-70529978D01*
X97042215Y-70619957D01*
X97004519Y-70686221D01*
X96982047Y-70720241D01*
X96979745Y-70722739D01*
X96923253Y-70753449D01*
X96852815Y-70756831D01*
X96790456Y-70731581D01*
X96785582Y-70725857D01*
X96760952Y-70684422D01*
X96721302Y-70608985D01*
X96669261Y-70504866D01*
X96607462Y-70377386D01*
X96538534Y-70231864D01*
X96465109Y-70073622D01*
X96424447Y-69984981D01*
X96350573Y-69822805D01*
X96293406Y-69694880D01*
X96251169Y-69596574D01*
X96222085Y-69523257D01*
X96204378Y-69470297D01*
X96196271Y-69433066D01*
X96195986Y-69406930D01*
X96201748Y-69387261D01*
X96231193Y-69345310D01*
X96284635Y-69304526D01*
X96286154Y-69303838D01*
X96325508Y-69289774D01*
X96360574Y-69288710D01*
X96394549Y-69304729D01*
G36*
X96394549Y-69304729D02*
G01*
X96430630Y-69341916D01*
X96472015Y-69404357D01*
X96521901Y-69496135D01*
X96583485Y-69621336D01*
X96659964Y-69784045D01*
X96689362Y-69847092D01*
X96749125Y-69974022D01*
X96801548Y-70083722D01*
X96843724Y-70170199D01*
X96872747Y-70227460D01*
X96885710Y-70249512D01*
X96888440Y-70248345D01*
X96908513Y-70220326D01*
X96943249Y-70160986D01*
X96988645Y-70077381D01*
X97040693Y-69976564D01*
X97072781Y-69913306D01*
X97130939Y-69802104D01*
X97176117Y-69723722D01*
X97212711Y-69672540D01*
X97245117Y-69642938D01*
X97277731Y-69629298D01*
X97314949Y-69626000D01*
X97336048Y-69626955D01*
X97368424Y-69635407D01*
X97399189Y-69657231D01*
X97432533Y-69697958D01*
X97472649Y-69763117D01*
X97523728Y-69858241D01*
X97589962Y-69988858D01*
X97609514Y-70027540D01*
X97658648Y-70121294D01*
X97699300Y-70193942D01*
X97727691Y-70238919D01*
X97740044Y-70249661D01*
X97742791Y-70243090D01*
X97761623Y-70201084D01*
X97795496Y-70126877D01*
X97841533Y-70026729D01*
X97896861Y-69906901D01*
X97958606Y-69773652D01*
X98012274Y-69658700D01*
X98071785Y-69534169D01*
X98118133Y-69442281D01*
X98154251Y-69377913D01*
X98183073Y-69335940D01*
X98207534Y-69311236D01*
X98230569Y-69298678D01*
X98249472Y-69292867D01*
X98299907Y-69292569D01*
X98354434Y-69323391D01*
X98357047Y-69325369D01*
X98401412Y-69370843D01*
X98423608Y-69415491D01*
X98423701Y-69416776D01*
X98414578Y-69452258D01*
X98388735Y-69521698D01*
X98349041Y-69618820D01*
X98298367Y-69737346D01*
X98239583Y-69870999D01*
X98175559Y-70013503D01*
X98109166Y-70158581D01*
X98043274Y-70299955D01*
X97980753Y-70431349D01*
X97924474Y-70546485D01*
X97877307Y-70639087D01*
X97842122Y-70702878D01*
X97821789Y-70731581D01*
X97752667Y-70758438D01*
X97668900Y-70745658D01*
X97658123Y-70736222D01*
X97626324Y-70691722D01*
X97581722Y-70617873D01*
X97528652Y-70522012D01*
X97471450Y-70411478D01*
X97311191Y-70091569D01*
X97164163Y-70386062D01*
X97144685Y-70424815D01*
X97090487Y-70529978D01*
X97042215Y-70619957D01*
X97004519Y-70686221D01*
X96982047Y-70720241D01*
X96979745Y-70722739D01*
X96923253Y-70753449D01*
X96852815Y-70756831D01*
X96790456Y-70731581D01*
X96785582Y-70725857D01*
X96760952Y-70684422D01*
X96721302Y-70608985D01*
X96669261Y-70504866D01*
X96607462Y-70377386D01*
X96538534Y-70231864D01*
X96465109Y-70073622D01*
X96424447Y-69984981D01*
X96350573Y-69822805D01*
X96293406Y-69694880D01*
X96251169Y-69596574D01*
X96222085Y-69523257D01*
X96204378Y-69470297D01*
X96196271Y-69433066D01*
X96195986Y-69406930D01*
X96201748Y-69387261D01*
X96231193Y-69345310D01*
X96284635Y-69304526D01*
X96286154Y-69303838D01*
X96325508Y-69289774D01*
X96360574Y-69288710D01*
X96394549Y-69304729D01*
G37*
X111564272Y-69287568D02*
X111697356Y-69298476D01*
X111808451Y-69317758D01*
X111910671Y-69347613D01*
X112053932Y-69414174D01*
X112156702Y-69499920D01*
X112218624Y-69604514D01*
X112239344Y-69727618D01*
X112237462Y-69790394D01*
X112225825Y-69840210D01*
X112196079Y-69883743D01*
X112139884Y-69938688D01*
X112123856Y-69953411D01*
X112076226Y-69995404D01*
X112031238Y-70029497D01*
X111982956Y-70057528D01*
X111925444Y-70081336D01*
X111852768Y-70102759D01*
X111758990Y-70123635D01*
X111638177Y-70145802D01*
X111484391Y-70171099D01*
X111291697Y-70201365D01*
X111254805Y-70207460D01*
X111129589Y-70234823D01*
X111038750Y-70266430D01*
X110985948Y-70300725D01*
X110974841Y-70336151D01*
X110980106Y-70344730D01*
X111016130Y-70374994D01*
X111072633Y-70408411D01*
X111098346Y-70420446D01*
X111141133Y-70434895D01*
X111194141Y-70444492D01*
X111266149Y-70450155D01*
X111365939Y-70452802D01*
X111502291Y-70453352D01*
X111538019Y-70453205D01*
X111673865Y-70450973D01*
X111804322Y-70446503D01*
X111916070Y-70440343D01*
X111995785Y-70433042D01*
X112067125Y-70424869D01*
X112125891Y-70423296D01*
X112163861Y-70432536D01*
X112194223Y-70453982D01*
X112201568Y-70461200D01*
X112234398Y-70525031D01*
X112231747Y-70596658D01*
X112193663Y-70658168D01*
X112152740Y-70681484D01*
X112080452Y-70706987D01*
X111995226Y-70727176D01*
X111988293Y-70728379D01*
X111902574Y-70738859D01*
X111787288Y-70747645D01*
X111656674Y-70753848D01*
X111524969Y-70756578D01*
X111492359Y-70756662D01*
X111294857Y-70751685D01*
X111134038Y-70735601D01*
X111003097Y-70706408D01*
X110895225Y-70662103D01*
X110803617Y-70600683D01*
X110721466Y-70520145D01*
X110681044Y-70467459D01*
X110657688Y-70408100D01*
X110651844Y-70328312D01*
X110652127Y-70304268D01*
X110659908Y-70238613D01*
X110684787Y-70185324D01*
X110735342Y-70123352D01*
X110777955Y-70078874D01*
X110830983Y-70033581D01*
X110890683Y-69996682D01*
X110963464Y-69966034D01*
X111055739Y-69939492D01*
X111173918Y-69914913D01*
X111324411Y-69890152D01*
X111513630Y-69863065D01*
X111604658Y-69848983D01*
X111741174Y-69819735D01*
X111839884Y-69786589D01*
X111899283Y-69750633D01*
X111917866Y-69712956D01*
X111894128Y-69674646D01*
X111826564Y-69636791D01*
X111820445Y-69634352D01*
X111727313Y-69610088D01*
X111601453Y-69593614D01*
X111453929Y-69585256D01*
X111295807Y-69585342D01*
X111138150Y-69594198D01*
X110992023Y-69612150D01*
X110984134Y-69613453D01*
X110886065Y-69628936D01*
X110821274Y-69636192D01*
X110779092Y-69634991D01*
X110748850Y-69625105D01*
X110719880Y-69606304D01*
X110717530Y-69604556D01*
X110668277Y-69543537D01*
X110658648Y-69472217D01*
X110690402Y-69402746D01*
X110699534Y-69393793D01*
X110759027Y-69363379D01*
X110853410Y-69337016D01*
X110974556Y-69315320D01*
X111114341Y-69298909D01*
X111264639Y-69288402D01*
X111417325Y-69284416D01*
X111564272Y-69287568D01*
G36*
X111564272Y-69287568D02*
G01*
X111697356Y-69298476D01*
X111808451Y-69317758D01*
X111910671Y-69347613D01*
X112053932Y-69414174D01*
X112156702Y-69499920D01*
X112218624Y-69604514D01*
X112239344Y-69727618D01*
X112237462Y-69790394D01*
X112225825Y-69840210D01*
X112196079Y-69883743D01*
X112139884Y-69938688D01*
X112123856Y-69953411D01*
X112076226Y-69995404D01*
X112031238Y-70029497D01*
X111982956Y-70057528D01*
X111925444Y-70081336D01*
X111852768Y-70102759D01*
X111758990Y-70123635D01*
X111638177Y-70145802D01*
X111484391Y-70171099D01*
X111291697Y-70201365D01*
X111254805Y-70207460D01*
X111129589Y-70234823D01*
X111038750Y-70266430D01*
X110985948Y-70300725D01*
X110974841Y-70336151D01*
X110980106Y-70344730D01*
X111016130Y-70374994D01*
X111072633Y-70408411D01*
X111098346Y-70420446D01*
X111141133Y-70434895D01*
X111194141Y-70444492D01*
X111266149Y-70450155D01*
X111365939Y-70452802D01*
X111502291Y-70453352D01*
X111538019Y-70453205D01*
X111673865Y-70450973D01*
X111804322Y-70446503D01*
X111916070Y-70440343D01*
X111995785Y-70433042D01*
X112067125Y-70424869D01*
X112125891Y-70423296D01*
X112163861Y-70432536D01*
X112194223Y-70453982D01*
X112201568Y-70461200D01*
X112234398Y-70525031D01*
X112231747Y-70596658D01*
X112193663Y-70658168D01*
X112152740Y-70681484D01*
X112080452Y-70706987D01*
X111995226Y-70727176D01*
X111988293Y-70728379D01*
X111902574Y-70738859D01*
X111787288Y-70747645D01*
X111656674Y-70753848D01*
X111524969Y-70756578D01*
X111492359Y-70756662D01*
X111294857Y-70751685D01*
X111134038Y-70735601D01*
X111003097Y-70706408D01*
X110895225Y-70662103D01*
X110803617Y-70600683D01*
X110721466Y-70520145D01*
X110681044Y-70467459D01*
X110657688Y-70408100D01*
X110651844Y-70328312D01*
X110652127Y-70304268D01*
X110659908Y-70238613D01*
X110684787Y-70185324D01*
X110735342Y-70123352D01*
X110777955Y-70078874D01*
X110830983Y-70033581D01*
X110890683Y-69996682D01*
X110963464Y-69966034D01*
X111055739Y-69939492D01*
X111173918Y-69914913D01*
X111324411Y-69890152D01*
X111513630Y-69863065D01*
X111604658Y-69848983D01*
X111741174Y-69819735D01*
X111839884Y-69786589D01*
X111899283Y-69750633D01*
X111917866Y-69712956D01*
X111894128Y-69674646D01*
X111826564Y-69636791D01*
X111820445Y-69634352D01*
X111727313Y-69610088D01*
X111601453Y-69593614D01*
X111453929Y-69585256D01*
X111295807Y-69585342D01*
X111138150Y-69594198D01*
X110992023Y-69612150D01*
X110984134Y-69613453D01*
X110886065Y-69628936D01*
X110821274Y-69636192D01*
X110779092Y-69634991D01*
X110748850Y-69625105D01*
X110719880Y-69606304D01*
X110717530Y-69604556D01*
X110668277Y-69543537D01*
X110658648Y-69472217D01*
X110690402Y-69402746D01*
X110699534Y-69393793D01*
X110759027Y-69363379D01*
X110853410Y-69337016D01*
X110974556Y-69315320D01*
X111114341Y-69298909D01*
X111264639Y-69288402D01*
X111417325Y-69284416D01*
X111564272Y-69287568D01*
G37*
X103712828Y-58704666D02*
X104079845Y-58738359D01*
X104420804Y-58806309D01*
X104748389Y-58911376D01*
X105075280Y-59056420D01*
X105398867Y-59241610D01*
X105746139Y-59494072D01*
X106068178Y-59785966D01*
X106357891Y-60110066D01*
X106608187Y-60459146D01*
X106811976Y-60825981D01*
X106830474Y-60865224D01*
X106985390Y-61244010D01*
X107103104Y-61637611D01*
X107185137Y-62053548D01*
X107233010Y-62499340D01*
X107248244Y-62982505D01*
X107229721Y-63481973D01*
X107170929Y-63973852D01*
X107070955Y-64434306D01*
X106928904Y-64866601D01*
X106743882Y-65274004D01*
X106514994Y-65659781D01*
X106299993Y-65954511D01*
X106003121Y-66286130D01*
X105679545Y-66570172D01*
X105329405Y-66806545D01*
X104952844Y-66995155D01*
X104550002Y-67135911D01*
X104121023Y-67228718D01*
X104116127Y-67229441D01*
X104033516Y-67236690D01*
X103908850Y-67242066D01*
X103753660Y-67245320D01*
X103579470Y-67246200D01*
X103397810Y-67244455D01*
X103270492Y-67241898D01*
X103081590Y-67235976D01*
X102930220Y-67227497D01*
X102805461Y-67215557D01*
X102696398Y-67199252D01*
X102592111Y-67177675D01*
X102474780Y-67149792D01*
X102352367Y-67118039D01*
X102241657Y-67084729D01*
X102132602Y-67045959D01*
X102015154Y-66997828D01*
X101879266Y-66936435D01*
X101714889Y-66857878D01*
X101511976Y-66758255D01*
X100950767Y-66480907D01*
X101400260Y-65742602D01*
X101459107Y-65645971D01*
X101564831Y-65472506D01*
X101659460Y-65317427D01*
X101739536Y-65186391D01*
X101801601Y-65085054D01*
X101842196Y-65019073D01*
X101857863Y-64994104D01*
X101862221Y-64994850D01*
X101897323Y-65019285D01*
X101958992Y-65069997D01*
X102037484Y-65139118D01*
X102177273Y-65258543D01*
X102426827Y-65435142D01*
X102668953Y-65558253D01*
X102843920Y-65619732D01*
X103139864Y-65682563D01*
X103430637Y-65693700D01*
X103712023Y-65653901D01*
X103979805Y-65563926D01*
X104229768Y-65424534D01*
X104457693Y-65236481D01*
X104584519Y-65097974D01*
X104763190Y-64841784D01*
X104909798Y-64544489D01*
X105025042Y-64204566D01*
X105109626Y-63820492D01*
X105113463Y-63796649D01*
X105131192Y-63642108D01*
X105144390Y-63450095D01*
X105152950Y-63233728D01*
X105156766Y-63006128D01*
X105155730Y-62780415D01*
X105149737Y-62569710D01*
X105138679Y-62387132D01*
X105122448Y-62245803D01*
X105060239Y-61925661D01*
X104955564Y-61551693D01*
X104823918Y-61224290D01*
X104665477Y-60943705D01*
X104480417Y-60710191D01*
X104268915Y-60524002D01*
X104031146Y-60385391D01*
X103767286Y-60294611D01*
X103708745Y-60283344D01*
X103562037Y-60268632D01*
X103390586Y-60263830D01*
X103213600Y-60268673D01*
X103050286Y-60282899D01*
X102919853Y-60306243D01*
X102702567Y-60380574D01*
X102450411Y-60516274D01*
X102225887Y-60694853D01*
X102186259Y-60732471D01*
X102114454Y-60799026D01*
X102063705Y-60843823D01*
X102043088Y-60858724D01*
X102038012Y-60851597D01*
X102006768Y-60806596D01*
X101950324Y-60724884D01*
X101872410Y-60611874D01*
X101776754Y-60472976D01*
X101667087Y-60313601D01*
X101547138Y-60139159D01*
X101056519Y-59425420D01*
X101166120Y-59392582D01*
X101177557Y-59388861D01*
X101252006Y-59359305D01*
X101359342Y-59311645D01*
X101486969Y-59251616D01*
X101622292Y-59184949D01*
X101681259Y-59155473D01*
X102008697Y-59003299D01*
X102310493Y-58885623D01*
X102598254Y-58799435D01*
X102883587Y-58741725D01*
X103178100Y-58709483D01*
X103493401Y-58699698D01*
X103712828Y-58704666D01*
G36*
X103712828Y-58704666D02*
G01*
X104079845Y-58738359D01*
X104420804Y-58806309D01*
X104748389Y-58911376D01*
X105075280Y-59056420D01*
X105398867Y-59241610D01*
X105746139Y-59494072D01*
X106068178Y-59785966D01*
X106357891Y-60110066D01*
X106608187Y-60459146D01*
X106811976Y-60825981D01*
X106830474Y-60865224D01*
X106985390Y-61244010D01*
X107103104Y-61637611D01*
X107185137Y-62053548D01*
X107233010Y-62499340D01*
X107248244Y-62982505D01*
X107229721Y-63481973D01*
X107170929Y-63973852D01*
X107070955Y-64434306D01*
X106928904Y-64866601D01*
X106743882Y-65274004D01*
X106514994Y-65659781D01*
X106299993Y-65954511D01*
X106003121Y-66286130D01*
X105679545Y-66570172D01*
X105329405Y-66806545D01*
X104952844Y-66995155D01*
X104550002Y-67135911D01*
X104121023Y-67228718D01*
X104116127Y-67229441D01*
X104033516Y-67236690D01*
X103908850Y-67242066D01*
X103753660Y-67245320D01*
X103579470Y-67246200D01*
X103397810Y-67244455D01*
X103270492Y-67241898D01*
X103081590Y-67235976D01*
X102930220Y-67227497D01*
X102805461Y-67215557D01*
X102696398Y-67199252D01*
X102592111Y-67177675D01*
X102474780Y-67149792D01*
X102352367Y-67118039D01*
X102241657Y-67084729D01*
X102132602Y-67045959D01*
X102015154Y-66997828D01*
X101879266Y-66936435D01*
X101714889Y-66857878D01*
X101511976Y-66758255D01*
X100950767Y-66480907D01*
X101400260Y-65742602D01*
X101459107Y-65645971D01*
X101564831Y-65472506D01*
X101659460Y-65317427D01*
X101739536Y-65186391D01*
X101801601Y-65085054D01*
X101842196Y-65019073D01*
X101857863Y-64994104D01*
X101862221Y-64994850D01*
X101897323Y-65019285D01*
X101958992Y-65069997D01*
X102037484Y-65139118D01*
X102177273Y-65258543D01*
X102426827Y-65435142D01*
X102668953Y-65558253D01*
X102843920Y-65619732D01*
X103139864Y-65682563D01*
X103430637Y-65693700D01*
X103712023Y-65653901D01*
X103979805Y-65563926D01*
X104229768Y-65424534D01*
X104457693Y-65236481D01*
X104584519Y-65097974D01*
X104763190Y-64841784D01*
X104909798Y-64544489D01*
X105025042Y-64204566D01*
X105109626Y-63820492D01*
X105113463Y-63796649D01*
X105131192Y-63642108D01*
X105144390Y-63450095D01*
X105152950Y-63233728D01*
X105156766Y-63006128D01*
X105155730Y-62780415D01*
X105149737Y-62569710D01*
X105138679Y-62387132D01*
X105122448Y-62245803D01*
X105060239Y-61925661D01*
X104955564Y-61551693D01*
X104823918Y-61224290D01*
X104665477Y-60943705D01*
X104480417Y-60710191D01*
X104268915Y-60524002D01*
X104031146Y-60385391D01*
X103767286Y-60294611D01*
X103708745Y-60283344D01*
X103562037Y-60268632D01*
X103390586Y-60263830D01*
X103213600Y-60268673D01*
X103050286Y-60282899D01*
X102919853Y-60306243D01*
X102702567Y-60380574D01*
X102450411Y-60516274D01*
X102225887Y-60694853D01*
X102186259Y-60732471D01*
X102114454Y-60799026D01*
X102063705Y-60843823D01*
X102043088Y-60858724D01*
X102038012Y-60851597D01*
X102006768Y-60806596D01*
X101950324Y-60724884D01*
X101872410Y-60611874D01*
X101776754Y-60472976D01*
X101667087Y-60313601D01*
X101547138Y-60139159D01*
X101056519Y-59425420D01*
X101166120Y-59392582D01*
X101177557Y-59388861D01*
X101252006Y-59359305D01*
X101359342Y-59311645D01*
X101486969Y-59251616D01*
X101622292Y-59184949D01*
X101681259Y-59155473D01*
X102008697Y-59003299D01*
X102310493Y-58885623D01*
X102598254Y-58799435D01*
X102883587Y-58741725D01*
X103178100Y-58709483D01*
X103493401Y-58699698D01*
X103712828Y-58704666D01*
G37*
X94790870Y-64395751D02*
X94785075Y-64648497D01*
X94768504Y-64871396D01*
X94739875Y-65076573D01*
X94697904Y-65276151D01*
X94641309Y-65482254D01*
X94555487Y-65728610D01*
X94397863Y-66061178D01*
X94204515Y-66359057D01*
X93978401Y-66619432D01*
X93722479Y-66839486D01*
X93439706Y-67016406D01*
X93133040Y-67147375D01*
X92805440Y-67229579D01*
X92801498Y-67230238D01*
X92562082Y-67253275D01*
X92299027Y-67250200D01*
X92031086Y-67222910D01*
X91777019Y-67173301D01*
X91555580Y-67103267D01*
X91461062Y-67060649D01*
X91337962Y-66995873D01*
X91211468Y-66921786D01*
X91094780Y-66846543D01*
X91001096Y-66778297D01*
X90943616Y-66725204D01*
X90930421Y-66710628D01*
X90914690Y-66705533D01*
X90904176Y-66730828D01*
X90896428Y-66794579D01*
X90888992Y-66904848D01*
X90875337Y-67134620D01*
X89829317Y-67141774D01*
X88783297Y-67148927D01*
X88855674Y-67025426D01*
X88859988Y-67018124D01*
X88881035Y-66983847D01*
X88900128Y-66953310D01*
X88917370Y-66923862D01*
X88932865Y-66892849D01*
X88946714Y-66857618D01*
X88959021Y-66815517D01*
X88969888Y-66763893D01*
X88979418Y-66700092D01*
X88987713Y-66621462D01*
X88994877Y-66525350D01*
X89001013Y-66409104D01*
X89006222Y-66270069D01*
X89010608Y-66105593D01*
X89014273Y-65913024D01*
X89017321Y-65689708D01*
X89019853Y-65432992D01*
X89021973Y-65140225D01*
X89023784Y-64808751D01*
X89025387Y-64435920D01*
X89026887Y-64019077D01*
X89028385Y-63555570D01*
X89029985Y-63042747D01*
X89031394Y-62601412D01*
X91011896Y-62601412D01*
X91011896Y-65440511D01*
X91148455Y-65530082D01*
X91200970Y-65562349D01*
X91321218Y-65626808D01*
X91435229Y-65678139D01*
X91485159Y-65695519D01*
X91644032Y-65730216D01*
X91844906Y-65747934D01*
X91947051Y-65751621D01*
X92041866Y-65750783D01*
X92112446Y-65741313D01*
X92175753Y-65720615D01*
X92248747Y-65686091D01*
X92389027Y-65593612D01*
X92510555Y-65462792D01*
X92607835Y-65294208D01*
X92681790Y-65085216D01*
X92733347Y-64833173D01*
X92763431Y-64535438D01*
X92772968Y-64189368D01*
X92772504Y-64110690D01*
X92758793Y-63746147D01*
X92725500Y-63428945D01*
X92671816Y-63155737D01*
X92596929Y-62923177D01*
X92500031Y-62727917D01*
X92380312Y-62566612D01*
X92330644Y-62517382D01*
X92176716Y-62414819D01*
X91996020Y-62352407D01*
X91796384Y-62330502D01*
X91585635Y-62349457D01*
X91371601Y-62409629D01*
X91162111Y-62511371D01*
X91011896Y-62601412D01*
X89031394Y-62601412D01*
X89031788Y-62477953D01*
X89045444Y-58312899D01*
X90131089Y-58305758D01*
X90210039Y-58305277D01*
X90442326Y-58304324D01*
X90654787Y-58304130D01*
X90841624Y-58304657D01*
X90997036Y-58305864D01*
X91115224Y-58307712D01*
X91190390Y-58310161D01*
X91216734Y-58313172D01*
X91213364Y-58322714D01*
X91188222Y-58367951D01*
X91146580Y-58433737D01*
X91142426Y-58440027D01*
X91110139Y-58490821D01*
X91083068Y-58540242D01*
X91060754Y-58593380D01*
X91042738Y-58655326D01*
X91028560Y-58731171D01*
X91017762Y-58826005D01*
X91009884Y-58944918D01*
X91004468Y-59093002D01*
X91001055Y-59275347D01*
X90999185Y-59497043D01*
X90998399Y-59763182D01*
X90998240Y-60078853D01*
X90998526Y-60325313D01*
X90999402Y-60567280D01*
X91000805Y-60786679D01*
X91002672Y-60978168D01*
X91004938Y-61136404D01*
X91007540Y-61256045D01*
X91010414Y-61331747D01*
X91013497Y-61358168D01*
X91023440Y-61354067D01*
X91067149Y-61325190D01*
X91129572Y-61277764D01*
X91220069Y-61213986D01*
X91390098Y-61120013D01*
X91584436Y-61036188D01*
X91784941Y-60971001D01*
X91953401Y-60937761D01*
X92163209Y-60916572D01*
X92390279Y-60909231D01*
X92617088Y-60915747D01*
X92826115Y-60936128D01*
X92999834Y-60970384D01*
X93176719Y-61028088D01*
X93471806Y-61167974D01*
X93745034Y-61353943D01*
X93991363Y-61581713D01*
X94205753Y-61847002D01*
X94383162Y-62145528D01*
X94427206Y-62237069D01*
X94550632Y-62545843D01*
X94647129Y-62880963D01*
X94717915Y-63248334D01*
X94764211Y-63653864D01*
X94787235Y-64103462D01*
X94788304Y-64189368D01*
X94790870Y-64395751D01*
G36*
X94790870Y-64395751D02*
G01*
X94785075Y-64648497D01*
X94768504Y-64871396D01*
X94739875Y-65076573D01*
X94697904Y-65276151D01*
X94641309Y-65482254D01*
X94555487Y-65728610D01*
X94397863Y-66061178D01*
X94204515Y-66359057D01*
X93978401Y-66619432D01*
X93722479Y-66839486D01*
X93439706Y-67016406D01*
X93133040Y-67147375D01*
X92805440Y-67229579D01*
X92801498Y-67230238D01*
X92562082Y-67253275D01*
X92299027Y-67250200D01*
X92031086Y-67222910D01*
X91777019Y-67173301D01*
X91555580Y-67103267D01*
X91461062Y-67060649D01*
X91337962Y-66995873D01*
X91211468Y-66921786D01*
X91094780Y-66846543D01*
X91001096Y-66778297D01*
X90943616Y-66725204D01*
X90930421Y-66710628D01*
X90914690Y-66705533D01*
X90904176Y-66730828D01*
X90896428Y-66794579D01*
X90888992Y-66904848D01*
X90875337Y-67134620D01*
X89829317Y-67141774D01*
X88783297Y-67148927D01*
X88855674Y-67025426D01*
X88859988Y-67018124D01*
X88881035Y-66983847D01*
X88900128Y-66953310D01*
X88917370Y-66923862D01*
X88932865Y-66892849D01*
X88946714Y-66857618D01*
X88959021Y-66815517D01*
X88969888Y-66763893D01*
X88979418Y-66700092D01*
X88987713Y-66621462D01*
X88994877Y-66525350D01*
X89001013Y-66409104D01*
X89006222Y-66270069D01*
X89010608Y-66105593D01*
X89014273Y-65913024D01*
X89017321Y-65689708D01*
X89019853Y-65432992D01*
X89021973Y-65140225D01*
X89023784Y-64808751D01*
X89025387Y-64435920D01*
X89026887Y-64019077D01*
X89028385Y-63555570D01*
X89029985Y-63042747D01*
X89031394Y-62601412D01*
X91011896Y-62601412D01*
X91011896Y-65440511D01*
X91148455Y-65530082D01*
X91200970Y-65562349D01*
X91321218Y-65626808D01*
X91435229Y-65678139D01*
X91485159Y-65695519D01*
X91644032Y-65730216D01*
X91844906Y-65747934D01*
X91947051Y-65751621D01*
X92041866Y-65750783D01*
X92112446Y-65741313D01*
X92175753Y-65720615D01*
X92248747Y-65686091D01*
X92389027Y-65593612D01*
X92510555Y-65462792D01*
X92607835Y-65294208D01*
X92681790Y-65085216D01*
X92733347Y-64833173D01*
X92763431Y-64535438D01*
X92772968Y-64189368D01*
X92772504Y-64110690D01*
X92758793Y-63746147D01*
X92725500Y-63428945D01*
X92671816Y-63155737D01*
X92596929Y-62923177D01*
X92500031Y-62727917D01*
X92380312Y-62566612D01*
X92330644Y-62517382D01*
X92176716Y-62414819D01*
X91996020Y-62352407D01*
X91796384Y-62330502D01*
X91585635Y-62349457D01*
X91371601Y-62409629D01*
X91162111Y-62511371D01*
X91011896Y-62601412D01*
X89031394Y-62601412D01*
X89031788Y-62477953D01*
X89045444Y-58312899D01*
X90131089Y-58305758D01*
X90210039Y-58305277D01*
X90442326Y-58304324D01*
X90654787Y-58304130D01*
X90841624Y-58304657D01*
X90997036Y-58305864D01*
X91115224Y-58307712D01*
X91190390Y-58310161D01*
X91216734Y-58313172D01*
X91213364Y-58322714D01*
X91188222Y-58367951D01*
X91146580Y-58433737D01*
X91142426Y-58440027D01*
X91110139Y-58490821D01*
X91083068Y-58540242D01*
X91060754Y-58593380D01*
X91042738Y-58655326D01*
X91028560Y-58731171D01*
X91017762Y-58826005D01*
X91009884Y-58944918D01*
X91004468Y-59093002D01*
X91001055Y-59275347D01*
X90999185Y-59497043D01*
X90998399Y-59763182D01*
X90998240Y-60078853D01*
X90998526Y-60325313D01*
X90999402Y-60567280D01*
X91000805Y-60786679D01*
X91002672Y-60978168D01*
X91004938Y-61136404D01*
X91007540Y-61256045D01*
X91010414Y-61331747D01*
X91013497Y-61358168D01*
X91023440Y-61354067D01*
X91067149Y-61325190D01*
X91129572Y-61277764D01*
X91220069Y-61213986D01*
X91390098Y-61120013D01*
X91584436Y-61036188D01*
X91784941Y-60971001D01*
X91953401Y-60937761D01*
X92163209Y-60916572D01*
X92390279Y-60909231D01*
X92617088Y-60915747D01*
X92826115Y-60936128D01*
X92999834Y-60970384D01*
X93176719Y-61028088D01*
X93471806Y-61167974D01*
X93745034Y-61353943D01*
X93991363Y-61581713D01*
X94205753Y-61847002D01*
X94383162Y-62145528D01*
X94427206Y-62237069D01*
X94550632Y-62545843D01*
X94647129Y-62880963D01*
X94717915Y-63248334D01*
X94764211Y-63653864D01*
X94787235Y-64103462D01*
X94788304Y-64189368D01*
X94790870Y-64395751D01*
G37*
X100964246Y-65255170D02*
X100951980Y-65475384D01*
X100925470Y-65680282D01*
X100885468Y-65850964D01*
X100821640Y-66026570D01*
X100673687Y-66315967D01*
X100484572Y-66570582D01*
X100256254Y-66788680D01*
X99990690Y-66968525D01*
X99689839Y-67108382D01*
X99355659Y-67206517D01*
X99219389Y-67228651D01*
X99024661Y-67244033D01*
X98812589Y-67247493D01*
X98600896Y-67239308D01*
X98407302Y-67219757D01*
X98249530Y-67189120D01*
X98170250Y-67164999D01*
X97990193Y-67094412D01*
X97807160Y-67004795D01*
X97640036Y-66905866D01*
X97507704Y-66807344D01*
X97506078Y-66805922D01*
X97433562Y-66744437D01*
X97377770Y-66700656D01*
X97350661Y-66683975D01*
X97347697Y-66687957D01*
X97340991Y-66730977D01*
X97336330Y-66811213D01*
X97334584Y-66916125D01*
X97334584Y-67148276D01*
X96310390Y-67148276D01*
X96283126Y-67148271D01*
X96054461Y-67147871D01*
X95844593Y-67146876D01*
X95659493Y-67145359D01*
X95505132Y-67143395D01*
X95387482Y-67141057D01*
X95312513Y-67138421D01*
X95286197Y-67135560D01*
X95286810Y-67133060D01*
X95304027Y-67096154D01*
X95340118Y-67026817D01*
X95388616Y-66937549D01*
X95491035Y-66752254D01*
X95506053Y-64922861D01*
X97443831Y-64922861D01*
X97444593Y-65067398D01*
X97448284Y-65219266D01*
X97455515Y-65329039D01*
X97466812Y-65403863D01*
X97482702Y-65450887D01*
X97503142Y-65484466D01*
X97580118Y-65576001D01*
X97683256Y-65671295D01*
X97796298Y-65756202D01*
X97902987Y-65816575D01*
X97962181Y-65838727D01*
X98098479Y-65868220D01*
X98276495Y-65883299D01*
X98464180Y-65881015D01*
X98642408Y-65850000D01*
X98791173Y-65785927D01*
X98919882Y-65685909D01*
X98956089Y-65648914D01*
X99050358Y-65522748D01*
X99101363Y-65386759D01*
X99116681Y-65223126D01*
X99112531Y-65136678D01*
X99071492Y-64958716D01*
X98985279Y-64805968D01*
X98852320Y-64676716D01*
X98671047Y-64569241D01*
X98439891Y-64481824D01*
X98346702Y-64458883D01*
X98233886Y-64443175D01*
X98091907Y-64434452D01*
X97908132Y-64431519D01*
X97878279Y-64431521D01*
X97740793Y-64433199D01*
X97622693Y-64437256D01*
X97535723Y-64443159D01*
X97491627Y-64450376D01*
X97486553Y-64452719D01*
X97470147Y-64467432D01*
X97458528Y-64496998D01*
X97450891Y-64549372D01*
X97446433Y-64632505D01*
X97444347Y-64754350D01*
X97443831Y-64922861D01*
X95506053Y-64922861D01*
X95506842Y-64826770D01*
X95509191Y-64546324D01*
X95512478Y-64188653D01*
X95515928Y-63878143D01*
X95519820Y-63610404D01*
X95524432Y-63381042D01*
X95530045Y-63185668D01*
X95536935Y-63019889D01*
X95545382Y-62879315D01*
X95555666Y-62759553D01*
X95568063Y-62656214D01*
X95582854Y-62564905D01*
X95600316Y-62481235D01*
X95620729Y-62400813D01*
X95644372Y-62319247D01*
X95671522Y-62232147D01*
X95778482Y-61959090D01*
X95924959Y-61706728D01*
X96107377Y-61490668D01*
X96327405Y-61309778D01*
X96586713Y-61162928D01*
X96886972Y-61048989D01*
X97229851Y-60966828D01*
X97617021Y-60915317D01*
X97752342Y-60905074D01*
X97980244Y-60897584D01*
X98206131Y-60904329D01*
X98440578Y-60926444D01*
X98694161Y-60965068D01*
X98977455Y-61021337D01*
X99301035Y-61096389D01*
X99375830Y-61114548D01*
X99563660Y-61159234D01*
X99741685Y-61200379D01*
X99899110Y-61235553D01*
X100025139Y-61262325D01*
X100108974Y-61278265D01*
X100302396Y-61310034D01*
X100030469Y-61969101D01*
X99962451Y-62133655D01*
X99895536Y-62294896D01*
X99838123Y-62432561D01*
X99793031Y-62539916D01*
X99763078Y-62610224D01*
X99751082Y-62636749D01*
X99749196Y-62637129D01*
X99714435Y-62625286D01*
X99646082Y-62594937D01*
X99556469Y-62551484D01*
X99370211Y-62466861D01*
X99113908Y-62374335D01*
X98851583Y-62303478D01*
X98593493Y-62256069D01*
X98349899Y-62233889D01*
X98131058Y-62238716D01*
X97947229Y-62272330D01*
X97818929Y-62325666D01*
X97673220Y-62434968D01*
X97561052Y-62583249D01*
X97485636Y-62765949D01*
X97450184Y-62978504D01*
X97437699Y-63174405D01*
X98089421Y-63176189D01*
X98309206Y-63178032D01*
X98552304Y-63184577D01*
X98759976Y-63196930D01*
X98942964Y-63216291D01*
X99112011Y-63243861D01*
X99277859Y-63280842D01*
X99451250Y-63328433D01*
X99710686Y-63419020D01*
X100015836Y-63568198D01*
X100283645Y-63750927D01*
X100511470Y-63964638D01*
X100696670Y-64206760D01*
X100836603Y-64474723D01*
X100928629Y-64765958D01*
X100943041Y-64844395D01*
X100961517Y-65038540D01*
X100963843Y-65223126D01*
X100964246Y-65255170D01*
G36*
X100964246Y-65255170D02*
G01*
X100951980Y-65475384D01*
X100925470Y-65680282D01*
X100885468Y-65850964D01*
X100821640Y-66026570D01*
X100673687Y-66315967D01*
X100484572Y-66570582D01*
X100256254Y-66788680D01*
X99990690Y-66968525D01*
X99689839Y-67108382D01*
X99355659Y-67206517D01*
X99219389Y-67228651D01*
X99024661Y-67244033D01*
X98812589Y-67247493D01*
X98600896Y-67239308D01*
X98407302Y-67219757D01*
X98249530Y-67189120D01*
X98170250Y-67164999D01*
X97990193Y-67094412D01*
X97807160Y-67004795D01*
X97640036Y-66905866D01*
X97507704Y-66807344D01*
X97506078Y-66805922D01*
X97433562Y-66744437D01*
X97377770Y-66700656D01*
X97350661Y-66683975D01*
X97347697Y-66687957D01*
X97340991Y-66730977D01*
X97336330Y-66811213D01*
X97334584Y-66916125D01*
X97334584Y-67148276D01*
X96310390Y-67148276D01*
X96283126Y-67148271D01*
X96054461Y-67147871D01*
X95844593Y-67146876D01*
X95659493Y-67145359D01*
X95505132Y-67143395D01*
X95387482Y-67141057D01*
X95312513Y-67138421D01*
X95286197Y-67135560D01*
X95286810Y-67133060D01*
X95304027Y-67096154D01*
X95340118Y-67026817D01*
X95388616Y-66937549D01*
X95491035Y-66752254D01*
X95506053Y-64922861D01*
X97443831Y-64922861D01*
X97444593Y-65067398D01*
X97448284Y-65219266D01*
X97455515Y-65329039D01*
X97466812Y-65403863D01*
X97482702Y-65450887D01*
X97503142Y-65484466D01*
X97580118Y-65576001D01*
X97683256Y-65671295D01*
X97796298Y-65756202D01*
X97902987Y-65816575D01*
X97962181Y-65838727D01*
X98098479Y-65868220D01*
X98276495Y-65883299D01*
X98464180Y-65881015D01*
X98642408Y-65850000D01*
X98791173Y-65785927D01*
X98919882Y-65685909D01*
X98956089Y-65648914D01*
X99050358Y-65522748D01*
X99101363Y-65386759D01*
X99116681Y-65223126D01*
X99112531Y-65136678D01*
X99071492Y-64958716D01*
X98985279Y-64805968D01*
X98852320Y-64676716D01*
X98671047Y-64569241D01*
X98439891Y-64481824D01*
X98346702Y-64458883D01*
X98233886Y-64443175D01*
X98091907Y-64434452D01*
X97908132Y-64431519D01*
X97878279Y-64431521D01*
X97740793Y-64433199D01*
X97622693Y-64437256D01*
X97535723Y-64443159D01*
X97491627Y-64450376D01*
X97486553Y-64452719D01*
X97470147Y-64467432D01*
X97458528Y-64496998D01*
X97450891Y-64549372D01*
X97446433Y-64632505D01*
X97444347Y-64754350D01*
X97443831Y-64922861D01*
X95506053Y-64922861D01*
X95506842Y-64826770D01*
X95509191Y-64546324D01*
X95512478Y-64188653D01*
X95515928Y-63878143D01*
X95519820Y-63610404D01*
X95524432Y-63381042D01*
X95530045Y-63185668D01*
X95536935Y-63019889D01*
X95545382Y-62879315D01*
X95555666Y-62759553D01*
X95568063Y-62656214D01*
X95582854Y-62564905D01*
X95600316Y-62481235D01*
X95620729Y-62400813D01*
X95644372Y-62319247D01*
X95671522Y-62232147D01*
X95778482Y-61959090D01*
X95924959Y-61706728D01*
X96107377Y-61490668D01*
X96327405Y-61309778D01*
X96586713Y-61162928D01*
X96886972Y-61048989D01*
X97229851Y-60966828D01*
X97617021Y-60915317D01*
X97752342Y-60905074D01*
X97980244Y-60897584D01*
X98206131Y-60904329D01*
X98440578Y-60926444D01*
X98694161Y-60965068D01*
X98977455Y-61021337D01*
X99301035Y-61096389D01*
X99375830Y-61114548D01*
X99563660Y-61159234D01*
X99741685Y-61200379D01*
X99899110Y-61235553D01*
X100025139Y-61262325D01*
X100108974Y-61278265D01*
X100302396Y-61310034D01*
X100030469Y-61969101D01*
X99962451Y-62133655D01*
X99895536Y-62294896D01*
X99838123Y-62432561D01*
X99793031Y-62539916D01*
X99763078Y-62610224D01*
X99751082Y-62636749D01*
X99749196Y-62637129D01*
X99714435Y-62625286D01*
X99646082Y-62594937D01*
X99556469Y-62551484D01*
X99370211Y-62466861D01*
X99113908Y-62374335D01*
X98851583Y-62303478D01*
X98593493Y-62256069D01*
X98349899Y-62233889D01*
X98131058Y-62238716D01*
X97947229Y-62272330D01*
X97818929Y-62325666D01*
X97673220Y-62434968D01*
X97561052Y-62583249D01*
X97485636Y-62765949D01*
X97450184Y-62978504D01*
X97437699Y-63174405D01*
X98089421Y-63176189D01*
X98309206Y-63178032D01*
X98552304Y-63184577D01*
X98759976Y-63196930D01*
X98942964Y-63216291D01*
X99112011Y-63243861D01*
X99277859Y-63280842D01*
X99451250Y-63328433D01*
X99710686Y-63419020D01*
X100015836Y-63568198D01*
X100283645Y-63750927D01*
X100511470Y-63964638D01*
X100696670Y-64206760D01*
X100836603Y-64474723D01*
X100928629Y-64765958D01*
X100943041Y-64844395D01*
X100961517Y-65038540D01*
X100963843Y-65223126D01*
X100964246Y-65255170D01*
G37*
X119286840Y-67202259D02*
X119284028Y-67414054D01*
X119280538Y-67596495D01*
X119276298Y-67751841D01*
X119271238Y-67882350D01*
X119265287Y-67990280D01*
X119258373Y-68077891D01*
X119250426Y-68147439D01*
X119241373Y-68201185D01*
X119231145Y-68241385D01*
X119219670Y-68270300D01*
X119206877Y-68290186D01*
X119192695Y-68303303D01*
X119177053Y-68311909D01*
X119159880Y-68318263D01*
X119141105Y-68324622D01*
X119120656Y-68333246D01*
X119109150Y-68337568D01*
X119088045Y-68342287D01*
X119056684Y-68346611D01*
X119012851Y-68350557D01*
X118954327Y-68354142D01*
X118878893Y-68357384D01*
X118784330Y-68360300D01*
X118668420Y-68362907D01*
X118528945Y-68365222D01*
X118363687Y-68367263D01*
X118170426Y-68369047D01*
X117946945Y-68370592D01*
X117691025Y-68371915D01*
X117400447Y-68373033D01*
X117072993Y-68373964D01*
X116706444Y-68374724D01*
X116298583Y-68375332D01*
X115847190Y-68375804D01*
X115350048Y-68376159D01*
X114804937Y-68376412D01*
X114209640Y-68376582D01*
X113561937Y-68376686D01*
X113356682Y-68376706D01*
X112723036Y-68376719D01*
X112141149Y-68376640D01*
X111608828Y-68376451D01*
X111123881Y-68376138D01*
X110684115Y-68375685D01*
X110287340Y-68375075D01*
X109931361Y-68374293D01*
X109613987Y-68373323D01*
X109333027Y-68372149D01*
X109086286Y-68370755D01*
X108871574Y-68369125D01*
X108686699Y-68367243D01*
X108529467Y-68365093D01*
X108397687Y-68362660D01*
X108289166Y-68359927D01*
X108201713Y-68356879D01*
X108133135Y-68353499D01*
X108081239Y-68349772D01*
X108043834Y-68345682D01*
X108018727Y-68341212D01*
X108003727Y-68336348D01*
X107998954Y-68334183D01*
X107979416Y-68327072D01*
X107961499Y-68321879D01*
X107945130Y-68316342D01*
X107930236Y-68308199D01*
X107916746Y-68295190D01*
X107904586Y-68275052D01*
X107893683Y-68245524D01*
X107883966Y-68204344D01*
X107875361Y-68149250D01*
X107867795Y-68077981D01*
X107861197Y-67988275D01*
X107855493Y-67877870D01*
X107850611Y-67744506D01*
X107846478Y-67585919D01*
X107843022Y-67399849D01*
X107840169Y-67184034D01*
X107839233Y-67084097D01*
X108559446Y-67084097D01*
X108560236Y-67093667D01*
X108574723Y-67101423D01*
X108607455Y-67107555D01*
X108662978Y-67112252D01*
X108745841Y-67115706D01*
X108860591Y-67118106D01*
X109011775Y-67119641D01*
X109203940Y-67120503D01*
X109441634Y-67120880D01*
X109729404Y-67120964D01*
X110934841Y-67120964D01*
X110731035Y-66752254D01*
X110731035Y-61399136D01*
X110934841Y-61030426D01*
X108780164Y-61030426D01*
X108772374Y-63864028D01*
X108764584Y-66697631D01*
X108688201Y-66860761D01*
X108647930Y-66941616D01*
X108602329Y-67022613D01*
X108567892Y-67072427D01*
X108567806Y-67072523D01*
X108559446Y-67084097D01*
X107839233Y-67084097D01*
X107837848Y-66936212D01*
X107835986Y-66654121D01*
X107834509Y-66335501D01*
X107833346Y-65978088D01*
X107832424Y-65579623D01*
X107831669Y-65137842D01*
X107831010Y-64650484D01*
X107830374Y-64115288D01*
X107829688Y-63529993D01*
X107828880Y-62892335D01*
X107828775Y-62815139D01*
X107827874Y-62181523D01*
X107827012Y-61600004D01*
X107826253Y-61068320D01*
X107825661Y-60584208D01*
X107825300Y-60145406D01*
X107825233Y-59749652D01*
X107825525Y-59394681D01*
X107826240Y-59078233D01*
X107827440Y-58798043D01*
X107829190Y-58551850D01*
X107831553Y-58337390D01*
X107834595Y-58152402D01*
X107838377Y-57994622D01*
X107842964Y-57861788D01*
X107848420Y-57751636D01*
X107854809Y-57661905D01*
X107862194Y-57590332D01*
X107870639Y-57534653D01*
X107880208Y-57492607D01*
X107890965Y-57461931D01*
X107902974Y-57440361D01*
X107916298Y-57425636D01*
X107931001Y-57415493D01*
X107947148Y-57407668D01*
X107964801Y-57399900D01*
X107984024Y-57389925D01*
X107989649Y-57386746D01*
X108074763Y-57355979D01*
X108167938Y-57343334D01*
X108272971Y-57343338D01*
X108274721Y-57582312D01*
X108275165Y-57609812D01*
X108308549Y-57889349D01*
X108393577Y-58152367D01*
X108529066Y-58396082D01*
X108713836Y-58617707D01*
X108812989Y-58708099D01*
X109033762Y-58857923D01*
X109274646Y-58962403D01*
X109528626Y-59021482D01*
X109788686Y-59035105D01*
X110047810Y-59003216D01*
X110298983Y-58925758D01*
X110505459Y-58818168D01*
X111419291Y-58818168D01*
X111539464Y-58904627D01*
X111641098Y-58985886D01*
X111784309Y-59118426D01*
X111946745Y-59284536D01*
X112122256Y-59477886D01*
X112304691Y-59692147D01*
X112351672Y-59749444D01*
X112431659Y-59847716D01*
X112536214Y-59976645D01*
X112661872Y-60131927D01*
X112805170Y-60309260D01*
X112962643Y-60504339D01*
X113130829Y-60712863D01*
X113306262Y-60930527D01*
X113386728Y-61030426D01*
X113485480Y-61153029D01*
X113665019Y-61376065D01*
X113841414Y-61595333D01*
X114011202Y-61806528D01*
X114170919Y-62005349D01*
X114317101Y-62187490D01*
X114446285Y-62348651D01*
X114555006Y-62484526D01*
X114639801Y-62590814D01*
X114697206Y-62663210D01*
X114723757Y-62697412D01*
X114725948Y-62710265D01*
X114718659Y-62734710D01*
X114699770Y-62773169D01*
X114667396Y-62828368D01*
X114619650Y-62903037D01*
X114554648Y-62999902D01*
X114470505Y-63121692D01*
X114365334Y-63271136D01*
X114237250Y-63450960D01*
X114084368Y-63663893D01*
X113904801Y-63912663D01*
X113696665Y-64199998D01*
X113458075Y-64528626D01*
X113267968Y-64790210D01*
X113036033Y-65109103D01*
X112832015Y-65389152D01*
X112653544Y-65633466D01*
X112498245Y-65845152D01*
X112363747Y-66027320D01*
X112247676Y-66183076D01*
X112147660Y-66315529D01*
X112061327Y-66427787D01*
X111986304Y-66522957D01*
X111920218Y-66604149D01*
X111860697Y-66674470D01*
X111805369Y-66737028D01*
X111751859Y-66794931D01*
X111697797Y-66851288D01*
X111640809Y-66909206D01*
X111430798Y-67120964D01*
X112842529Y-67121021D01*
X114254261Y-67121078D01*
X114245390Y-66949980D01*
X114244960Y-66941383D01*
X114243276Y-66872983D01*
X114246468Y-66807448D01*
X114256671Y-66741186D01*
X114276021Y-66670609D01*
X114306652Y-66592126D01*
X114350700Y-66502147D01*
X114410300Y-66397084D01*
X114487588Y-66273346D01*
X114584698Y-66127343D01*
X114703766Y-65955486D01*
X114846928Y-65754184D01*
X115016318Y-65519849D01*
X115214072Y-65248889D01*
X115442326Y-64937716D01*
X116248025Y-63840829D01*
X116255123Y-65112638D01*
X116255752Y-65231272D01*
X116256862Y-65550818D01*
X116256357Y-65822613D01*
X116253645Y-66051801D01*
X116248130Y-66243526D01*
X116239219Y-66402931D01*
X116226318Y-66535159D01*
X116208833Y-66645354D01*
X116186170Y-66738659D01*
X116157734Y-66820218D01*
X116122933Y-66895175D01*
X116081171Y-66968674D01*
X116031854Y-67045856D01*
X115982280Y-67120964D01*
X118558654Y-67120964D01*
X118492104Y-67032200D01*
X118481682Y-67018158D01*
X118398357Y-66889456D01*
X118340917Y-66759353D01*
X118303198Y-66610274D01*
X118279038Y-66424647D01*
X118278375Y-66416555D01*
X118274869Y-66339989D01*
X118271703Y-66212241D01*
X118268892Y-66036233D01*
X118266449Y-65814883D01*
X118264387Y-65551110D01*
X118262722Y-65247833D01*
X118261465Y-64907971D01*
X118260631Y-64534444D01*
X118260234Y-64130170D01*
X118260287Y-63698068D01*
X118260805Y-63241059D01*
X118261801Y-62762060D01*
X118262855Y-62332397D01*
X118263983Y-61864700D01*
X118265094Y-61446249D01*
X118266326Y-61074115D01*
X118267820Y-60745364D01*
X118269715Y-60457065D01*
X118272150Y-60206287D01*
X118275264Y-59990099D01*
X118279197Y-59805567D01*
X118284089Y-59649761D01*
X118290079Y-59519749D01*
X118297306Y-59412600D01*
X118305909Y-59325381D01*
X118316029Y-59255161D01*
X118327804Y-59199009D01*
X118341374Y-59153992D01*
X118356879Y-59117180D01*
X118374457Y-59085639D01*
X118394248Y-59056440D01*
X118416392Y-59026650D01*
X118441028Y-58993337D01*
X118464857Y-58959954D01*
X118510913Y-58893949D01*
X118538501Y-58852308D01*
X118539167Y-58850564D01*
X118529534Y-58842689D01*
X118495541Y-58836119D01*
X118433404Y-58830751D01*
X118339341Y-58826486D01*
X118209569Y-58823223D01*
X118040307Y-58820860D01*
X117827770Y-58819297D01*
X117568178Y-58818434D01*
X117257746Y-58818168D01*
X115956395Y-58818168D01*
X116024980Y-58899678D01*
X116064730Y-58955660D01*
X116130895Y-59087656D01*
X116188877Y-59251823D01*
X116233131Y-59433926D01*
X116235952Y-59451214D01*
X116244344Y-59542350D01*
X116250700Y-59683199D01*
X116255035Y-59874736D01*
X116257367Y-60117936D01*
X116257713Y-60413775D01*
X116256089Y-60763228D01*
X116248025Y-61929901D01*
X115415014Y-60876489D01*
X115391155Y-60846315D01*
X115179911Y-60578891D01*
X114999566Y-60349866D01*
X114847248Y-60155348D01*
X114720089Y-59991441D01*
X114615216Y-59854253D01*
X114529762Y-59739887D01*
X114460854Y-59644452D01*
X114405624Y-59564051D01*
X114361202Y-59494792D01*
X114324716Y-59432780D01*
X114293297Y-59374122D01*
X114264075Y-59314922D01*
X114219121Y-59210132D01*
X114190081Y-59099589D01*
X114182357Y-58980352D01*
X114183133Y-58818168D01*
X111419291Y-58818168D01*
X110505459Y-58818168D01*
X110535188Y-58802677D01*
X110749411Y-58633916D01*
X110808963Y-58574420D01*
X110984979Y-58354130D01*
X111109877Y-58115065D01*
X111184325Y-57855682D01*
X111208992Y-57574440D01*
X111208992Y-57343329D01*
X115129596Y-57343329D01*
X115374537Y-57343319D01*
X115900739Y-57343247D01*
X116376087Y-57343196D01*
X116803211Y-57343267D01*
X117184738Y-57343566D01*
X117523297Y-57344197D01*
X117821517Y-57345262D01*
X118082026Y-57346867D01*
X118307454Y-57349115D01*
X118500428Y-57352110D01*
X118663577Y-57355956D01*
X118799531Y-57360756D01*
X118910917Y-57366616D01*
X119000364Y-57373638D01*
X119070501Y-57381927D01*
X119123956Y-57391586D01*
X119163358Y-57402720D01*
X119191336Y-57415432D01*
X119210519Y-57429827D01*
X119223534Y-57446007D01*
X119233011Y-57464078D01*
X119241578Y-57484143D01*
X119251863Y-57506306D01*
X119252048Y-57506668D01*
X119257042Y-57521176D01*
X119261623Y-57545470D01*
X119265808Y-57581790D01*
X119269614Y-57632380D01*
X119273060Y-57699481D01*
X119276162Y-57785335D01*
X119278938Y-57892184D01*
X119281406Y-58022270D01*
X119283581Y-58177834D01*
X119285483Y-58361119D01*
X119287129Y-58574367D01*
X119288535Y-58819819D01*
X119289719Y-59099718D01*
X119290699Y-59416305D01*
X119291491Y-59771822D01*
X119292115Y-60168511D01*
X119292585Y-60608615D01*
X119292921Y-61094374D01*
X119293140Y-61628031D01*
X119293258Y-62211828D01*
X119293293Y-62848007D01*
X119293295Y-62972985D01*
X119293355Y-63602534D01*
X119293449Y-64180144D01*
X119293504Y-64708074D01*
X119293449Y-65188583D01*
X119293215Y-65623929D01*
X119292728Y-66016370D01*
X119291918Y-66368165D01*
X119290714Y-66681573D01*
X119289045Y-66958851D01*
X119287576Y-67120964D01*
X119286840Y-67202259D01*
G36*
X119286840Y-67202259D02*
G01*
X119284028Y-67414054D01*
X119280538Y-67596495D01*
X119276298Y-67751841D01*
X119271238Y-67882350D01*
X119265287Y-67990280D01*
X119258373Y-68077891D01*
X119250426Y-68147439D01*
X119241373Y-68201185D01*
X119231145Y-68241385D01*
X119219670Y-68270300D01*
X119206877Y-68290186D01*
X119192695Y-68303303D01*
X119177053Y-68311909D01*
X119159880Y-68318263D01*
X119141105Y-68324622D01*
X119120656Y-68333246D01*
X119109150Y-68337568D01*
X119088045Y-68342287D01*
X119056684Y-68346611D01*
X119012851Y-68350557D01*
X118954327Y-68354142D01*
X118878893Y-68357384D01*
X118784330Y-68360300D01*
X118668420Y-68362907D01*
X118528945Y-68365222D01*
X118363687Y-68367263D01*
X118170426Y-68369047D01*
X117946945Y-68370592D01*
X117691025Y-68371915D01*
X117400447Y-68373033D01*
X117072993Y-68373964D01*
X116706444Y-68374724D01*
X116298583Y-68375332D01*
X115847190Y-68375804D01*
X115350048Y-68376159D01*
X114804937Y-68376412D01*
X114209640Y-68376582D01*
X113561937Y-68376686D01*
X113356682Y-68376706D01*
X112723036Y-68376719D01*
X112141149Y-68376640D01*
X111608828Y-68376451D01*
X111123881Y-68376138D01*
X110684115Y-68375685D01*
X110287340Y-68375075D01*
X109931361Y-68374293D01*
X109613987Y-68373323D01*
X109333027Y-68372149D01*
X109086286Y-68370755D01*
X108871574Y-68369125D01*
X108686699Y-68367243D01*
X108529467Y-68365093D01*
X108397687Y-68362660D01*
X108289166Y-68359927D01*
X108201713Y-68356879D01*
X108133135Y-68353499D01*
X108081239Y-68349772D01*
X108043834Y-68345682D01*
X108018727Y-68341212D01*
X108003727Y-68336348D01*
X107998954Y-68334183D01*
X107979416Y-68327072D01*
X107961499Y-68321879D01*
X107945130Y-68316342D01*
X107930236Y-68308199D01*
X107916746Y-68295190D01*
X107904586Y-68275052D01*
X107893683Y-68245524D01*
X107883966Y-68204344D01*
X107875361Y-68149250D01*
X107867795Y-68077981D01*
X107861197Y-67988275D01*
X107855493Y-67877870D01*
X107850611Y-67744506D01*
X107846478Y-67585919D01*
X107843022Y-67399849D01*
X107840169Y-67184034D01*
X107839233Y-67084097D01*
X108559446Y-67084097D01*
X108560236Y-67093667D01*
X108574723Y-67101423D01*
X108607455Y-67107555D01*
X108662978Y-67112252D01*
X108745841Y-67115706D01*
X108860591Y-67118106D01*
X109011775Y-67119641D01*
X109203940Y-67120503D01*
X109441634Y-67120880D01*
X109729404Y-67120964D01*
X110934841Y-67120964D01*
X110731035Y-66752254D01*
X110731035Y-61399136D01*
X110934841Y-61030426D01*
X108780164Y-61030426D01*
X108772374Y-63864028D01*
X108764584Y-66697631D01*
X108688201Y-66860761D01*
X108647930Y-66941616D01*
X108602329Y-67022613D01*
X108567892Y-67072427D01*
X108567806Y-67072523D01*
X108559446Y-67084097D01*
X107839233Y-67084097D01*
X107837848Y-66936212D01*
X107835986Y-66654121D01*
X107834509Y-66335501D01*
X107833346Y-65978088D01*
X107832424Y-65579623D01*
X107831669Y-65137842D01*
X107831010Y-64650484D01*
X107830374Y-64115288D01*
X107829688Y-63529993D01*
X107828880Y-62892335D01*
X107828775Y-62815139D01*
X107827874Y-62181523D01*
X107827012Y-61600004D01*
X107826253Y-61068320D01*
X107825661Y-60584208D01*
X107825300Y-60145406D01*
X107825233Y-59749652D01*
X107825525Y-59394681D01*
X107826240Y-59078233D01*
X107827440Y-58798043D01*
X107829190Y-58551850D01*
X107831553Y-58337390D01*
X107834595Y-58152402D01*
X107838377Y-57994622D01*
X107842964Y-57861788D01*
X107848420Y-57751636D01*
X107854809Y-57661905D01*
X107862194Y-57590332D01*
X107870639Y-57534653D01*
X107880208Y-57492607D01*
X107890965Y-57461931D01*
X107902974Y-57440361D01*
X107916298Y-57425636D01*
X107931001Y-57415493D01*
X107947148Y-57407668D01*
X107964801Y-57399900D01*
X107984024Y-57389925D01*
X107989649Y-57386746D01*
X108074763Y-57355979D01*
X108167938Y-57343334D01*
X108272971Y-57343338D01*
X108274721Y-57582312D01*
X108275165Y-57609812D01*
X108308549Y-57889349D01*
X108393577Y-58152367D01*
X108529066Y-58396082D01*
X108713836Y-58617707D01*
X108812989Y-58708099D01*
X109033762Y-58857923D01*
X109274646Y-58962403D01*
X109528626Y-59021482D01*
X109788686Y-59035105D01*
X110047810Y-59003216D01*
X110298983Y-58925758D01*
X110505459Y-58818168D01*
X111419291Y-58818168D01*
X111539464Y-58904627D01*
X111641098Y-58985886D01*
X111784309Y-59118426D01*
X111946745Y-59284536D01*
X112122256Y-59477886D01*
X112304691Y-59692147D01*
X112351672Y-59749444D01*
X112431659Y-59847716D01*
X112536214Y-59976645D01*
X112661872Y-60131927D01*
X112805170Y-60309260D01*
X112962643Y-60504339D01*
X113130829Y-60712863D01*
X113306262Y-60930527D01*
X113386728Y-61030426D01*
X113485480Y-61153029D01*
X113665019Y-61376065D01*
X113841414Y-61595333D01*
X114011202Y-61806528D01*
X114170919Y-62005349D01*
X114317101Y-62187490D01*
X114446285Y-62348651D01*
X114555006Y-62484526D01*
X114639801Y-62590814D01*
X114697206Y-62663210D01*
X114723757Y-62697412D01*
X114725948Y-62710265D01*
X114718659Y-62734710D01*
X114699770Y-62773169D01*
X114667396Y-62828368D01*
X114619650Y-62903037D01*
X114554648Y-62999902D01*
X114470505Y-63121692D01*
X114365334Y-63271136D01*
X114237250Y-63450960D01*
X114084368Y-63663893D01*
X113904801Y-63912663D01*
X113696665Y-64199998D01*
X113458075Y-64528626D01*
X113267968Y-64790210D01*
X113036033Y-65109103D01*
X112832015Y-65389152D01*
X112653544Y-65633466D01*
X112498245Y-65845152D01*
X112363747Y-66027320D01*
X112247676Y-66183076D01*
X112147660Y-66315529D01*
X112061327Y-66427787D01*
X111986304Y-66522957D01*
X111920218Y-66604149D01*
X111860697Y-66674470D01*
X111805369Y-66737028D01*
X111751859Y-66794931D01*
X111697797Y-66851288D01*
X111640809Y-66909206D01*
X111430798Y-67120964D01*
X112842529Y-67121021D01*
X114254261Y-67121078D01*
X114245390Y-66949980D01*
X114244960Y-66941383D01*
X114243276Y-66872983D01*
X114246468Y-66807448D01*
X114256671Y-66741186D01*
X114276021Y-66670609D01*
X114306652Y-66592126D01*
X114350700Y-66502147D01*
X114410300Y-66397084D01*
X114487588Y-66273346D01*
X114584698Y-66127343D01*
X114703766Y-65955486D01*
X114846928Y-65754184D01*
X115016318Y-65519849D01*
X115214072Y-65248889D01*
X115442326Y-64937716D01*
X116248025Y-63840829D01*
X116255123Y-65112638D01*
X116255752Y-65231272D01*
X116256862Y-65550818D01*
X116256357Y-65822613D01*
X116253645Y-66051801D01*
X116248130Y-66243526D01*
X116239219Y-66402931D01*
X116226318Y-66535159D01*
X116208833Y-66645354D01*
X116186170Y-66738659D01*
X116157734Y-66820218D01*
X116122933Y-66895175D01*
X116081171Y-66968674D01*
X116031854Y-67045856D01*
X115982280Y-67120964D01*
X118558654Y-67120964D01*
X118492104Y-67032200D01*
X118481682Y-67018158D01*
X118398357Y-66889456D01*
X118340917Y-66759353D01*
X118303198Y-66610274D01*
X118279038Y-66424647D01*
X118278375Y-66416555D01*
X118274869Y-66339989D01*
X118271703Y-66212241D01*
X118268892Y-66036233D01*
X118266449Y-65814883D01*
X118264387Y-65551110D01*
X118262722Y-65247833D01*
X118261465Y-64907971D01*
X118260631Y-64534444D01*
X118260234Y-64130170D01*
X118260287Y-63698068D01*
X118260805Y-63241059D01*
X118261801Y-62762060D01*
X118262855Y-62332397D01*
X118263983Y-61864700D01*
X118265094Y-61446249D01*
X118266326Y-61074115D01*
X118267820Y-60745364D01*
X118269715Y-60457065D01*
X118272150Y-60206287D01*
X118275264Y-59990099D01*
X118279197Y-59805567D01*
X118284089Y-59649761D01*
X118290079Y-59519749D01*
X118297306Y-59412600D01*
X118305909Y-59325381D01*
X118316029Y-59255161D01*
X118327804Y-59199009D01*
X118341374Y-59153992D01*
X118356879Y-59117180D01*
X118374457Y-59085639D01*
X118394248Y-59056440D01*
X118416392Y-59026650D01*
X118441028Y-58993337D01*
X118464857Y-58959954D01*
X118510913Y-58893949D01*
X118538501Y-58852308D01*
X118539167Y-58850564D01*
X118529534Y-58842689D01*
X118495541Y-58836119D01*
X118433404Y-58830751D01*
X118339341Y-58826486D01*
X118209569Y-58823223D01*
X118040307Y-58820860D01*
X117827770Y-58819297D01*
X117568178Y-58818434D01*
X117257746Y-58818168D01*
X115956395Y-58818168D01*
X116024980Y-58899678D01*
X116064730Y-58955660D01*
X116130895Y-59087656D01*
X116188877Y-59251823D01*
X116233131Y-59433926D01*
X116235952Y-59451214D01*
X116244344Y-59542350D01*
X116250700Y-59683199D01*
X116255035Y-59874736D01*
X116257367Y-60117936D01*
X116257713Y-60413775D01*
X116256089Y-60763228D01*
X116248025Y-61929901D01*
X115415014Y-60876489D01*
X115391155Y-60846315D01*
X115179911Y-60578891D01*
X114999566Y-60349866D01*
X114847248Y-60155348D01*
X114720089Y-59991441D01*
X114615216Y-59854253D01*
X114529762Y-59739887D01*
X114460854Y-59644452D01*
X114405624Y-59564051D01*
X114361202Y-59494792D01*
X114324716Y-59432780D01*
X114293297Y-59374122D01*
X114264075Y-59314922D01*
X114219121Y-59210132D01*
X114190081Y-59099589D01*
X114182357Y-58980352D01*
X114183133Y-58818168D01*
X111419291Y-58818168D01*
X110505459Y-58818168D01*
X110535188Y-58802677D01*
X110749411Y-58633916D01*
X110808963Y-58574420D01*
X110984979Y-58354130D01*
X111109877Y-58115065D01*
X111184325Y-57855682D01*
X111208992Y-57574440D01*
X111208992Y-57343329D01*
X115129596Y-57343329D01*
X115374537Y-57343319D01*
X115900739Y-57343247D01*
X116376087Y-57343196D01*
X116803211Y-57343267D01*
X117184738Y-57343566D01*
X117523297Y-57344197D01*
X117821517Y-57345262D01*
X118082026Y-57346867D01*
X118307454Y-57349115D01*
X118500428Y-57352110D01*
X118663577Y-57355956D01*
X118799531Y-57360756D01*
X118910917Y-57366616D01*
X119000364Y-57373638D01*
X119070501Y-57381927D01*
X119123956Y-57391586D01*
X119163358Y-57402720D01*
X119191336Y-57415432D01*
X119210519Y-57429827D01*
X119223534Y-57446007D01*
X119233011Y-57464078D01*
X119241578Y-57484143D01*
X119251863Y-57506306D01*
X119252048Y-57506668D01*
X119257042Y-57521176D01*
X119261623Y-57545470D01*
X119265808Y-57581790D01*
X119269614Y-57632380D01*
X119273060Y-57699481D01*
X119276162Y-57785335D01*
X119278938Y-57892184D01*
X119281406Y-58022270D01*
X119283581Y-58177834D01*
X119285483Y-58361119D01*
X119287129Y-58574367D01*
X119288535Y-58819819D01*
X119289719Y-59099718D01*
X119290699Y-59416305D01*
X119291491Y-59771822D01*
X119292115Y-60168511D01*
X119292585Y-60608615D01*
X119292921Y-61094374D01*
X119293140Y-61628031D01*
X119293258Y-62211828D01*
X119293293Y-62848007D01*
X119293295Y-62972985D01*
X119293355Y-63602534D01*
X119293449Y-64180144D01*
X119293504Y-64708074D01*
X119293449Y-65188583D01*
X119293215Y-65623929D01*
X119292728Y-66016370D01*
X119291918Y-66368165D01*
X119290714Y-66681573D01*
X119289045Y-66958851D01*
X119287576Y-67120964D01*
X119286840Y-67202259D01*
G37*
%TD*%
M02*
