%TF.GenerationSoftware,KiCad,Pcbnew,10.0.1*%
%TF.CreationDate,2026-07-27T21:53:35+01:00*%
%TF.ProjectId,MCU Datalogger,4d435520-4461-4746-916c-6f676765722e,rev?*%
%TF.SameCoordinates,Original*%
%TF.FileFunction,Legend,Top*%
%TF.FilePolarity,Positive*%
%FSLAX46Y46*%
G04 Gerber Fmt 4.6, Leading zero omitted, Abs format (unit mm)*
G04 Created by KiCad (PCBNEW 10.0.1) date 2026-07-27 21:53:35*
%MOMM*%
%LPD*%
G01*
G04 APERTURE LIST*
%ADD10C,0.100000*%
%ADD11C,0.150000*%
%ADD12C,0.120000*%
%ADD13C,0.127000*%
%ADD14C,0.200000*%
G04 APERTURE END LIST*
D10*
X117627400Y-71018400D02*
X125577600Y-71018400D01*
X125577600Y-76352400D01*
X117627400Y-76352400D01*
X117627400Y-71018400D01*
X119788437Y-72055230D02*
X119788437Y-71255230D01*
X120626532Y-71979039D02*
X120588436Y-72017135D01*
X120588436Y-72017135D02*
X120474151Y-72055230D01*
X120474151Y-72055230D02*
X120397960Y-72055230D01*
X120397960Y-72055230D02*
X120283674Y-72017135D01*
X120283674Y-72017135D02*
X120207484Y-71940944D01*
X120207484Y-71940944D02*
X120169389Y-71864754D01*
X120169389Y-71864754D02*
X120131293Y-71712373D01*
X120131293Y-71712373D02*
X120131293Y-71598087D01*
X120131293Y-71598087D02*
X120169389Y-71445706D01*
X120169389Y-71445706D02*
X120207484Y-71369515D01*
X120207484Y-71369515D02*
X120283674Y-71293325D01*
X120283674Y-71293325D02*
X120397960Y-71255230D01*
X120397960Y-71255230D02*
X120474151Y-71255230D01*
X120474151Y-71255230D02*
X120588436Y-71293325D01*
X120588436Y-71293325D02*
X120626532Y-71331420D01*
X120931293Y-72017135D02*
X121045579Y-72055230D01*
X121045579Y-72055230D02*
X121236055Y-72055230D01*
X121236055Y-72055230D02*
X121312246Y-72017135D01*
X121312246Y-72017135D02*
X121350341Y-71979039D01*
X121350341Y-71979039D02*
X121388436Y-71902849D01*
X121388436Y-71902849D02*
X121388436Y-71826658D01*
X121388436Y-71826658D02*
X121350341Y-71750468D01*
X121350341Y-71750468D02*
X121312246Y-71712373D01*
X121312246Y-71712373D02*
X121236055Y-71674277D01*
X121236055Y-71674277D02*
X121083674Y-71636182D01*
X121083674Y-71636182D02*
X121007484Y-71598087D01*
X121007484Y-71598087D02*
X120969389Y-71559992D01*
X120969389Y-71559992D02*
X120931293Y-71483801D01*
X120931293Y-71483801D02*
X120931293Y-71407611D01*
X120931293Y-71407611D02*
X120969389Y-71331420D01*
X120969389Y-71331420D02*
X121007484Y-71293325D01*
X121007484Y-71293325D02*
X121083674Y-71255230D01*
X121083674Y-71255230D02*
X121274151Y-71255230D01*
X121274151Y-71255230D02*
X121388436Y-71293325D01*
X121731294Y-72055230D02*
X121731294Y-71255230D01*
X121731294Y-71255230D02*
X122036056Y-71255230D01*
X122036056Y-71255230D02*
X122112246Y-71293325D01*
X122112246Y-71293325D02*
X122150341Y-71331420D01*
X122150341Y-71331420D02*
X122188437Y-71407611D01*
X122188437Y-71407611D02*
X122188437Y-71521896D01*
X122188437Y-71521896D02*
X122150341Y-71598087D01*
X122150341Y-71598087D02*
X122112246Y-71636182D01*
X122112246Y-71636182D02*
X122036056Y-71674277D01*
X122036056Y-71674277D02*
X121731294Y-71674277D01*
X117959865Y-73343185D02*
X117959865Y-72543185D01*
X117959865Y-72543185D02*
X118226531Y-73114613D01*
X118226531Y-73114613D02*
X118493198Y-72543185D01*
X118493198Y-72543185D02*
X118493198Y-73343185D01*
X118874151Y-73343185D02*
X118874151Y-72543185D01*
X119217007Y-73305090D02*
X119331293Y-73343185D01*
X119331293Y-73343185D02*
X119521769Y-73343185D01*
X119521769Y-73343185D02*
X119597960Y-73305090D01*
X119597960Y-73305090D02*
X119636055Y-73266994D01*
X119636055Y-73266994D02*
X119674150Y-73190804D01*
X119674150Y-73190804D02*
X119674150Y-73114613D01*
X119674150Y-73114613D02*
X119636055Y-73038423D01*
X119636055Y-73038423D02*
X119597960Y-73000328D01*
X119597960Y-73000328D02*
X119521769Y-72962232D01*
X119521769Y-72962232D02*
X119369388Y-72924137D01*
X119369388Y-72924137D02*
X119293198Y-72886042D01*
X119293198Y-72886042D02*
X119255103Y-72847947D01*
X119255103Y-72847947D02*
X119217007Y-72771756D01*
X119217007Y-72771756D02*
X119217007Y-72695566D01*
X119217007Y-72695566D02*
X119255103Y-72619375D01*
X119255103Y-72619375D02*
X119293198Y-72581280D01*
X119293198Y-72581280D02*
X119369388Y-72543185D01*
X119369388Y-72543185D02*
X119559865Y-72543185D01*
X119559865Y-72543185D02*
X119674150Y-72581280D01*
X120169389Y-72543185D02*
X120321770Y-72543185D01*
X120321770Y-72543185D02*
X120397960Y-72581280D01*
X120397960Y-72581280D02*
X120474151Y-72657470D01*
X120474151Y-72657470D02*
X120512246Y-72809851D01*
X120512246Y-72809851D02*
X120512246Y-73076518D01*
X120512246Y-73076518D02*
X120474151Y-73228899D01*
X120474151Y-73228899D02*
X120397960Y-73305090D01*
X120397960Y-73305090D02*
X120321770Y-73343185D01*
X120321770Y-73343185D02*
X120169389Y-73343185D01*
X120169389Y-73343185D02*
X120093198Y-73305090D01*
X120093198Y-73305090D02*
X120017008Y-73228899D01*
X120017008Y-73228899D02*
X119978912Y-73076518D01*
X119978912Y-73076518D02*
X119978912Y-72809851D01*
X119978912Y-72809851D02*
X120017008Y-72657470D01*
X120017008Y-72657470D02*
X120093198Y-72581280D01*
X120093198Y-72581280D02*
X120169389Y-72543185D01*
X121655103Y-73609851D02*
X121655103Y-72466994D01*
X122721770Y-72543185D02*
X122988437Y-73343185D01*
X122988437Y-73343185D02*
X123255103Y-72543185D01*
X123978913Y-73266994D02*
X123940817Y-73305090D01*
X123940817Y-73305090D02*
X123826532Y-73343185D01*
X123826532Y-73343185D02*
X123750341Y-73343185D01*
X123750341Y-73343185D02*
X123636055Y-73305090D01*
X123636055Y-73305090D02*
X123559865Y-73228899D01*
X123559865Y-73228899D02*
X123521770Y-73152709D01*
X123521770Y-73152709D02*
X123483674Y-73000328D01*
X123483674Y-73000328D02*
X123483674Y-72886042D01*
X123483674Y-72886042D02*
X123521770Y-72733661D01*
X123521770Y-72733661D02*
X123559865Y-72657470D01*
X123559865Y-72657470D02*
X123636055Y-72581280D01*
X123636055Y-72581280D02*
X123750341Y-72543185D01*
X123750341Y-72543185D02*
X123826532Y-72543185D01*
X123826532Y-72543185D02*
X123940817Y-72581280D01*
X123940817Y-72581280D02*
X123978913Y-72619375D01*
X124778913Y-73266994D02*
X124740817Y-73305090D01*
X124740817Y-73305090D02*
X124626532Y-73343185D01*
X124626532Y-73343185D02*
X124550341Y-73343185D01*
X124550341Y-73343185D02*
X124436055Y-73305090D01*
X124436055Y-73305090D02*
X124359865Y-73228899D01*
X124359865Y-73228899D02*
X124321770Y-73152709D01*
X124321770Y-73152709D02*
X124283674Y-73000328D01*
X124283674Y-73000328D02*
X124283674Y-72886042D01*
X124283674Y-72886042D02*
X124321770Y-72733661D01*
X124321770Y-72733661D02*
X124359865Y-72657470D01*
X124359865Y-72657470D02*
X124436055Y-72581280D01*
X124436055Y-72581280D02*
X124550341Y-72543185D01*
X124550341Y-72543185D02*
X124626532Y-72543185D01*
X124626532Y-72543185D02*
X124740817Y-72581280D01*
X124740817Y-72581280D02*
X124778913Y-72619375D01*
X117921769Y-74593045D02*
X118036055Y-74631140D01*
X118036055Y-74631140D02*
X118226531Y-74631140D01*
X118226531Y-74631140D02*
X118302722Y-74593045D01*
X118302722Y-74593045D02*
X118340817Y-74554949D01*
X118340817Y-74554949D02*
X118378912Y-74478759D01*
X118378912Y-74478759D02*
X118378912Y-74402568D01*
X118378912Y-74402568D02*
X118340817Y-74326378D01*
X118340817Y-74326378D02*
X118302722Y-74288283D01*
X118302722Y-74288283D02*
X118226531Y-74250187D01*
X118226531Y-74250187D02*
X118074150Y-74212092D01*
X118074150Y-74212092D02*
X117997960Y-74173997D01*
X117997960Y-74173997D02*
X117959865Y-74135902D01*
X117959865Y-74135902D02*
X117921769Y-74059711D01*
X117921769Y-74059711D02*
X117921769Y-73983521D01*
X117921769Y-73983521D02*
X117959865Y-73907330D01*
X117959865Y-73907330D02*
X117997960Y-73869235D01*
X117997960Y-73869235D02*
X118074150Y-73831140D01*
X118074150Y-73831140D02*
X118264627Y-73831140D01*
X118264627Y-73831140D02*
X118378912Y-73869235D01*
X119178913Y-74554949D02*
X119140817Y-74593045D01*
X119140817Y-74593045D02*
X119026532Y-74631140D01*
X119026532Y-74631140D02*
X118950341Y-74631140D01*
X118950341Y-74631140D02*
X118836055Y-74593045D01*
X118836055Y-74593045D02*
X118759865Y-74516854D01*
X118759865Y-74516854D02*
X118721770Y-74440664D01*
X118721770Y-74440664D02*
X118683674Y-74288283D01*
X118683674Y-74288283D02*
X118683674Y-74173997D01*
X118683674Y-74173997D02*
X118721770Y-74021616D01*
X118721770Y-74021616D02*
X118759865Y-73945425D01*
X118759865Y-73945425D02*
X118836055Y-73869235D01*
X118836055Y-73869235D02*
X118950341Y-73831140D01*
X118950341Y-73831140D02*
X119026532Y-73831140D01*
X119026532Y-73831140D02*
X119140817Y-73869235D01*
X119140817Y-73869235D02*
X119178913Y-73907330D01*
X119521770Y-74631140D02*
X119521770Y-73831140D01*
X119978913Y-74631140D02*
X119636055Y-74173997D01*
X119978913Y-73831140D02*
X119521770Y-74288283D01*
X121731294Y-74897806D02*
X121731294Y-73754949D01*
X122912247Y-74631140D02*
X122912247Y-73831140D01*
X122912247Y-73831140D02*
X123178913Y-74402568D01*
X123178913Y-74402568D02*
X123445580Y-73831140D01*
X123445580Y-73831140D02*
X123445580Y-74631140D01*
X123978914Y-73831140D02*
X124131295Y-73831140D01*
X124131295Y-73831140D02*
X124207485Y-73869235D01*
X124207485Y-73869235D02*
X124283676Y-73945425D01*
X124283676Y-73945425D02*
X124321771Y-74097806D01*
X124321771Y-74097806D02*
X124321771Y-74364473D01*
X124321771Y-74364473D02*
X124283676Y-74516854D01*
X124283676Y-74516854D02*
X124207485Y-74593045D01*
X124207485Y-74593045D02*
X124131295Y-74631140D01*
X124131295Y-74631140D02*
X123978914Y-74631140D01*
X123978914Y-74631140D02*
X123902723Y-74593045D01*
X123902723Y-74593045D02*
X123826533Y-74516854D01*
X123826533Y-74516854D02*
X123788437Y-74364473D01*
X123788437Y-74364473D02*
X123788437Y-74097806D01*
X123788437Y-74097806D02*
X123826533Y-73945425D01*
X123826533Y-73945425D02*
X123902723Y-73869235D01*
X123902723Y-73869235D02*
X123978914Y-73831140D01*
X124626532Y-74593045D02*
X124740818Y-74631140D01*
X124740818Y-74631140D02*
X124931294Y-74631140D01*
X124931294Y-74631140D02*
X125007485Y-74593045D01*
X125007485Y-74593045D02*
X125045580Y-74554949D01*
X125045580Y-74554949D02*
X125083675Y-74478759D01*
X125083675Y-74478759D02*
X125083675Y-74402568D01*
X125083675Y-74402568D02*
X125045580Y-74326378D01*
X125045580Y-74326378D02*
X125007485Y-74288283D01*
X125007485Y-74288283D02*
X124931294Y-74250187D01*
X124931294Y-74250187D02*
X124778913Y-74212092D01*
X124778913Y-74212092D02*
X124702723Y-74173997D01*
X124702723Y-74173997D02*
X124664628Y-74135902D01*
X124664628Y-74135902D02*
X124626532Y-74059711D01*
X124626532Y-74059711D02*
X124626532Y-73983521D01*
X124626532Y-73983521D02*
X124664628Y-73907330D01*
X124664628Y-73907330D02*
X124702723Y-73869235D01*
X124702723Y-73869235D02*
X124778913Y-73831140D01*
X124778913Y-73831140D02*
X124969390Y-73831140D01*
X124969390Y-73831140D02*
X125083675Y-73869235D01*
X125426533Y-74631140D02*
X125426533Y-73831140D01*
X118417008Y-75919095D02*
X118150341Y-75538142D01*
X117959865Y-75919095D02*
X117959865Y-75119095D01*
X117959865Y-75119095D02*
X118264627Y-75119095D01*
X118264627Y-75119095D02*
X118340817Y-75157190D01*
X118340817Y-75157190D02*
X118378912Y-75195285D01*
X118378912Y-75195285D02*
X118417008Y-75271476D01*
X118417008Y-75271476D02*
X118417008Y-75385761D01*
X118417008Y-75385761D02*
X118378912Y-75461952D01*
X118378912Y-75461952D02*
X118340817Y-75500047D01*
X118340817Y-75500047D02*
X118264627Y-75538142D01*
X118264627Y-75538142D02*
X117959865Y-75538142D01*
X118759865Y-75500047D02*
X119026531Y-75500047D01*
X119140817Y-75919095D02*
X118759865Y-75919095D01*
X118759865Y-75919095D02*
X118759865Y-75119095D01*
X118759865Y-75119095D02*
X119140817Y-75119095D01*
X119445579Y-75881000D02*
X119559865Y-75919095D01*
X119559865Y-75919095D02*
X119750341Y-75919095D01*
X119750341Y-75919095D02*
X119826532Y-75881000D01*
X119826532Y-75881000D02*
X119864627Y-75842904D01*
X119864627Y-75842904D02*
X119902722Y-75766714D01*
X119902722Y-75766714D02*
X119902722Y-75690523D01*
X119902722Y-75690523D02*
X119864627Y-75614333D01*
X119864627Y-75614333D02*
X119826532Y-75576238D01*
X119826532Y-75576238D02*
X119750341Y-75538142D01*
X119750341Y-75538142D02*
X119597960Y-75500047D01*
X119597960Y-75500047D02*
X119521770Y-75461952D01*
X119521770Y-75461952D02*
X119483675Y-75423857D01*
X119483675Y-75423857D02*
X119445579Y-75347666D01*
X119445579Y-75347666D02*
X119445579Y-75271476D01*
X119445579Y-75271476D02*
X119483675Y-75195285D01*
X119483675Y-75195285D02*
X119521770Y-75157190D01*
X119521770Y-75157190D02*
X119597960Y-75119095D01*
X119597960Y-75119095D02*
X119788437Y-75119095D01*
X119788437Y-75119095D02*
X119902722Y-75157190D01*
X120245580Y-75500047D02*
X120512246Y-75500047D01*
X120626532Y-75919095D02*
X120245580Y-75919095D01*
X120245580Y-75919095D02*
X120245580Y-75119095D01*
X120245580Y-75119095D02*
X120626532Y-75119095D01*
X120855104Y-75119095D02*
X121312247Y-75119095D01*
X121083675Y-75919095D02*
X121083675Y-75119095D01*
X121769390Y-76185761D02*
X121769390Y-75042904D01*
X123369390Y-75157190D02*
X123293200Y-75119095D01*
X123293200Y-75119095D02*
X123178914Y-75119095D01*
X123178914Y-75119095D02*
X123064628Y-75157190D01*
X123064628Y-75157190D02*
X122988438Y-75233380D01*
X122988438Y-75233380D02*
X122950343Y-75309571D01*
X122950343Y-75309571D02*
X122912247Y-75461952D01*
X122912247Y-75461952D02*
X122912247Y-75576238D01*
X122912247Y-75576238D02*
X122950343Y-75728619D01*
X122950343Y-75728619D02*
X122988438Y-75804809D01*
X122988438Y-75804809D02*
X123064628Y-75881000D01*
X123064628Y-75881000D02*
X123178914Y-75919095D01*
X123178914Y-75919095D02*
X123255105Y-75919095D01*
X123255105Y-75919095D02*
X123369390Y-75881000D01*
X123369390Y-75881000D02*
X123407486Y-75842904D01*
X123407486Y-75842904D02*
X123407486Y-75576238D01*
X123407486Y-75576238D02*
X123255105Y-75576238D01*
X123750343Y-75919095D02*
X123750343Y-75119095D01*
X123750343Y-75119095D02*
X124207486Y-75919095D01*
X124207486Y-75919095D02*
X124207486Y-75119095D01*
X124588438Y-75919095D02*
X124588438Y-75119095D01*
X124588438Y-75119095D02*
X124778914Y-75119095D01*
X124778914Y-75119095D02*
X124893200Y-75157190D01*
X124893200Y-75157190D02*
X124969390Y-75233380D01*
X124969390Y-75233380D02*
X125007485Y-75309571D01*
X125007485Y-75309571D02*
X125045581Y-75461952D01*
X125045581Y-75461952D02*
X125045581Y-75576238D01*
X125045581Y-75576238D02*
X125007485Y-75728619D01*
X125007485Y-75728619D02*
X124969390Y-75804809D01*
X124969390Y-75804809D02*
X124893200Y-75881000D01*
X124893200Y-75881000D02*
X124778914Y-75919095D01*
X124778914Y-75919095D02*
X124588438Y-75919095D01*
X85710895Y-75905620D02*
X86510895Y-75638953D01*
X86510895Y-75638953D02*
X85710895Y-75372287D01*
X86434704Y-74648477D02*
X86472800Y-74686573D01*
X86472800Y-74686573D02*
X86510895Y-74800858D01*
X86510895Y-74800858D02*
X86510895Y-74877049D01*
X86510895Y-74877049D02*
X86472800Y-74991335D01*
X86472800Y-74991335D02*
X86396609Y-75067525D01*
X86396609Y-75067525D02*
X86320419Y-75105620D01*
X86320419Y-75105620D02*
X86168038Y-75143716D01*
X86168038Y-75143716D02*
X86053752Y-75143716D01*
X86053752Y-75143716D02*
X85901371Y-75105620D01*
X85901371Y-75105620D02*
X85825180Y-75067525D01*
X85825180Y-75067525D02*
X85748990Y-74991335D01*
X85748990Y-74991335D02*
X85710895Y-74877049D01*
X85710895Y-74877049D02*
X85710895Y-74800858D01*
X85710895Y-74800858D02*
X85748990Y-74686573D01*
X85748990Y-74686573D02*
X85787085Y-74648477D01*
X86434704Y-73848477D02*
X86472800Y-73886573D01*
X86472800Y-73886573D02*
X86510895Y-74000858D01*
X86510895Y-74000858D02*
X86510895Y-74077049D01*
X86510895Y-74077049D02*
X86472800Y-74191335D01*
X86472800Y-74191335D02*
X86396609Y-74267525D01*
X86396609Y-74267525D02*
X86320419Y-74305620D01*
X86320419Y-74305620D02*
X86168038Y-74343716D01*
X86168038Y-74343716D02*
X86053752Y-74343716D01*
X86053752Y-74343716D02*
X85901371Y-74305620D01*
X85901371Y-74305620D02*
X85825180Y-74267525D01*
X85825180Y-74267525D02*
X85748990Y-74191335D01*
X85748990Y-74191335D02*
X85710895Y-74077049D01*
X85710895Y-74077049D02*
X85710895Y-74000858D01*
X85710895Y-74000858D02*
X85748990Y-73886573D01*
X85748990Y-73886573D02*
X85787085Y-73848477D01*
X85901390Y-78496487D02*
X85863295Y-78572677D01*
X85863295Y-78572677D02*
X85863295Y-78686963D01*
X85863295Y-78686963D02*
X85901390Y-78801249D01*
X85901390Y-78801249D02*
X85977580Y-78877439D01*
X85977580Y-78877439D02*
X86053771Y-78915534D01*
X86053771Y-78915534D02*
X86206152Y-78953630D01*
X86206152Y-78953630D02*
X86320438Y-78953630D01*
X86320438Y-78953630D02*
X86472819Y-78915534D01*
X86472819Y-78915534D02*
X86549009Y-78877439D01*
X86549009Y-78877439D02*
X86625200Y-78801249D01*
X86625200Y-78801249D02*
X86663295Y-78686963D01*
X86663295Y-78686963D02*
X86663295Y-78610772D01*
X86663295Y-78610772D02*
X86625200Y-78496487D01*
X86625200Y-78496487D02*
X86587104Y-78458391D01*
X86587104Y-78458391D02*
X86320438Y-78458391D01*
X86320438Y-78458391D02*
X86320438Y-78610772D01*
X86663295Y-78115534D02*
X85863295Y-78115534D01*
X85863295Y-78115534D02*
X86663295Y-77658391D01*
X86663295Y-77658391D02*
X85863295Y-77658391D01*
X86663295Y-77277439D02*
X85863295Y-77277439D01*
X85863295Y-77277439D02*
X85863295Y-77086963D01*
X85863295Y-77086963D02*
X85901390Y-76972677D01*
X85901390Y-76972677D02*
X85977580Y-76896487D01*
X85977580Y-76896487D02*
X86053771Y-76858392D01*
X86053771Y-76858392D02*
X86206152Y-76820296D01*
X86206152Y-76820296D02*
X86320438Y-76820296D01*
X86320438Y-76820296D02*
X86472819Y-76858392D01*
X86472819Y-76858392D02*
X86549009Y-76896487D01*
X86549009Y-76896487D02*
X86625200Y-76972677D01*
X86625200Y-76972677D02*
X86663295Y-77086963D01*
X86663295Y-77086963D02*
X86663295Y-77277439D01*
D11*
X105178388Y-80756238D02*
X105083150Y-80708619D01*
X105083150Y-80708619D02*
X104940293Y-80708619D01*
X104940293Y-80708619D02*
X104797436Y-80756238D01*
X104797436Y-80756238D02*
X104702198Y-80851476D01*
X104702198Y-80851476D02*
X104654579Y-80946714D01*
X104654579Y-80946714D02*
X104606960Y-81137190D01*
X104606960Y-81137190D02*
X104606960Y-81280047D01*
X104606960Y-81280047D02*
X104654579Y-81470523D01*
X104654579Y-81470523D02*
X104702198Y-81565761D01*
X104702198Y-81565761D02*
X104797436Y-81661000D01*
X104797436Y-81661000D02*
X104940293Y-81708619D01*
X104940293Y-81708619D02*
X105035531Y-81708619D01*
X105035531Y-81708619D02*
X105178388Y-81661000D01*
X105178388Y-81661000D02*
X105226007Y-81613380D01*
X105226007Y-81613380D02*
X105226007Y-81280047D01*
X105226007Y-81280047D02*
X105035531Y-81280047D01*
X105654579Y-81708619D02*
X105654579Y-80708619D01*
X105654579Y-80708619D02*
X106035531Y-80708619D01*
X106035531Y-80708619D02*
X106130769Y-80756238D01*
X106130769Y-80756238D02*
X106178388Y-80803857D01*
X106178388Y-80803857D02*
X106226007Y-80899095D01*
X106226007Y-80899095D02*
X106226007Y-81041952D01*
X106226007Y-81041952D02*
X106178388Y-81137190D01*
X106178388Y-81137190D02*
X106130769Y-81184809D01*
X106130769Y-81184809D02*
X106035531Y-81232428D01*
X106035531Y-81232428D02*
X105654579Y-81232428D01*
X106654579Y-81708619D02*
X106654579Y-80708619D01*
X107321245Y-80708619D02*
X107511721Y-80708619D01*
X107511721Y-80708619D02*
X107606959Y-80756238D01*
X107606959Y-80756238D02*
X107702197Y-80851476D01*
X107702197Y-80851476D02*
X107749816Y-81041952D01*
X107749816Y-81041952D02*
X107749816Y-81375285D01*
X107749816Y-81375285D02*
X107702197Y-81565761D01*
X107702197Y-81565761D02*
X107606959Y-81661000D01*
X107606959Y-81661000D02*
X107511721Y-81708619D01*
X107511721Y-81708619D02*
X107321245Y-81708619D01*
X107321245Y-81708619D02*
X107226007Y-81661000D01*
X107226007Y-81661000D02*
X107130769Y-81565761D01*
X107130769Y-81565761D02*
X107083150Y-81375285D01*
X107083150Y-81375285D02*
X107083150Y-81041952D01*
X107083150Y-81041952D02*
X107130769Y-80851476D01*
X107130769Y-80851476D02*
X107226007Y-80756238D01*
X107226007Y-80756238D02*
X107321245Y-80708619D01*
X117154560Y-81534000D02*
X117297417Y-81581619D01*
X117297417Y-81581619D02*
X117535512Y-81581619D01*
X117535512Y-81581619D02*
X117630750Y-81534000D01*
X117630750Y-81534000D02*
X117678369Y-81486380D01*
X117678369Y-81486380D02*
X117725988Y-81391142D01*
X117725988Y-81391142D02*
X117725988Y-81295904D01*
X117725988Y-81295904D02*
X117678369Y-81200666D01*
X117678369Y-81200666D02*
X117630750Y-81153047D01*
X117630750Y-81153047D02*
X117535512Y-81105428D01*
X117535512Y-81105428D02*
X117345036Y-81057809D01*
X117345036Y-81057809D02*
X117249798Y-81010190D01*
X117249798Y-81010190D02*
X117202179Y-80962571D01*
X117202179Y-80962571D02*
X117154560Y-80867333D01*
X117154560Y-80867333D02*
X117154560Y-80772095D01*
X117154560Y-80772095D02*
X117202179Y-80676857D01*
X117202179Y-80676857D02*
X117249798Y-80629238D01*
X117249798Y-80629238D02*
X117345036Y-80581619D01*
X117345036Y-80581619D02*
X117583131Y-80581619D01*
X117583131Y-80581619D02*
X117725988Y-80629238D01*
X118154560Y-81057809D02*
X118487893Y-81057809D01*
X118630750Y-81581619D02*
X118154560Y-81581619D01*
X118154560Y-81581619D02*
X118154560Y-80581619D01*
X118154560Y-80581619D02*
X118630750Y-80581619D01*
X119630750Y-81581619D02*
X119297417Y-81105428D01*
X119059322Y-81581619D02*
X119059322Y-80581619D01*
X119059322Y-80581619D02*
X119440274Y-80581619D01*
X119440274Y-80581619D02*
X119535512Y-80629238D01*
X119535512Y-80629238D02*
X119583131Y-80676857D01*
X119583131Y-80676857D02*
X119630750Y-80772095D01*
X119630750Y-80772095D02*
X119630750Y-80914952D01*
X119630750Y-80914952D02*
X119583131Y-81010190D01*
X119583131Y-81010190D02*
X119535512Y-81057809D01*
X119535512Y-81057809D02*
X119440274Y-81105428D01*
X119440274Y-81105428D02*
X119059322Y-81105428D01*
X120059322Y-81581619D02*
X120059322Y-80581619D01*
X120487893Y-81295904D02*
X120964083Y-81295904D01*
X120392655Y-81581619D02*
X120725988Y-80581619D01*
X120725988Y-80581619D02*
X121059321Y-81581619D01*
X121868845Y-81581619D02*
X121392655Y-81581619D01*
X121392655Y-81581619D02*
X121392655Y-80581619D01*
X126498579Y-82292819D02*
X126498579Y-81292819D01*
X126927150Y-81388057D02*
X126974769Y-81340438D01*
X126974769Y-81340438D02*
X127070007Y-81292819D01*
X127070007Y-81292819D02*
X127308102Y-81292819D01*
X127308102Y-81292819D02*
X127403340Y-81340438D01*
X127403340Y-81340438D02*
X127450959Y-81388057D01*
X127450959Y-81388057D02*
X127498578Y-81483295D01*
X127498578Y-81483295D02*
X127498578Y-81578533D01*
X127498578Y-81578533D02*
X127450959Y-81721390D01*
X127450959Y-81721390D02*
X126879531Y-82292819D01*
X126879531Y-82292819D02*
X127498578Y-82292819D01*
X128498578Y-82197580D02*
X128450959Y-82245200D01*
X128450959Y-82245200D02*
X128308102Y-82292819D01*
X128308102Y-82292819D02*
X128212864Y-82292819D01*
X128212864Y-82292819D02*
X128070007Y-82245200D01*
X128070007Y-82245200D02*
X127974769Y-82149961D01*
X127974769Y-82149961D02*
X127927150Y-82054723D01*
X127927150Y-82054723D02*
X127879531Y-81864247D01*
X127879531Y-81864247D02*
X127879531Y-81721390D01*
X127879531Y-81721390D02*
X127927150Y-81530914D01*
X127927150Y-81530914D02*
X127974769Y-81435676D01*
X127974769Y-81435676D02*
X128070007Y-81340438D01*
X128070007Y-81340438D02*
X128212864Y-81292819D01*
X128212864Y-81292819D02*
X128308102Y-81292819D01*
X128308102Y-81292819D02*
X128450959Y-81340438D01*
X128450959Y-81340438D02*
X128498578Y-81388057D01*
X127412979Y-60321819D02*
X127412979Y-59321819D01*
X128460597Y-60226580D02*
X128412978Y-60274200D01*
X128412978Y-60274200D02*
X128270121Y-60321819D01*
X128270121Y-60321819D02*
X128174883Y-60321819D01*
X128174883Y-60321819D02*
X128032026Y-60274200D01*
X128032026Y-60274200D02*
X127936788Y-60178961D01*
X127936788Y-60178961D02*
X127889169Y-60083723D01*
X127889169Y-60083723D02*
X127841550Y-59893247D01*
X127841550Y-59893247D02*
X127841550Y-59750390D01*
X127841550Y-59750390D02*
X127889169Y-59559914D01*
X127889169Y-59559914D02*
X127936788Y-59464676D01*
X127936788Y-59464676D02*
X128032026Y-59369438D01*
X128032026Y-59369438D02*
X128174883Y-59321819D01*
X128174883Y-59321819D02*
X128270121Y-59321819D01*
X128270121Y-59321819D02*
X128412978Y-59369438D01*
X128412978Y-59369438D02*
X128460597Y-59417057D01*
X128841550Y-60274200D02*
X128984407Y-60321819D01*
X128984407Y-60321819D02*
X129222502Y-60321819D01*
X129222502Y-60321819D02*
X129317740Y-60274200D01*
X129317740Y-60274200D02*
X129365359Y-60226580D01*
X129365359Y-60226580D02*
X129412978Y-60131342D01*
X129412978Y-60131342D02*
X129412978Y-60036104D01*
X129412978Y-60036104D02*
X129365359Y-59940866D01*
X129365359Y-59940866D02*
X129317740Y-59893247D01*
X129317740Y-59893247D02*
X129222502Y-59845628D01*
X129222502Y-59845628D02*
X129032026Y-59798009D01*
X129032026Y-59798009D02*
X128936788Y-59750390D01*
X128936788Y-59750390D02*
X128889169Y-59702771D01*
X128889169Y-59702771D02*
X128841550Y-59607533D01*
X128841550Y-59607533D02*
X128841550Y-59512295D01*
X128841550Y-59512295D02*
X128889169Y-59417057D01*
X128889169Y-59417057D02*
X128936788Y-59369438D01*
X128936788Y-59369438D02*
X129032026Y-59321819D01*
X129032026Y-59321819D02*
X129270121Y-59321819D01*
X129270121Y-59321819D02*
X129412978Y-59369438D01*
X129841550Y-60321819D02*
X129841550Y-59321819D01*
X129841550Y-59321819D02*
X130222502Y-59321819D01*
X130222502Y-59321819D02*
X130317740Y-59369438D01*
X130317740Y-59369438D02*
X130365359Y-59417057D01*
X130365359Y-59417057D02*
X130412978Y-59512295D01*
X130412978Y-59512295D02*
X130412978Y-59655152D01*
X130412978Y-59655152D02*
X130365359Y-59750390D01*
X130365359Y-59750390D02*
X130317740Y-59798009D01*
X130317740Y-59798009D02*
X130222502Y-59845628D01*
X130222502Y-59845628D02*
X129841550Y-59845628D01*
X85974819Y-84153333D02*
X86689104Y-84153333D01*
X86689104Y-84153333D02*
X86831961Y-84200952D01*
X86831961Y-84200952D02*
X86927200Y-84296190D01*
X86927200Y-84296190D02*
X86974819Y-84439047D01*
X86974819Y-84439047D02*
X86974819Y-84534285D01*
X85974819Y-83772380D02*
X85974819Y-83153333D01*
X85974819Y-83153333D02*
X86355771Y-83486666D01*
X86355771Y-83486666D02*
X86355771Y-83343809D01*
X86355771Y-83343809D02*
X86403390Y-83248571D01*
X86403390Y-83248571D02*
X86451009Y-83200952D01*
X86451009Y-83200952D02*
X86546247Y-83153333D01*
X86546247Y-83153333D02*
X86784342Y-83153333D01*
X86784342Y-83153333D02*
X86879580Y-83200952D01*
X86879580Y-83200952D02*
X86927200Y-83248571D01*
X86927200Y-83248571D02*
X86974819Y-83343809D01*
X86974819Y-83343809D02*
X86974819Y-83629523D01*
X86974819Y-83629523D02*
X86927200Y-83724761D01*
X86927200Y-83724761D02*
X86879580Y-83772380D01*
D10*
X83001056Y-79905047D02*
X83115342Y-79943142D01*
X83115342Y-79943142D02*
X83153437Y-79981238D01*
X83153437Y-79981238D02*
X83191533Y-80057428D01*
X83191533Y-80057428D02*
X83191533Y-80171714D01*
X83191533Y-80171714D02*
X83153437Y-80247904D01*
X83153437Y-80247904D02*
X83115342Y-80286000D01*
X83115342Y-80286000D02*
X83039152Y-80324095D01*
X83039152Y-80324095D02*
X82734390Y-80324095D01*
X82734390Y-80324095D02*
X82734390Y-79524095D01*
X82734390Y-79524095D02*
X83001056Y-79524095D01*
X83001056Y-79524095D02*
X83077247Y-79562190D01*
X83077247Y-79562190D02*
X83115342Y-79600285D01*
X83115342Y-79600285D02*
X83153437Y-79676476D01*
X83153437Y-79676476D02*
X83153437Y-79752666D01*
X83153437Y-79752666D02*
X83115342Y-79828857D01*
X83115342Y-79828857D02*
X83077247Y-79866952D01*
X83077247Y-79866952D02*
X83001056Y-79905047D01*
X83001056Y-79905047D02*
X82734390Y-79905047D01*
X83877247Y-80324095D02*
X83877247Y-79905047D01*
X83877247Y-79905047D02*
X83839152Y-79828857D01*
X83839152Y-79828857D02*
X83762961Y-79790761D01*
X83762961Y-79790761D02*
X83610580Y-79790761D01*
X83610580Y-79790761D02*
X83534390Y-79828857D01*
X83877247Y-80286000D02*
X83801056Y-80324095D01*
X83801056Y-80324095D02*
X83610580Y-80324095D01*
X83610580Y-80324095D02*
X83534390Y-80286000D01*
X83534390Y-80286000D02*
X83496294Y-80209809D01*
X83496294Y-80209809D02*
X83496294Y-80133619D01*
X83496294Y-80133619D02*
X83534390Y-80057428D01*
X83534390Y-80057428D02*
X83610580Y-80019333D01*
X83610580Y-80019333D02*
X83801056Y-80019333D01*
X83801056Y-80019333D02*
X83877247Y-79981238D01*
X84143914Y-79790761D02*
X84448676Y-79790761D01*
X84258200Y-79524095D02*
X84258200Y-80209809D01*
X84258200Y-80209809D02*
X84296295Y-80286000D01*
X84296295Y-80286000D02*
X84372485Y-80324095D01*
X84372485Y-80324095D02*
X84448676Y-80324095D01*
X84601057Y-79790761D02*
X84905819Y-79790761D01*
X84715343Y-79524095D02*
X84715343Y-80209809D01*
X84715343Y-80209809D02*
X84753438Y-80286000D01*
X84753438Y-80286000D02*
X84829628Y-80324095D01*
X84829628Y-80324095D02*
X84905819Y-80324095D01*
X85477248Y-80286000D02*
X85401057Y-80324095D01*
X85401057Y-80324095D02*
X85248676Y-80324095D01*
X85248676Y-80324095D02*
X85172486Y-80286000D01*
X85172486Y-80286000D02*
X85134390Y-80209809D01*
X85134390Y-80209809D02*
X85134390Y-79905047D01*
X85134390Y-79905047D02*
X85172486Y-79828857D01*
X85172486Y-79828857D02*
X85248676Y-79790761D01*
X85248676Y-79790761D02*
X85401057Y-79790761D01*
X85401057Y-79790761D02*
X85477248Y-79828857D01*
X85477248Y-79828857D02*
X85515343Y-79905047D01*
X85515343Y-79905047D02*
X85515343Y-79981238D01*
X85515343Y-79981238D02*
X85134390Y-80057428D01*
X85858200Y-80324095D02*
X85858200Y-79790761D01*
X85858200Y-79943142D02*
X85896295Y-79866952D01*
X85896295Y-79866952D02*
X85934390Y-79828857D01*
X85934390Y-79828857D02*
X86010581Y-79790761D01*
X86010581Y-79790761D02*
X86086771Y-79790761D01*
X86277247Y-79790761D02*
X86467723Y-80324095D01*
X86658200Y-79790761D02*
X86467723Y-80324095D01*
X86467723Y-80324095D02*
X86391533Y-80514571D01*
X86391533Y-80514571D02*
X86353438Y-80552666D01*
X86353438Y-80552666D02*
X86277247Y-80590761D01*
D11*
X116434405Y-65096819D02*
X116434405Y-64096819D01*
X116434405Y-64096819D02*
X116672500Y-64096819D01*
X116672500Y-64096819D02*
X116815357Y-64144438D01*
X116815357Y-64144438D02*
X116910595Y-64239676D01*
X116910595Y-64239676D02*
X116958214Y-64334914D01*
X116958214Y-64334914D02*
X117005833Y-64525390D01*
X117005833Y-64525390D02*
X117005833Y-64668247D01*
X117005833Y-64668247D02*
X116958214Y-64858723D01*
X116958214Y-64858723D02*
X116910595Y-64953961D01*
X116910595Y-64953961D02*
X116815357Y-65049200D01*
X116815357Y-65049200D02*
X116672500Y-65096819D01*
X116672500Y-65096819D02*
X116434405Y-65096819D01*
X117958214Y-65096819D02*
X117386786Y-65096819D01*
X117672500Y-65096819D02*
X117672500Y-64096819D01*
X117672500Y-64096819D02*
X117577262Y-64239676D01*
X117577262Y-64239676D02*
X117482024Y-64334914D01*
X117482024Y-64334914D02*
X117386786Y-64382533D01*
D10*
X116658214Y-61706895D02*
X116277262Y-61706895D01*
X116277262Y-61706895D02*
X116277262Y-60906895D01*
X116924881Y-61287847D02*
X117191547Y-61287847D01*
X117305833Y-61706895D02*
X116924881Y-61706895D01*
X116924881Y-61706895D02*
X116924881Y-60906895D01*
X116924881Y-60906895D02*
X117305833Y-60906895D01*
X117648691Y-61706895D02*
X117648691Y-60906895D01*
X117648691Y-60906895D02*
X117839167Y-60906895D01*
X117839167Y-60906895D02*
X117953453Y-60944990D01*
X117953453Y-60944990D02*
X118029643Y-61021180D01*
X118029643Y-61021180D02*
X118067738Y-61097371D01*
X118067738Y-61097371D02*
X118105834Y-61249752D01*
X118105834Y-61249752D02*
X118105834Y-61364038D01*
X118105834Y-61364038D02*
X118067738Y-61516419D01*
X118067738Y-61516419D02*
X118029643Y-61592609D01*
X118029643Y-61592609D02*
X117953453Y-61668800D01*
X117953453Y-61668800D02*
X117839167Y-61706895D01*
X117839167Y-61706895D02*
X117648691Y-61706895D01*
D11*
X97864819Y-68135166D02*
X97388628Y-68468499D01*
X97864819Y-68706594D02*
X96864819Y-68706594D01*
X96864819Y-68706594D02*
X96864819Y-68325642D01*
X96864819Y-68325642D02*
X96912438Y-68230404D01*
X96912438Y-68230404D02*
X96960057Y-68182785D01*
X96960057Y-68182785D02*
X97055295Y-68135166D01*
X97055295Y-68135166D02*
X97198152Y-68135166D01*
X97198152Y-68135166D02*
X97293390Y-68182785D01*
X97293390Y-68182785D02*
X97341009Y-68230404D01*
X97341009Y-68230404D02*
X97388628Y-68325642D01*
X97388628Y-68325642D02*
X97388628Y-68706594D01*
X97864819Y-67182785D02*
X97864819Y-67754213D01*
X97864819Y-67468499D02*
X96864819Y-67468499D01*
X96864819Y-67468499D02*
X97007676Y-67563737D01*
X97007676Y-67563737D02*
X97102914Y-67658975D01*
X97102914Y-67658975D02*
X97150533Y-67754213D01*
D10*
X100541561Y-68787547D02*
X101074895Y-68787547D01*
X100236800Y-68978023D02*
X100808228Y-69168500D01*
X100808228Y-69168500D02*
X100808228Y-68673261D01*
X100998704Y-68368499D02*
X101036800Y-68330404D01*
X101036800Y-68330404D02*
X101074895Y-68368499D01*
X101074895Y-68368499D02*
X101036800Y-68406595D01*
X101036800Y-68406595D02*
X100998704Y-68368499D01*
X100998704Y-68368499D02*
X101074895Y-68368499D01*
X100274895Y-68063738D02*
X100274895Y-67530404D01*
X100274895Y-67530404D02*
X101074895Y-67873262D01*
X101074895Y-67225642D02*
X100274895Y-67225642D01*
X101074895Y-66768499D02*
X100617752Y-67111357D01*
X100274895Y-66768499D02*
X100732038Y-67225642D01*
D11*
X114236833Y-76528819D02*
X113903500Y-76052628D01*
X113665405Y-76528819D02*
X113665405Y-75528819D01*
X113665405Y-75528819D02*
X114046357Y-75528819D01*
X114046357Y-75528819D02*
X114141595Y-75576438D01*
X114141595Y-75576438D02*
X114189214Y-75624057D01*
X114189214Y-75624057D02*
X114236833Y-75719295D01*
X114236833Y-75719295D02*
X114236833Y-75862152D01*
X114236833Y-75862152D02*
X114189214Y-75957390D01*
X114189214Y-75957390D02*
X114141595Y-76005009D01*
X114141595Y-76005009D02*
X114046357Y-76052628D01*
X114046357Y-76052628D02*
X113665405Y-76052628D01*
X114570167Y-75528819D02*
X115236833Y-75528819D01*
X115236833Y-75528819D02*
X114808262Y-76528819D01*
D10*
X117125818Y-78317495D02*
X116668675Y-78317495D01*
X116897247Y-78317495D02*
X116897247Y-77517495D01*
X116897247Y-77517495D02*
X116821056Y-77631780D01*
X116821056Y-77631780D02*
X116744866Y-77707971D01*
X116744866Y-77707971D02*
X116668675Y-77746066D01*
X117621057Y-77517495D02*
X117697247Y-77517495D01*
X117697247Y-77517495D02*
X117773438Y-77555590D01*
X117773438Y-77555590D02*
X117811533Y-77593685D01*
X117811533Y-77593685D02*
X117849628Y-77669876D01*
X117849628Y-77669876D02*
X117887723Y-77822257D01*
X117887723Y-77822257D02*
X117887723Y-78012733D01*
X117887723Y-78012733D02*
X117849628Y-78165114D01*
X117849628Y-78165114D02*
X117811533Y-78241304D01*
X117811533Y-78241304D02*
X117773438Y-78279400D01*
X117773438Y-78279400D02*
X117697247Y-78317495D01*
X117697247Y-78317495D02*
X117621057Y-78317495D01*
X117621057Y-78317495D02*
X117544866Y-78279400D01*
X117544866Y-78279400D02*
X117506771Y-78241304D01*
X117506771Y-78241304D02*
X117468676Y-78165114D01*
X117468676Y-78165114D02*
X117430580Y-78012733D01*
X117430580Y-78012733D02*
X117430580Y-77822257D01*
X117430580Y-77822257D02*
X117468676Y-77669876D01*
X117468676Y-77669876D02*
X117506771Y-77593685D01*
X117506771Y-77593685D02*
X117544866Y-77555590D01*
X117544866Y-77555590D02*
X117621057Y-77517495D01*
X118230581Y-78317495D02*
X118230581Y-77517495D01*
X118687724Y-78317495D02*
X118344866Y-77860352D01*
X118687724Y-77517495D02*
X118230581Y-77974638D01*
D11*
X120165905Y-65478819D02*
X120165905Y-64478819D01*
X120165905Y-64478819D02*
X120404000Y-64478819D01*
X120404000Y-64478819D02*
X120546857Y-64526438D01*
X120546857Y-64526438D02*
X120642095Y-64621676D01*
X120642095Y-64621676D02*
X120689714Y-64716914D01*
X120689714Y-64716914D02*
X120737333Y-64907390D01*
X120737333Y-64907390D02*
X120737333Y-65050247D01*
X120737333Y-65050247D02*
X120689714Y-65240723D01*
X120689714Y-65240723D02*
X120642095Y-65335961D01*
X120642095Y-65335961D02*
X120546857Y-65431200D01*
X120546857Y-65431200D02*
X120404000Y-65478819D01*
X120404000Y-65478819D02*
X120165905Y-65478819D01*
X121118286Y-64574057D02*
X121165905Y-64526438D01*
X121165905Y-64526438D02*
X121261143Y-64478819D01*
X121261143Y-64478819D02*
X121499238Y-64478819D01*
X121499238Y-64478819D02*
X121594476Y-64526438D01*
X121594476Y-64526438D02*
X121642095Y-64574057D01*
X121642095Y-64574057D02*
X121689714Y-64669295D01*
X121689714Y-64669295D02*
X121689714Y-64764533D01*
X121689714Y-64764533D02*
X121642095Y-64907390D01*
X121642095Y-64907390D02*
X121070667Y-65478819D01*
X121070667Y-65478819D02*
X121689714Y-65478819D01*
D10*
X120468214Y-61706895D02*
X120087262Y-61706895D01*
X120087262Y-61706895D02*
X120087262Y-60906895D01*
X120734881Y-61287847D02*
X121001547Y-61287847D01*
X121115833Y-61706895D02*
X120734881Y-61706895D01*
X120734881Y-61706895D02*
X120734881Y-60906895D01*
X120734881Y-60906895D02*
X121115833Y-60906895D01*
X121458691Y-61706895D02*
X121458691Y-60906895D01*
X121458691Y-60906895D02*
X121649167Y-60906895D01*
X121649167Y-60906895D02*
X121763453Y-60944990D01*
X121763453Y-60944990D02*
X121839643Y-61021180D01*
X121839643Y-61021180D02*
X121877738Y-61097371D01*
X121877738Y-61097371D02*
X121915834Y-61249752D01*
X121915834Y-61249752D02*
X121915834Y-61364038D01*
X121915834Y-61364038D02*
X121877738Y-61516419D01*
X121877738Y-61516419D02*
X121839643Y-61592609D01*
X121839643Y-61592609D02*
X121763453Y-61668800D01*
X121763453Y-61668800D02*
X121649167Y-61706895D01*
X121649167Y-61706895D02*
X121458691Y-61706895D01*
D11*
X112939533Y-61243380D02*
X112891914Y-61291000D01*
X112891914Y-61291000D02*
X112749057Y-61338619D01*
X112749057Y-61338619D02*
X112653819Y-61338619D01*
X112653819Y-61338619D02*
X112510962Y-61291000D01*
X112510962Y-61291000D02*
X112415724Y-61195761D01*
X112415724Y-61195761D02*
X112368105Y-61100523D01*
X112368105Y-61100523D02*
X112320486Y-60910047D01*
X112320486Y-60910047D02*
X112320486Y-60767190D01*
X112320486Y-60767190D02*
X112368105Y-60576714D01*
X112368105Y-60576714D02*
X112415724Y-60481476D01*
X112415724Y-60481476D02*
X112510962Y-60386238D01*
X112510962Y-60386238D02*
X112653819Y-60338619D01*
X112653819Y-60338619D02*
X112749057Y-60338619D01*
X112749057Y-60338619D02*
X112891914Y-60386238D01*
X112891914Y-60386238D02*
X112939533Y-60433857D01*
X113320486Y-60433857D02*
X113368105Y-60386238D01*
X113368105Y-60386238D02*
X113463343Y-60338619D01*
X113463343Y-60338619D02*
X113701438Y-60338619D01*
X113701438Y-60338619D02*
X113796676Y-60386238D01*
X113796676Y-60386238D02*
X113844295Y-60433857D01*
X113844295Y-60433857D02*
X113891914Y-60529095D01*
X113891914Y-60529095D02*
X113891914Y-60624333D01*
X113891914Y-60624333D02*
X113844295Y-60767190D01*
X113844295Y-60767190D02*
X113272867Y-61338619D01*
X113272867Y-61338619D02*
X113891914Y-61338619D01*
D10*
X111487113Y-64182485D02*
X111525209Y-64144390D01*
X111525209Y-64144390D02*
X111601399Y-64106295D01*
X111601399Y-64106295D02*
X111791875Y-64106295D01*
X111791875Y-64106295D02*
X111868066Y-64144390D01*
X111868066Y-64144390D02*
X111906161Y-64182485D01*
X111906161Y-64182485D02*
X111944256Y-64258676D01*
X111944256Y-64258676D02*
X111944256Y-64334866D01*
X111944256Y-64334866D02*
X111906161Y-64449152D01*
X111906161Y-64449152D02*
X111449018Y-64906295D01*
X111449018Y-64906295D02*
X111944256Y-64906295D01*
X112249018Y-64182485D02*
X112287114Y-64144390D01*
X112287114Y-64144390D02*
X112363304Y-64106295D01*
X112363304Y-64106295D02*
X112553780Y-64106295D01*
X112553780Y-64106295D02*
X112629971Y-64144390D01*
X112629971Y-64144390D02*
X112668066Y-64182485D01*
X112668066Y-64182485D02*
X112706161Y-64258676D01*
X112706161Y-64258676D02*
X112706161Y-64334866D01*
X112706161Y-64334866D02*
X112668066Y-64449152D01*
X112668066Y-64449152D02*
X112210923Y-64906295D01*
X112210923Y-64906295D02*
X112706161Y-64906295D01*
X113049019Y-64372961D02*
X113049019Y-65172961D01*
X113049019Y-64411057D02*
X113125209Y-64372961D01*
X113125209Y-64372961D02*
X113277590Y-64372961D01*
X113277590Y-64372961D02*
X113353781Y-64411057D01*
X113353781Y-64411057D02*
X113391876Y-64449152D01*
X113391876Y-64449152D02*
X113429971Y-64525342D01*
X113429971Y-64525342D02*
X113429971Y-64753914D01*
X113429971Y-64753914D02*
X113391876Y-64830104D01*
X113391876Y-64830104D02*
X113353781Y-64868200D01*
X113353781Y-64868200D02*
X113277590Y-64906295D01*
X113277590Y-64906295D02*
X113125209Y-64906295D01*
X113125209Y-64906295D02*
X113049019Y-64868200D01*
X114039495Y-64487247D02*
X113772829Y-64487247D01*
X113772829Y-64906295D02*
X113772829Y-64106295D01*
X113772829Y-64106295D02*
X114153781Y-64106295D01*
D11*
X97863819Y-71820066D02*
X97387628Y-72153399D01*
X97863819Y-72391494D02*
X96863819Y-72391494D01*
X96863819Y-72391494D02*
X96863819Y-72010542D01*
X96863819Y-72010542D02*
X96911438Y-71915304D01*
X96911438Y-71915304D02*
X96959057Y-71867685D01*
X96959057Y-71867685D02*
X97054295Y-71820066D01*
X97054295Y-71820066D02*
X97197152Y-71820066D01*
X97197152Y-71820066D02*
X97292390Y-71867685D01*
X97292390Y-71867685D02*
X97340009Y-71915304D01*
X97340009Y-71915304D02*
X97387628Y-72010542D01*
X97387628Y-72010542D02*
X97387628Y-72391494D01*
X96959057Y-71439113D02*
X96911438Y-71391494D01*
X96911438Y-71391494D02*
X96863819Y-71296256D01*
X96863819Y-71296256D02*
X96863819Y-71058161D01*
X96863819Y-71058161D02*
X96911438Y-70962923D01*
X96911438Y-70962923D02*
X96959057Y-70915304D01*
X96959057Y-70915304D02*
X97054295Y-70867685D01*
X97054295Y-70867685D02*
X97149533Y-70867685D01*
X97149533Y-70867685D02*
X97292390Y-70915304D01*
X97292390Y-70915304D02*
X97863819Y-71486732D01*
X97863819Y-71486732D02*
X97863819Y-70867685D01*
D10*
X100364761Y-72345447D02*
X100898095Y-72345447D01*
X100060000Y-72535923D02*
X100631428Y-72726400D01*
X100631428Y-72726400D02*
X100631428Y-72231161D01*
X100821904Y-71926399D02*
X100860000Y-71888304D01*
X100860000Y-71888304D02*
X100898095Y-71926399D01*
X100898095Y-71926399D02*
X100860000Y-71964495D01*
X100860000Y-71964495D02*
X100821904Y-71926399D01*
X100821904Y-71926399D02*
X100898095Y-71926399D01*
X100098095Y-71621638D02*
X100098095Y-71088304D01*
X100098095Y-71088304D02*
X100898095Y-71431162D01*
X100898095Y-70783542D02*
X100098095Y-70783542D01*
X100898095Y-70326399D02*
X100440952Y-70669257D01*
X100098095Y-70326399D02*
X100555238Y-70783542D01*
D11*
X114133333Y-71448819D02*
X113800000Y-70972628D01*
X113561905Y-71448819D02*
X113561905Y-70448819D01*
X113561905Y-70448819D02*
X113942857Y-70448819D01*
X113942857Y-70448819D02*
X114038095Y-70496438D01*
X114038095Y-70496438D02*
X114085714Y-70544057D01*
X114085714Y-70544057D02*
X114133333Y-70639295D01*
X114133333Y-70639295D02*
X114133333Y-70782152D01*
X114133333Y-70782152D02*
X114085714Y-70877390D01*
X114085714Y-70877390D02*
X114038095Y-70925009D01*
X114038095Y-70925009D02*
X113942857Y-70972628D01*
X113942857Y-70972628D02*
X113561905Y-70972628D01*
X114990476Y-70448819D02*
X114800000Y-70448819D01*
X114800000Y-70448819D02*
X114704762Y-70496438D01*
X114704762Y-70496438D02*
X114657143Y-70544057D01*
X114657143Y-70544057D02*
X114561905Y-70686914D01*
X114561905Y-70686914D02*
X114514286Y-70877390D01*
X114514286Y-70877390D02*
X114514286Y-71258342D01*
X114514286Y-71258342D02*
X114561905Y-71353580D01*
X114561905Y-71353580D02*
X114609524Y-71401200D01*
X114609524Y-71401200D02*
X114704762Y-71448819D01*
X114704762Y-71448819D02*
X114895238Y-71448819D01*
X114895238Y-71448819D02*
X114990476Y-71401200D01*
X114990476Y-71401200D02*
X115038095Y-71353580D01*
X115038095Y-71353580D02*
X115085714Y-71258342D01*
X115085714Y-71258342D02*
X115085714Y-71020247D01*
X115085714Y-71020247D02*
X115038095Y-70925009D01*
X115038095Y-70925009D02*
X114990476Y-70877390D01*
X114990476Y-70877390D02*
X114895238Y-70829771D01*
X114895238Y-70829771D02*
X114704762Y-70829771D01*
X114704762Y-70829771D02*
X114609524Y-70877390D01*
X114609524Y-70877390D02*
X114561905Y-70925009D01*
X114561905Y-70925009D02*
X114514286Y-71020247D01*
D10*
X113747618Y-74658895D02*
X113290475Y-74658895D01*
X113519047Y-74658895D02*
X113519047Y-73858895D01*
X113519047Y-73858895D02*
X113442856Y-73973180D01*
X113442856Y-73973180D02*
X113366666Y-74049371D01*
X113366666Y-74049371D02*
X113290475Y-74087466D01*
X114242857Y-73858895D02*
X114319047Y-73858895D01*
X114319047Y-73858895D02*
X114395238Y-73896990D01*
X114395238Y-73896990D02*
X114433333Y-73935085D01*
X114433333Y-73935085D02*
X114471428Y-74011276D01*
X114471428Y-74011276D02*
X114509523Y-74163657D01*
X114509523Y-74163657D02*
X114509523Y-74354133D01*
X114509523Y-74354133D02*
X114471428Y-74506514D01*
X114471428Y-74506514D02*
X114433333Y-74582704D01*
X114433333Y-74582704D02*
X114395238Y-74620800D01*
X114395238Y-74620800D02*
X114319047Y-74658895D01*
X114319047Y-74658895D02*
X114242857Y-74658895D01*
X114242857Y-74658895D02*
X114166666Y-74620800D01*
X114166666Y-74620800D02*
X114128571Y-74582704D01*
X114128571Y-74582704D02*
X114090476Y-74506514D01*
X114090476Y-74506514D02*
X114052380Y-74354133D01*
X114052380Y-74354133D02*
X114052380Y-74163657D01*
X114052380Y-74163657D02*
X114090476Y-74011276D01*
X114090476Y-74011276D02*
X114128571Y-73935085D01*
X114128571Y-73935085D02*
X114166666Y-73896990D01*
X114166666Y-73896990D02*
X114242857Y-73858895D01*
X114852381Y-74658895D02*
X114852381Y-73858895D01*
X115309524Y-74658895D02*
X114966666Y-74201752D01*
X115309524Y-73858895D02*
X114852381Y-74316038D01*
D11*
X108799333Y-76559580D02*
X108751714Y-76607200D01*
X108751714Y-76607200D02*
X108608857Y-76654819D01*
X108608857Y-76654819D02*
X108513619Y-76654819D01*
X108513619Y-76654819D02*
X108370762Y-76607200D01*
X108370762Y-76607200D02*
X108275524Y-76511961D01*
X108275524Y-76511961D02*
X108227905Y-76416723D01*
X108227905Y-76416723D02*
X108180286Y-76226247D01*
X108180286Y-76226247D02*
X108180286Y-76083390D01*
X108180286Y-76083390D02*
X108227905Y-75892914D01*
X108227905Y-75892914D02*
X108275524Y-75797676D01*
X108275524Y-75797676D02*
X108370762Y-75702438D01*
X108370762Y-75702438D02*
X108513619Y-75654819D01*
X108513619Y-75654819D02*
X108608857Y-75654819D01*
X108608857Y-75654819D02*
X108751714Y-75702438D01*
X108751714Y-75702438D02*
X108799333Y-75750057D01*
X109656476Y-75988152D02*
X109656476Y-76654819D01*
X109418381Y-75607200D02*
X109180286Y-76321485D01*
X109180286Y-76321485D02*
X109799333Y-76321485D01*
D10*
X108108952Y-78968895D02*
X108185142Y-78968895D01*
X108185142Y-78968895D02*
X108261333Y-79006990D01*
X108261333Y-79006990D02*
X108299428Y-79045085D01*
X108299428Y-79045085D02*
X108337523Y-79121276D01*
X108337523Y-79121276D02*
X108375618Y-79273657D01*
X108375618Y-79273657D02*
X108375618Y-79464133D01*
X108375618Y-79464133D02*
X108337523Y-79616514D01*
X108337523Y-79616514D02*
X108299428Y-79692704D01*
X108299428Y-79692704D02*
X108261333Y-79730800D01*
X108261333Y-79730800D02*
X108185142Y-79768895D01*
X108185142Y-79768895D02*
X108108952Y-79768895D01*
X108108952Y-79768895D02*
X108032761Y-79730800D01*
X108032761Y-79730800D02*
X107994666Y-79692704D01*
X107994666Y-79692704D02*
X107956571Y-79616514D01*
X107956571Y-79616514D02*
X107918475Y-79464133D01*
X107918475Y-79464133D02*
X107918475Y-79273657D01*
X107918475Y-79273657D02*
X107956571Y-79121276D01*
X107956571Y-79121276D02*
X107994666Y-79045085D01*
X107994666Y-79045085D02*
X108032761Y-79006990D01*
X108032761Y-79006990D02*
X108108952Y-78968895D01*
X108718476Y-79692704D02*
X108756571Y-79730800D01*
X108756571Y-79730800D02*
X108718476Y-79768895D01*
X108718476Y-79768895D02*
X108680380Y-79730800D01*
X108680380Y-79730800D02*
X108718476Y-79692704D01*
X108718476Y-79692704D02*
X108718476Y-79768895D01*
X109518475Y-79768895D02*
X109061332Y-79768895D01*
X109289904Y-79768895D02*
X109289904Y-78968895D01*
X109289904Y-78968895D02*
X109213713Y-79083180D01*
X109213713Y-79083180D02*
X109137523Y-79159371D01*
X109137523Y-79159371D02*
X109061332Y-79197466D01*
X110813714Y-79235561D02*
X110813714Y-79768895D01*
X110470857Y-79235561D02*
X110470857Y-79654609D01*
X110470857Y-79654609D02*
X110508952Y-79730800D01*
X110508952Y-79730800D02*
X110585142Y-79768895D01*
X110585142Y-79768895D02*
X110699428Y-79768895D01*
X110699428Y-79768895D02*
X110775619Y-79730800D01*
X110775619Y-79730800D02*
X110813714Y-79692704D01*
X111461333Y-79349847D02*
X111194667Y-79349847D01*
X111194667Y-79768895D02*
X111194667Y-78968895D01*
X111194667Y-78968895D02*
X111575619Y-78968895D01*
D11*
X80518095Y-83764819D02*
X80518095Y-82764819D01*
X80518095Y-83241009D02*
X81089523Y-83241009D01*
X81089523Y-83764819D02*
X81089523Y-82764819D01*
X81518095Y-82860057D02*
X81565714Y-82812438D01*
X81565714Y-82812438D02*
X81660952Y-82764819D01*
X81660952Y-82764819D02*
X81899047Y-82764819D01*
X81899047Y-82764819D02*
X81994285Y-82812438D01*
X81994285Y-82812438D02*
X82041904Y-82860057D01*
X82041904Y-82860057D02*
X82089523Y-82955295D01*
X82089523Y-82955295D02*
X82089523Y-83050533D01*
X82089523Y-83050533D02*
X82041904Y-83193390D01*
X82041904Y-83193390D02*
X81470476Y-83764819D01*
X81470476Y-83764819D02*
X82089523Y-83764819D01*
X105635809Y-69314628D02*
X105635809Y-69790819D01*
X105302476Y-68790819D02*
X105635809Y-69314628D01*
X105635809Y-69314628D02*
X105969142Y-68790819D01*
X106254857Y-68886057D02*
X106302476Y-68838438D01*
X106302476Y-68838438D02*
X106397714Y-68790819D01*
X106397714Y-68790819D02*
X106635809Y-68790819D01*
X106635809Y-68790819D02*
X106731047Y-68838438D01*
X106731047Y-68838438D02*
X106778666Y-68886057D01*
X106778666Y-68886057D02*
X106826285Y-68981295D01*
X106826285Y-68981295D02*
X106826285Y-69076533D01*
X106826285Y-69076533D02*
X106778666Y-69219390D01*
X106778666Y-69219390D02*
X106207238Y-69790819D01*
X106207238Y-69790819D02*
X106826285Y-69790819D01*
D10*
X102616428Y-74444095D02*
X103111666Y-74444095D01*
X103111666Y-74444095D02*
X102845000Y-74748857D01*
X102845000Y-74748857D02*
X102959285Y-74748857D01*
X102959285Y-74748857D02*
X103035476Y-74786952D01*
X103035476Y-74786952D02*
X103073571Y-74825047D01*
X103073571Y-74825047D02*
X103111666Y-74901238D01*
X103111666Y-74901238D02*
X103111666Y-75091714D01*
X103111666Y-75091714D02*
X103073571Y-75167904D01*
X103073571Y-75167904D02*
X103035476Y-75206000D01*
X103035476Y-75206000D02*
X102959285Y-75244095D01*
X102959285Y-75244095D02*
X102730714Y-75244095D01*
X102730714Y-75244095D02*
X102654523Y-75206000D01*
X102654523Y-75206000D02*
X102616428Y-75167904D01*
X103416428Y-74520285D02*
X103454524Y-74482190D01*
X103454524Y-74482190D02*
X103530714Y-74444095D01*
X103530714Y-74444095D02*
X103721190Y-74444095D01*
X103721190Y-74444095D02*
X103797381Y-74482190D01*
X103797381Y-74482190D02*
X103835476Y-74520285D01*
X103835476Y-74520285D02*
X103873571Y-74596476D01*
X103873571Y-74596476D02*
X103873571Y-74672666D01*
X103873571Y-74672666D02*
X103835476Y-74786952D01*
X103835476Y-74786952D02*
X103378333Y-75244095D01*
X103378333Y-75244095D02*
X103873571Y-75244095D01*
X104216429Y-75167904D02*
X104254524Y-75206000D01*
X104254524Y-75206000D02*
X104216429Y-75244095D01*
X104216429Y-75244095D02*
X104178333Y-75206000D01*
X104178333Y-75206000D02*
X104216429Y-75167904D01*
X104216429Y-75167904D02*
X104216429Y-75244095D01*
X104521190Y-74444095D02*
X105054524Y-74444095D01*
X105054524Y-74444095D02*
X104711666Y-75244095D01*
X105702143Y-74444095D02*
X105549762Y-74444095D01*
X105549762Y-74444095D02*
X105473571Y-74482190D01*
X105473571Y-74482190D02*
X105435476Y-74520285D01*
X105435476Y-74520285D02*
X105359286Y-74634571D01*
X105359286Y-74634571D02*
X105321190Y-74786952D01*
X105321190Y-74786952D02*
X105321190Y-75091714D01*
X105321190Y-75091714D02*
X105359286Y-75167904D01*
X105359286Y-75167904D02*
X105397381Y-75206000D01*
X105397381Y-75206000D02*
X105473571Y-75244095D01*
X105473571Y-75244095D02*
X105625952Y-75244095D01*
X105625952Y-75244095D02*
X105702143Y-75206000D01*
X105702143Y-75206000D02*
X105740238Y-75167904D01*
X105740238Y-75167904D02*
X105778333Y-75091714D01*
X105778333Y-75091714D02*
X105778333Y-74901238D01*
X105778333Y-74901238D02*
X105740238Y-74825047D01*
X105740238Y-74825047D02*
X105702143Y-74786952D01*
X105702143Y-74786952D02*
X105625952Y-74748857D01*
X105625952Y-74748857D02*
X105473571Y-74748857D01*
X105473571Y-74748857D02*
X105397381Y-74786952D01*
X105397381Y-74786952D02*
X105359286Y-74825047D01*
X105359286Y-74825047D02*
X105321190Y-74901238D01*
X106235476Y-74786952D02*
X106159286Y-74748857D01*
X106159286Y-74748857D02*
X106121191Y-74710761D01*
X106121191Y-74710761D02*
X106083095Y-74634571D01*
X106083095Y-74634571D02*
X106083095Y-74596476D01*
X106083095Y-74596476D02*
X106121191Y-74520285D01*
X106121191Y-74520285D02*
X106159286Y-74482190D01*
X106159286Y-74482190D02*
X106235476Y-74444095D01*
X106235476Y-74444095D02*
X106387857Y-74444095D01*
X106387857Y-74444095D02*
X106464048Y-74482190D01*
X106464048Y-74482190D02*
X106502143Y-74520285D01*
X106502143Y-74520285D02*
X106540238Y-74596476D01*
X106540238Y-74596476D02*
X106540238Y-74634571D01*
X106540238Y-74634571D02*
X106502143Y-74710761D01*
X106502143Y-74710761D02*
X106464048Y-74748857D01*
X106464048Y-74748857D02*
X106387857Y-74786952D01*
X106387857Y-74786952D02*
X106235476Y-74786952D01*
X106235476Y-74786952D02*
X106159286Y-74825047D01*
X106159286Y-74825047D02*
X106121191Y-74863142D01*
X106121191Y-74863142D02*
X106083095Y-74939333D01*
X106083095Y-74939333D02*
X106083095Y-75091714D01*
X106083095Y-75091714D02*
X106121191Y-75167904D01*
X106121191Y-75167904D02*
X106159286Y-75206000D01*
X106159286Y-75206000D02*
X106235476Y-75244095D01*
X106235476Y-75244095D02*
X106387857Y-75244095D01*
X106387857Y-75244095D02*
X106464048Y-75206000D01*
X106464048Y-75206000D02*
X106502143Y-75167904D01*
X106502143Y-75167904D02*
X106540238Y-75091714D01*
X106540238Y-75091714D02*
X106540238Y-74939333D01*
X106540238Y-74939333D02*
X106502143Y-74863142D01*
X106502143Y-74863142D02*
X106464048Y-74825047D01*
X106464048Y-74825047D02*
X106387857Y-74786952D01*
X107492620Y-75244095D02*
X107492620Y-74444095D01*
X107949763Y-75244095D02*
X107606905Y-74786952D01*
X107949763Y-74444095D02*
X107492620Y-74901238D01*
X108292620Y-75244095D02*
X108292620Y-74444095D01*
X108292620Y-74825047D02*
X108749763Y-74825047D01*
X108749763Y-75244095D02*
X108749763Y-74444095D01*
X109054524Y-74710761D02*
X109473572Y-74710761D01*
X109473572Y-74710761D02*
X109054524Y-75244095D01*
X109054524Y-75244095D02*
X109473572Y-75244095D01*
D11*
X115211266Y-80557019D02*
X115211266Y-81271304D01*
X115211266Y-81271304D02*
X115163647Y-81414161D01*
X115163647Y-81414161D02*
X115068409Y-81509400D01*
X115068409Y-81509400D02*
X114925552Y-81557019D01*
X114925552Y-81557019D02*
X114830314Y-81557019D01*
X115639838Y-80652257D02*
X115687457Y-80604638D01*
X115687457Y-80604638D02*
X115782695Y-80557019D01*
X115782695Y-80557019D02*
X116020790Y-80557019D01*
X116020790Y-80557019D02*
X116116028Y-80604638D01*
X116116028Y-80604638D02*
X116163647Y-80652257D01*
X116163647Y-80652257D02*
X116211266Y-80747495D01*
X116211266Y-80747495D02*
X116211266Y-80842733D01*
X116211266Y-80842733D02*
X116163647Y-80985590D01*
X116163647Y-80985590D02*
X115592219Y-81557019D01*
X115592219Y-81557019D02*
X116211266Y-81557019D01*
X91186095Y-56306819D02*
X91186095Y-57116342D01*
X91186095Y-57116342D02*
X91233714Y-57211580D01*
X91233714Y-57211580D02*
X91281333Y-57259200D01*
X91281333Y-57259200D02*
X91376571Y-57306819D01*
X91376571Y-57306819D02*
X91567047Y-57306819D01*
X91567047Y-57306819D02*
X91662285Y-57259200D01*
X91662285Y-57259200D02*
X91709904Y-57211580D01*
X91709904Y-57211580D02*
X91757523Y-57116342D01*
X91757523Y-57116342D02*
X91757523Y-56306819D01*
X92757523Y-57306819D02*
X92186095Y-57306819D01*
X92471809Y-57306819D02*
X92471809Y-56306819D01*
X92471809Y-56306819D02*
X92376571Y-56449676D01*
X92376571Y-56449676D02*
X92281333Y-56544914D01*
X92281333Y-56544914D02*
X92186095Y-56592533D01*
D10*
X88709856Y-64131685D02*
X88747952Y-64093590D01*
X88747952Y-64093590D02*
X88824142Y-64055495D01*
X88824142Y-64055495D02*
X89014618Y-64055495D01*
X89014618Y-64055495D02*
X89090809Y-64093590D01*
X89090809Y-64093590D02*
X89128904Y-64131685D01*
X89128904Y-64131685D02*
X89166999Y-64207876D01*
X89166999Y-64207876D02*
X89166999Y-64284066D01*
X89166999Y-64284066D02*
X89128904Y-64398352D01*
X89128904Y-64398352D02*
X88671761Y-64855495D01*
X88671761Y-64855495D02*
X89166999Y-64855495D01*
X89852714Y-64322161D02*
X89852714Y-64855495D01*
X89662238Y-64017400D02*
X89471761Y-64588828D01*
X89471761Y-64588828D02*
X89967000Y-64588828D01*
X90652714Y-64855495D02*
X90271762Y-64855495D01*
X90271762Y-64855495D02*
X90271762Y-64055495D01*
X91376524Y-64779304D02*
X91338428Y-64817400D01*
X91338428Y-64817400D02*
X91224143Y-64855495D01*
X91224143Y-64855495D02*
X91147952Y-64855495D01*
X91147952Y-64855495D02*
X91033666Y-64817400D01*
X91033666Y-64817400D02*
X90957476Y-64741209D01*
X90957476Y-64741209D02*
X90919381Y-64665019D01*
X90919381Y-64665019D02*
X90881285Y-64512638D01*
X90881285Y-64512638D02*
X90881285Y-64398352D01*
X90881285Y-64398352D02*
X90919381Y-64245971D01*
X90919381Y-64245971D02*
X90957476Y-64169780D01*
X90957476Y-64169780D02*
X91033666Y-64093590D01*
X91033666Y-64093590D02*
X91147952Y-64055495D01*
X91147952Y-64055495D02*
X91224143Y-64055495D01*
X91224143Y-64055495D02*
X91338428Y-64093590D01*
X91338428Y-64093590D02*
X91376524Y-64131685D01*
X92138428Y-64855495D02*
X91681285Y-64855495D01*
X91909857Y-64855495D02*
X91909857Y-64055495D01*
X91909857Y-64055495D02*
X91833666Y-64169780D01*
X91833666Y-64169780D02*
X91757476Y-64245971D01*
X91757476Y-64245971D02*
X91681285Y-64284066D01*
X92633667Y-64055495D02*
X92709857Y-64055495D01*
X92709857Y-64055495D02*
X92786048Y-64093590D01*
X92786048Y-64093590D02*
X92824143Y-64131685D01*
X92824143Y-64131685D02*
X92862238Y-64207876D01*
X92862238Y-64207876D02*
X92900333Y-64360257D01*
X92900333Y-64360257D02*
X92900333Y-64550733D01*
X92900333Y-64550733D02*
X92862238Y-64703114D01*
X92862238Y-64703114D02*
X92824143Y-64779304D01*
X92824143Y-64779304D02*
X92786048Y-64817400D01*
X92786048Y-64817400D02*
X92709857Y-64855495D01*
X92709857Y-64855495D02*
X92633667Y-64855495D01*
X92633667Y-64855495D02*
X92557476Y-64817400D01*
X92557476Y-64817400D02*
X92519381Y-64779304D01*
X92519381Y-64779304D02*
X92481286Y-64703114D01*
X92481286Y-64703114D02*
X92443190Y-64550733D01*
X92443190Y-64550733D02*
X92443190Y-64360257D01*
X92443190Y-64360257D02*
X92481286Y-64207876D01*
X92481286Y-64207876D02*
X92519381Y-64131685D01*
X92519381Y-64131685D02*
X92557476Y-64093590D01*
X92557476Y-64093590D02*
X92633667Y-64055495D01*
X93205095Y-64131685D02*
X93243191Y-64093590D01*
X93243191Y-64093590D02*
X93319381Y-64055495D01*
X93319381Y-64055495D02*
X93509857Y-64055495D01*
X93509857Y-64055495D02*
X93586048Y-64093590D01*
X93586048Y-64093590D02*
X93624143Y-64131685D01*
X93624143Y-64131685D02*
X93662238Y-64207876D01*
X93662238Y-64207876D02*
X93662238Y-64284066D01*
X93662238Y-64284066D02*
X93624143Y-64398352D01*
X93624143Y-64398352D02*
X93167000Y-64855495D01*
X93167000Y-64855495D02*
X93662238Y-64855495D01*
X94386048Y-64055495D02*
X94005096Y-64055495D01*
X94005096Y-64055495D02*
X93967000Y-64436447D01*
X93967000Y-64436447D02*
X94005096Y-64398352D01*
X94005096Y-64398352D02*
X94081286Y-64360257D01*
X94081286Y-64360257D02*
X94271762Y-64360257D01*
X94271762Y-64360257D02*
X94347953Y-64398352D01*
X94347953Y-64398352D02*
X94386048Y-64436447D01*
X94386048Y-64436447D02*
X94424143Y-64512638D01*
X94424143Y-64512638D02*
X94424143Y-64703114D01*
X94424143Y-64703114D02*
X94386048Y-64779304D01*
X94386048Y-64779304D02*
X94347953Y-64817400D01*
X94347953Y-64817400D02*
X94271762Y-64855495D01*
X94271762Y-64855495D02*
X94081286Y-64855495D01*
X94081286Y-64855495D02*
X94005096Y-64817400D01*
X94005096Y-64817400D02*
X93967000Y-64779304D01*
D11*
X122769333Y-67510819D02*
X122436000Y-67034628D01*
X122197905Y-67510819D02*
X122197905Y-66510819D01*
X122197905Y-66510819D02*
X122578857Y-66510819D01*
X122578857Y-66510819D02*
X122674095Y-66558438D01*
X122674095Y-66558438D02*
X122721714Y-66606057D01*
X122721714Y-66606057D02*
X122769333Y-66701295D01*
X122769333Y-66701295D02*
X122769333Y-66844152D01*
X122769333Y-66844152D02*
X122721714Y-66939390D01*
X122721714Y-66939390D02*
X122674095Y-66987009D01*
X122674095Y-66987009D02*
X122578857Y-67034628D01*
X122578857Y-67034628D02*
X122197905Y-67034628D01*
X123674095Y-66510819D02*
X123197905Y-66510819D01*
X123197905Y-66510819D02*
X123150286Y-66987009D01*
X123150286Y-66987009D02*
X123197905Y-66939390D01*
X123197905Y-66939390D02*
X123293143Y-66891771D01*
X123293143Y-66891771D02*
X123531238Y-66891771D01*
X123531238Y-66891771D02*
X123626476Y-66939390D01*
X123626476Y-66939390D02*
X123674095Y-66987009D01*
X123674095Y-66987009D02*
X123721714Y-67082247D01*
X123721714Y-67082247D02*
X123721714Y-67320342D01*
X123721714Y-67320342D02*
X123674095Y-67415580D01*
X123674095Y-67415580D02*
X123626476Y-67463200D01*
X123626476Y-67463200D02*
X123531238Y-67510819D01*
X123531238Y-67510819D02*
X123293143Y-67510819D01*
X123293143Y-67510819D02*
X123197905Y-67463200D01*
X123197905Y-67463200D02*
X123150286Y-67415580D01*
D10*
X118962928Y-68270895D02*
X119458166Y-68270895D01*
X119458166Y-68270895D02*
X119191500Y-68575657D01*
X119191500Y-68575657D02*
X119305785Y-68575657D01*
X119305785Y-68575657D02*
X119381976Y-68613752D01*
X119381976Y-68613752D02*
X119420071Y-68651847D01*
X119420071Y-68651847D02*
X119458166Y-68728038D01*
X119458166Y-68728038D02*
X119458166Y-68918514D01*
X119458166Y-68918514D02*
X119420071Y-68994704D01*
X119420071Y-68994704D02*
X119381976Y-69032800D01*
X119381976Y-69032800D02*
X119305785Y-69070895D01*
X119305785Y-69070895D02*
X119077214Y-69070895D01*
X119077214Y-69070895D02*
X119001023Y-69032800D01*
X119001023Y-69032800D02*
X118962928Y-68994704D01*
X119724833Y-68270895D02*
X120220071Y-68270895D01*
X120220071Y-68270895D02*
X119953405Y-68575657D01*
X119953405Y-68575657D02*
X120067690Y-68575657D01*
X120067690Y-68575657D02*
X120143881Y-68613752D01*
X120143881Y-68613752D02*
X120181976Y-68651847D01*
X120181976Y-68651847D02*
X120220071Y-68728038D01*
X120220071Y-68728038D02*
X120220071Y-68918514D01*
X120220071Y-68918514D02*
X120181976Y-68994704D01*
X120181976Y-68994704D02*
X120143881Y-69032800D01*
X120143881Y-69032800D02*
X120067690Y-69070895D01*
X120067690Y-69070895D02*
X119839119Y-69070895D01*
X119839119Y-69070895D02*
X119762928Y-69032800D01*
X119762928Y-69032800D02*
X119724833Y-68994704D01*
X120715310Y-68270895D02*
X120791500Y-68270895D01*
X120791500Y-68270895D02*
X120867691Y-68308990D01*
X120867691Y-68308990D02*
X120905786Y-68347085D01*
X120905786Y-68347085D02*
X120943881Y-68423276D01*
X120943881Y-68423276D02*
X120981976Y-68575657D01*
X120981976Y-68575657D02*
X120981976Y-68766133D01*
X120981976Y-68766133D02*
X120943881Y-68918514D01*
X120943881Y-68918514D02*
X120905786Y-68994704D01*
X120905786Y-68994704D02*
X120867691Y-69032800D01*
X120867691Y-69032800D02*
X120791500Y-69070895D01*
X120791500Y-69070895D02*
X120715310Y-69070895D01*
X120715310Y-69070895D02*
X120639119Y-69032800D01*
X120639119Y-69032800D02*
X120601024Y-68994704D01*
X120601024Y-68994704D02*
X120562929Y-68918514D01*
X120562929Y-68918514D02*
X120524833Y-68766133D01*
X120524833Y-68766133D02*
X120524833Y-68575657D01*
X120524833Y-68575657D02*
X120562929Y-68423276D01*
X120562929Y-68423276D02*
X120601024Y-68347085D01*
X120601024Y-68347085D02*
X120639119Y-68308990D01*
X120639119Y-68308990D02*
X120715310Y-68270895D01*
D11*
X97943333Y-76403580D02*
X97895714Y-76451200D01*
X97895714Y-76451200D02*
X97752857Y-76498819D01*
X97752857Y-76498819D02*
X97657619Y-76498819D01*
X97657619Y-76498819D02*
X97514762Y-76451200D01*
X97514762Y-76451200D02*
X97419524Y-76355961D01*
X97419524Y-76355961D02*
X97371905Y-76260723D01*
X97371905Y-76260723D02*
X97324286Y-76070247D01*
X97324286Y-76070247D02*
X97324286Y-75927390D01*
X97324286Y-75927390D02*
X97371905Y-75736914D01*
X97371905Y-75736914D02*
X97419524Y-75641676D01*
X97419524Y-75641676D02*
X97514762Y-75546438D01*
X97514762Y-75546438D02*
X97657619Y-75498819D01*
X97657619Y-75498819D02*
X97752857Y-75498819D01*
X97752857Y-75498819D02*
X97895714Y-75546438D01*
X97895714Y-75546438D02*
X97943333Y-75594057D01*
X98895714Y-76498819D02*
X98324286Y-76498819D01*
X98610000Y-76498819D02*
X98610000Y-75498819D01*
X98610000Y-75498819D02*
X98514762Y-75641676D01*
X98514762Y-75641676D02*
X98419524Y-75736914D01*
X98419524Y-75736914D02*
X98324286Y-75784533D01*
D10*
X96805913Y-79041485D02*
X96844009Y-79003390D01*
X96844009Y-79003390D02*
X96920199Y-78965295D01*
X96920199Y-78965295D02*
X97110675Y-78965295D01*
X97110675Y-78965295D02*
X97186866Y-79003390D01*
X97186866Y-79003390D02*
X97224961Y-79041485D01*
X97224961Y-79041485D02*
X97263056Y-79117676D01*
X97263056Y-79117676D02*
X97263056Y-79193866D01*
X97263056Y-79193866D02*
X97224961Y-79308152D01*
X97224961Y-79308152D02*
X96767818Y-79765295D01*
X96767818Y-79765295D02*
X97263056Y-79765295D01*
X97567818Y-79041485D02*
X97605914Y-79003390D01*
X97605914Y-79003390D02*
X97682104Y-78965295D01*
X97682104Y-78965295D02*
X97872580Y-78965295D01*
X97872580Y-78965295D02*
X97948771Y-79003390D01*
X97948771Y-79003390D02*
X97986866Y-79041485D01*
X97986866Y-79041485D02*
X98024961Y-79117676D01*
X98024961Y-79117676D02*
X98024961Y-79193866D01*
X98024961Y-79193866D02*
X97986866Y-79308152D01*
X97986866Y-79308152D02*
X97529723Y-79765295D01*
X97529723Y-79765295D02*
X98024961Y-79765295D01*
X98367819Y-79231961D02*
X98367819Y-80031961D01*
X98367819Y-79270057D02*
X98444009Y-79231961D01*
X98444009Y-79231961D02*
X98596390Y-79231961D01*
X98596390Y-79231961D02*
X98672581Y-79270057D01*
X98672581Y-79270057D02*
X98710676Y-79308152D01*
X98710676Y-79308152D02*
X98748771Y-79384342D01*
X98748771Y-79384342D02*
X98748771Y-79612914D01*
X98748771Y-79612914D02*
X98710676Y-79689104D01*
X98710676Y-79689104D02*
X98672581Y-79727200D01*
X98672581Y-79727200D02*
X98596390Y-79765295D01*
X98596390Y-79765295D02*
X98444009Y-79765295D01*
X98444009Y-79765295D02*
X98367819Y-79727200D01*
X99358295Y-79346247D02*
X99091629Y-79346247D01*
X99091629Y-79765295D02*
X99091629Y-78965295D01*
X99091629Y-78965295D02*
X99472581Y-78965295D01*
D11*
X124533066Y-69584219D02*
X124533066Y-70298504D01*
X124533066Y-70298504D02*
X124485447Y-70441361D01*
X124485447Y-70441361D02*
X124390209Y-70536600D01*
X124390209Y-70536600D02*
X124247352Y-70584219D01*
X124247352Y-70584219D02*
X124152114Y-70584219D01*
X125533066Y-70584219D02*
X124961638Y-70584219D01*
X125247352Y-70584219D02*
X125247352Y-69584219D01*
X125247352Y-69584219D02*
X125152114Y-69727076D01*
X125152114Y-69727076D02*
X125056876Y-69822314D01*
X125056876Y-69822314D02*
X124961638Y-69869933D01*
X115149333Y-65986819D02*
X114816000Y-65510628D01*
X114577905Y-65986819D02*
X114577905Y-64986819D01*
X114577905Y-64986819D02*
X114958857Y-64986819D01*
X114958857Y-64986819D02*
X115054095Y-65034438D01*
X115054095Y-65034438D02*
X115101714Y-65082057D01*
X115101714Y-65082057D02*
X115149333Y-65177295D01*
X115149333Y-65177295D02*
X115149333Y-65320152D01*
X115149333Y-65320152D02*
X115101714Y-65415390D01*
X115101714Y-65415390D02*
X115054095Y-65463009D01*
X115054095Y-65463009D02*
X114958857Y-65510628D01*
X114958857Y-65510628D02*
X114577905Y-65510628D01*
X115482667Y-64986819D02*
X116101714Y-64986819D01*
X116101714Y-64986819D02*
X115768381Y-65367771D01*
X115768381Y-65367771D02*
X115911238Y-65367771D01*
X115911238Y-65367771D02*
X116006476Y-65415390D01*
X116006476Y-65415390D02*
X116054095Y-65463009D01*
X116054095Y-65463009D02*
X116101714Y-65558247D01*
X116101714Y-65558247D02*
X116101714Y-65796342D01*
X116101714Y-65796342D02*
X116054095Y-65891580D01*
X116054095Y-65891580D02*
X116006476Y-65939200D01*
X116006476Y-65939200D02*
X115911238Y-65986819D01*
X115911238Y-65986819D02*
X115625524Y-65986819D01*
X115625524Y-65986819D02*
X115530286Y-65939200D01*
X115530286Y-65939200D02*
X115482667Y-65891580D01*
D10*
X115883118Y-69070895D02*
X115425975Y-69070895D01*
X115654547Y-69070895D02*
X115654547Y-68270895D01*
X115654547Y-68270895D02*
X115578356Y-68385180D01*
X115578356Y-68385180D02*
X115502166Y-68461371D01*
X115502166Y-68461371D02*
X115425975Y-68499466D01*
X116378357Y-68270895D02*
X116454547Y-68270895D01*
X116454547Y-68270895D02*
X116530738Y-68308990D01*
X116530738Y-68308990D02*
X116568833Y-68347085D01*
X116568833Y-68347085D02*
X116606928Y-68423276D01*
X116606928Y-68423276D02*
X116645023Y-68575657D01*
X116645023Y-68575657D02*
X116645023Y-68766133D01*
X116645023Y-68766133D02*
X116606928Y-68918514D01*
X116606928Y-68918514D02*
X116568833Y-68994704D01*
X116568833Y-68994704D02*
X116530738Y-69032800D01*
X116530738Y-69032800D02*
X116454547Y-69070895D01*
X116454547Y-69070895D02*
X116378357Y-69070895D01*
X116378357Y-69070895D02*
X116302166Y-69032800D01*
X116302166Y-69032800D02*
X116264071Y-68994704D01*
X116264071Y-68994704D02*
X116225976Y-68918514D01*
X116225976Y-68918514D02*
X116187880Y-68766133D01*
X116187880Y-68766133D02*
X116187880Y-68575657D01*
X116187880Y-68575657D02*
X116225976Y-68423276D01*
X116225976Y-68423276D02*
X116264071Y-68347085D01*
X116264071Y-68347085D02*
X116302166Y-68308990D01*
X116302166Y-68308990D02*
X116378357Y-68270895D01*
X116987881Y-69070895D02*
X116987881Y-68270895D01*
X117445024Y-69070895D02*
X117102166Y-68613752D01*
X117445024Y-68270895D02*
X116987881Y-68728038D01*
D11*
X87960295Y-78753619D02*
X87960295Y-79563142D01*
X87960295Y-79563142D02*
X88007914Y-79658380D01*
X88007914Y-79658380D02*
X88055533Y-79706000D01*
X88055533Y-79706000D02*
X88150771Y-79753619D01*
X88150771Y-79753619D02*
X88341247Y-79753619D01*
X88341247Y-79753619D02*
X88436485Y-79706000D01*
X88436485Y-79706000D02*
X88484104Y-79658380D01*
X88484104Y-79658380D02*
X88531723Y-79563142D01*
X88531723Y-79563142D02*
X88531723Y-78753619D01*
X88912676Y-78753619D02*
X89531723Y-78753619D01*
X89531723Y-78753619D02*
X89198390Y-79134571D01*
X89198390Y-79134571D02*
X89341247Y-79134571D01*
X89341247Y-79134571D02*
X89436485Y-79182190D01*
X89436485Y-79182190D02*
X89484104Y-79229809D01*
X89484104Y-79229809D02*
X89531723Y-79325047D01*
X89531723Y-79325047D02*
X89531723Y-79563142D01*
X89531723Y-79563142D02*
X89484104Y-79658380D01*
X89484104Y-79658380D02*
X89436485Y-79706000D01*
X89436485Y-79706000D02*
X89341247Y-79753619D01*
X89341247Y-79753619D02*
X89055533Y-79753619D01*
X89055533Y-79753619D02*
X88960295Y-79706000D01*
X88960295Y-79706000D02*
X88912676Y-79658380D01*
D10*
X89935399Y-79892295D02*
X89935399Y-79092295D01*
X89935399Y-79092295D02*
X90125875Y-79092295D01*
X90125875Y-79092295D02*
X90240161Y-79130390D01*
X90240161Y-79130390D02*
X90316351Y-79206580D01*
X90316351Y-79206580D02*
X90354446Y-79282771D01*
X90354446Y-79282771D02*
X90392542Y-79435152D01*
X90392542Y-79435152D02*
X90392542Y-79549438D01*
X90392542Y-79549438D02*
X90354446Y-79701819D01*
X90354446Y-79701819D02*
X90316351Y-79778009D01*
X90316351Y-79778009D02*
X90240161Y-79854200D01*
X90240161Y-79854200D02*
X90125875Y-79892295D01*
X90125875Y-79892295D02*
X89935399Y-79892295D01*
X90697303Y-79854200D02*
X90811589Y-79892295D01*
X90811589Y-79892295D02*
X91002065Y-79892295D01*
X91002065Y-79892295D02*
X91078256Y-79854200D01*
X91078256Y-79854200D02*
X91116351Y-79816104D01*
X91116351Y-79816104D02*
X91154446Y-79739914D01*
X91154446Y-79739914D02*
X91154446Y-79663723D01*
X91154446Y-79663723D02*
X91116351Y-79587533D01*
X91116351Y-79587533D02*
X91078256Y-79549438D01*
X91078256Y-79549438D02*
X91002065Y-79511342D01*
X91002065Y-79511342D02*
X90849684Y-79473247D01*
X90849684Y-79473247D02*
X90773494Y-79435152D01*
X90773494Y-79435152D02*
X90735399Y-79397057D01*
X90735399Y-79397057D02*
X90697303Y-79320866D01*
X90697303Y-79320866D02*
X90697303Y-79244676D01*
X90697303Y-79244676D02*
X90735399Y-79168485D01*
X90735399Y-79168485D02*
X90773494Y-79130390D01*
X90773494Y-79130390D02*
X90849684Y-79092295D01*
X90849684Y-79092295D02*
X91040161Y-79092295D01*
X91040161Y-79092295D02*
X91154446Y-79130390D01*
X91916351Y-79892295D02*
X91459208Y-79892295D01*
X91687780Y-79892295D02*
X91687780Y-79092295D01*
X91687780Y-79092295D02*
X91611589Y-79206580D01*
X91611589Y-79206580D02*
X91535399Y-79282771D01*
X91535399Y-79282771D02*
X91459208Y-79320866D01*
X92183018Y-79092295D02*
X92678256Y-79092295D01*
X92678256Y-79092295D02*
X92411590Y-79397057D01*
X92411590Y-79397057D02*
X92525875Y-79397057D01*
X92525875Y-79397057D02*
X92602066Y-79435152D01*
X92602066Y-79435152D02*
X92640161Y-79473247D01*
X92640161Y-79473247D02*
X92678256Y-79549438D01*
X92678256Y-79549438D02*
X92678256Y-79739914D01*
X92678256Y-79739914D02*
X92640161Y-79816104D01*
X92640161Y-79816104D02*
X92602066Y-79854200D01*
X92602066Y-79854200D02*
X92525875Y-79892295D01*
X92525875Y-79892295D02*
X92297304Y-79892295D01*
X92297304Y-79892295D02*
X92221113Y-79854200D01*
X92221113Y-79854200D02*
X92183018Y-79816104D01*
X92944923Y-79092295D02*
X93440161Y-79092295D01*
X93440161Y-79092295D02*
X93173495Y-79397057D01*
X93173495Y-79397057D02*
X93287780Y-79397057D01*
X93287780Y-79397057D02*
X93363971Y-79435152D01*
X93363971Y-79435152D02*
X93402066Y-79473247D01*
X93402066Y-79473247D02*
X93440161Y-79549438D01*
X93440161Y-79549438D02*
X93440161Y-79739914D01*
X93440161Y-79739914D02*
X93402066Y-79816104D01*
X93402066Y-79816104D02*
X93363971Y-79854200D01*
X93363971Y-79854200D02*
X93287780Y-79892295D01*
X93287780Y-79892295D02*
X93059209Y-79892295D01*
X93059209Y-79892295D02*
X92983018Y-79854200D01*
X92983018Y-79854200D02*
X92944923Y-79816104D01*
X93706828Y-79092295D02*
X94240162Y-79092295D01*
X94240162Y-79092295D02*
X93897304Y-79892295D01*
X94506828Y-79854200D02*
X94621114Y-79892295D01*
X94621114Y-79892295D02*
X94811590Y-79892295D01*
X94811590Y-79892295D02*
X94887781Y-79854200D01*
X94887781Y-79854200D02*
X94925876Y-79816104D01*
X94925876Y-79816104D02*
X94963971Y-79739914D01*
X94963971Y-79739914D02*
X94963971Y-79663723D01*
X94963971Y-79663723D02*
X94925876Y-79587533D01*
X94925876Y-79587533D02*
X94887781Y-79549438D01*
X94887781Y-79549438D02*
X94811590Y-79511342D01*
X94811590Y-79511342D02*
X94659209Y-79473247D01*
X94659209Y-79473247D02*
X94583019Y-79435152D01*
X94583019Y-79435152D02*
X94544924Y-79397057D01*
X94544924Y-79397057D02*
X94506828Y-79320866D01*
X94506828Y-79320866D02*
X94506828Y-79244676D01*
X94506828Y-79244676D02*
X94544924Y-79168485D01*
X94544924Y-79168485D02*
X94583019Y-79130390D01*
X94583019Y-79130390D02*
X94659209Y-79092295D01*
X94659209Y-79092295D02*
X94849686Y-79092295D01*
X94849686Y-79092295D02*
X94963971Y-79130390D01*
X95116353Y-79968485D02*
X95725876Y-79968485D01*
D11*
X110678933Y-69339619D02*
X110345600Y-68863428D01*
X110107505Y-69339619D02*
X110107505Y-68339619D01*
X110107505Y-68339619D02*
X110488457Y-68339619D01*
X110488457Y-68339619D02*
X110583695Y-68387238D01*
X110583695Y-68387238D02*
X110631314Y-68434857D01*
X110631314Y-68434857D02*
X110678933Y-68530095D01*
X110678933Y-68530095D02*
X110678933Y-68672952D01*
X110678933Y-68672952D02*
X110631314Y-68768190D01*
X110631314Y-68768190D02*
X110583695Y-68815809D01*
X110583695Y-68815809D02*
X110488457Y-68863428D01*
X110488457Y-68863428D02*
X110107505Y-68863428D01*
X111536076Y-68672952D02*
X111536076Y-69339619D01*
X111297981Y-68292000D02*
X111059886Y-69006285D01*
X111059886Y-69006285D02*
X111678933Y-69006285D01*
D10*
X111850928Y-68270895D02*
X112346166Y-68270895D01*
X112346166Y-68270895D02*
X112079500Y-68575657D01*
X112079500Y-68575657D02*
X112193785Y-68575657D01*
X112193785Y-68575657D02*
X112269976Y-68613752D01*
X112269976Y-68613752D02*
X112308071Y-68651847D01*
X112308071Y-68651847D02*
X112346166Y-68728038D01*
X112346166Y-68728038D02*
X112346166Y-68918514D01*
X112346166Y-68918514D02*
X112308071Y-68994704D01*
X112308071Y-68994704D02*
X112269976Y-69032800D01*
X112269976Y-69032800D02*
X112193785Y-69070895D01*
X112193785Y-69070895D02*
X111965214Y-69070895D01*
X111965214Y-69070895D02*
X111889023Y-69032800D01*
X111889023Y-69032800D02*
X111850928Y-68994704D01*
X112612833Y-68270895D02*
X113108071Y-68270895D01*
X113108071Y-68270895D02*
X112841405Y-68575657D01*
X112841405Y-68575657D02*
X112955690Y-68575657D01*
X112955690Y-68575657D02*
X113031881Y-68613752D01*
X113031881Y-68613752D02*
X113069976Y-68651847D01*
X113069976Y-68651847D02*
X113108071Y-68728038D01*
X113108071Y-68728038D02*
X113108071Y-68918514D01*
X113108071Y-68918514D02*
X113069976Y-68994704D01*
X113069976Y-68994704D02*
X113031881Y-69032800D01*
X113031881Y-69032800D02*
X112955690Y-69070895D01*
X112955690Y-69070895D02*
X112727119Y-69070895D01*
X112727119Y-69070895D02*
X112650928Y-69032800D01*
X112650928Y-69032800D02*
X112612833Y-68994704D01*
X113603310Y-68270895D02*
X113679500Y-68270895D01*
X113679500Y-68270895D02*
X113755691Y-68308990D01*
X113755691Y-68308990D02*
X113793786Y-68347085D01*
X113793786Y-68347085D02*
X113831881Y-68423276D01*
X113831881Y-68423276D02*
X113869976Y-68575657D01*
X113869976Y-68575657D02*
X113869976Y-68766133D01*
X113869976Y-68766133D02*
X113831881Y-68918514D01*
X113831881Y-68918514D02*
X113793786Y-68994704D01*
X113793786Y-68994704D02*
X113755691Y-69032800D01*
X113755691Y-69032800D02*
X113679500Y-69070895D01*
X113679500Y-69070895D02*
X113603310Y-69070895D01*
X113603310Y-69070895D02*
X113527119Y-69032800D01*
X113527119Y-69032800D02*
X113489024Y-68994704D01*
X113489024Y-68994704D02*
X113450929Y-68918514D01*
X113450929Y-68918514D02*
X113412833Y-68766133D01*
X113412833Y-68766133D02*
X113412833Y-68575657D01*
X113412833Y-68575657D02*
X113450929Y-68423276D01*
X113450929Y-68423276D02*
X113489024Y-68347085D01*
X113489024Y-68347085D02*
X113527119Y-68308990D01*
X113527119Y-68308990D02*
X113603310Y-68270895D01*
D11*
X95681895Y-64453419D02*
X95681895Y-65262942D01*
X95681895Y-65262942D02*
X95729514Y-65358180D01*
X95729514Y-65358180D02*
X95777133Y-65405800D01*
X95777133Y-65405800D02*
X95872371Y-65453419D01*
X95872371Y-65453419D02*
X96062847Y-65453419D01*
X96062847Y-65453419D02*
X96158085Y-65405800D01*
X96158085Y-65405800D02*
X96205704Y-65358180D01*
X96205704Y-65358180D02*
X96253323Y-65262942D01*
X96253323Y-65262942D02*
X96253323Y-64453419D01*
X96681895Y-64548657D02*
X96729514Y-64501038D01*
X96729514Y-64501038D02*
X96824752Y-64453419D01*
X96824752Y-64453419D02*
X97062847Y-64453419D01*
X97062847Y-64453419D02*
X97158085Y-64501038D01*
X97158085Y-64501038D02*
X97205704Y-64548657D01*
X97205704Y-64548657D02*
X97253323Y-64643895D01*
X97253323Y-64643895D02*
X97253323Y-64739133D01*
X97253323Y-64739133D02*
X97205704Y-64881990D01*
X97205704Y-64881990D02*
X96634276Y-65453419D01*
X96634276Y-65453419D02*
X97253323Y-65453419D01*
D10*
X89090856Y-71313085D02*
X89128952Y-71274990D01*
X89128952Y-71274990D02*
X89205142Y-71236895D01*
X89205142Y-71236895D02*
X89395618Y-71236895D01*
X89395618Y-71236895D02*
X89471809Y-71274990D01*
X89471809Y-71274990D02*
X89509904Y-71313085D01*
X89509904Y-71313085D02*
X89547999Y-71389276D01*
X89547999Y-71389276D02*
X89547999Y-71465466D01*
X89547999Y-71465466D02*
X89509904Y-71579752D01*
X89509904Y-71579752D02*
X89052761Y-72036895D01*
X89052761Y-72036895D02*
X89547999Y-72036895D01*
X90233714Y-71503561D02*
X90233714Y-72036895D01*
X90043238Y-71198800D02*
X89852761Y-71770228D01*
X89852761Y-71770228D02*
X90348000Y-71770228D01*
X91033714Y-72036895D02*
X90652762Y-72036895D01*
X90652762Y-72036895D02*
X90652762Y-71236895D01*
X91757524Y-71960704D02*
X91719428Y-71998800D01*
X91719428Y-71998800D02*
X91605143Y-72036895D01*
X91605143Y-72036895D02*
X91528952Y-72036895D01*
X91528952Y-72036895D02*
X91414666Y-71998800D01*
X91414666Y-71998800D02*
X91338476Y-71922609D01*
X91338476Y-71922609D02*
X91300381Y-71846419D01*
X91300381Y-71846419D02*
X91262285Y-71694038D01*
X91262285Y-71694038D02*
X91262285Y-71579752D01*
X91262285Y-71579752D02*
X91300381Y-71427371D01*
X91300381Y-71427371D02*
X91338476Y-71351180D01*
X91338476Y-71351180D02*
X91414666Y-71274990D01*
X91414666Y-71274990D02*
X91528952Y-71236895D01*
X91528952Y-71236895D02*
X91605143Y-71236895D01*
X91605143Y-71236895D02*
X91719428Y-71274990D01*
X91719428Y-71274990D02*
X91757524Y-71313085D01*
X92519428Y-72036895D02*
X92062285Y-72036895D01*
X92290857Y-72036895D02*
X92290857Y-71236895D01*
X92290857Y-71236895D02*
X92214666Y-71351180D01*
X92214666Y-71351180D02*
X92138476Y-71427371D01*
X92138476Y-71427371D02*
X92062285Y-71465466D01*
X93014667Y-71236895D02*
X93090857Y-71236895D01*
X93090857Y-71236895D02*
X93167048Y-71274990D01*
X93167048Y-71274990D02*
X93205143Y-71313085D01*
X93205143Y-71313085D02*
X93243238Y-71389276D01*
X93243238Y-71389276D02*
X93281333Y-71541657D01*
X93281333Y-71541657D02*
X93281333Y-71732133D01*
X93281333Y-71732133D02*
X93243238Y-71884514D01*
X93243238Y-71884514D02*
X93205143Y-71960704D01*
X93205143Y-71960704D02*
X93167048Y-71998800D01*
X93167048Y-71998800D02*
X93090857Y-72036895D01*
X93090857Y-72036895D02*
X93014667Y-72036895D01*
X93014667Y-72036895D02*
X92938476Y-71998800D01*
X92938476Y-71998800D02*
X92900381Y-71960704D01*
X92900381Y-71960704D02*
X92862286Y-71884514D01*
X92862286Y-71884514D02*
X92824190Y-71732133D01*
X92824190Y-71732133D02*
X92824190Y-71541657D01*
X92824190Y-71541657D02*
X92862286Y-71389276D01*
X92862286Y-71389276D02*
X92900381Y-71313085D01*
X92900381Y-71313085D02*
X92938476Y-71274990D01*
X92938476Y-71274990D02*
X93014667Y-71236895D01*
X93586095Y-71313085D02*
X93624191Y-71274990D01*
X93624191Y-71274990D02*
X93700381Y-71236895D01*
X93700381Y-71236895D02*
X93890857Y-71236895D01*
X93890857Y-71236895D02*
X93967048Y-71274990D01*
X93967048Y-71274990D02*
X94005143Y-71313085D01*
X94005143Y-71313085D02*
X94043238Y-71389276D01*
X94043238Y-71389276D02*
X94043238Y-71465466D01*
X94043238Y-71465466D02*
X94005143Y-71579752D01*
X94005143Y-71579752D02*
X93548000Y-72036895D01*
X93548000Y-72036895D02*
X94043238Y-72036895D01*
X94767048Y-71236895D02*
X94386096Y-71236895D01*
X94386096Y-71236895D02*
X94348000Y-71617847D01*
X94348000Y-71617847D02*
X94386096Y-71579752D01*
X94386096Y-71579752D02*
X94462286Y-71541657D01*
X94462286Y-71541657D02*
X94652762Y-71541657D01*
X94652762Y-71541657D02*
X94728953Y-71579752D01*
X94728953Y-71579752D02*
X94767048Y-71617847D01*
X94767048Y-71617847D02*
X94805143Y-71694038D01*
X94805143Y-71694038D02*
X94805143Y-71884514D01*
X94805143Y-71884514D02*
X94767048Y-71960704D01*
X94767048Y-71960704D02*
X94728953Y-71998800D01*
X94728953Y-71998800D02*
X94652762Y-72036895D01*
X94652762Y-72036895D02*
X94462286Y-72036895D01*
X94462286Y-72036895D02*
X94386096Y-71998800D01*
X94386096Y-71998800D02*
X94348000Y-71960704D01*
D11*
X104775095Y-61989619D02*
X104775095Y-62799142D01*
X104775095Y-62799142D02*
X104822714Y-62894380D01*
X104822714Y-62894380D02*
X104870333Y-62942000D01*
X104870333Y-62942000D02*
X104965571Y-62989619D01*
X104965571Y-62989619D02*
X105156047Y-62989619D01*
X105156047Y-62989619D02*
X105251285Y-62942000D01*
X105251285Y-62942000D02*
X105298904Y-62894380D01*
X105298904Y-62894380D02*
X105346523Y-62799142D01*
X105346523Y-62799142D02*
X105346523Y-61989619D01*
X106251285Y-62322952D02*
X106251285Y-62989619D01*
X106013190Y-61942000D02*
X105775095Y-62656285D01*
X105775095Y-62656285D02*
X106394142Y-62656285D01*
D10*
X102483256Y-57337123D02*
X102864209Y-57337123D01*
X102407066Y-57565695D02*
X102673733Y-56765695D01*
X102673733Y-56765695D02*
X102940399Y-57565695D01*
X103092780Y-56765695D02*
X103549923Y-56765695D01*
X103321351Y-57565695D02*
X103321351Y-56765695D01*
X103816590Y-57565695D02*
X103816590Y-56765695D01*
X103816590Y-56765695D02*
X104083256Y-57337123D01*
X104083256Y-57337123D02*
X104349923Y-56765695D01*
X104349923Y-56765695D02*
X104349923Y-57565695D01*
X104730876Y-57146647D02*
X104997542Y-57146647D01*
X105111828Y-57565695D02*
X104730876Y-57565695D01*
X104730876Y-57565695D02*
X104730876Y-56765695D01*
X104730876Y-56765695D02*
X105111828Y-56765695D01*
X105873733Y-56803790D02*
X105797543Y-56765695D01*
X105797543Y-56765695D02*
X105683257Y-56765695D01*
X105683257Y-56765695D02*
X105568971Y-56803790D01*
X105568971Y-56803790D02*
X105492781Y-56879980D01*
X105492781Y-56879980D02*
X105454686Y-56956171D01*
X105454686Y-56956171D02*
X105416590Y-57108552D01*
X105416590Y-57108552D02*
X105416590Y-57222838D01*
X105416590Y-57222838D02*
X105454686Y-57375219D01*
X105454686Y-57375219D02*
X105492781Y-57451409D01*
X105492781Y-57451409D02*
X105568971Y-57527600D01*
X105568971Y-57527600D02*
X105683257Y-57565695D01*
X105683257Y-57565695D02*
X105759448Y-57565695D01*
X105759448Y-57565695D02*
X105873733Y-57527600D01*
X105873733Y-57527600D02*
X105911829Y-57489504D01*
X105911829Y-57489504D02*
X105911829Y-57222838D01*
X105911829Y-57222838D02*
X105759448Y-57222838D01*
X106216590Y-57337123D02*
X106597543Y-57337123D01*
X106140400Y-57565695D02*
X106407067Y-56765695D01*
X106407067Y-56765695D02*
X106673733Y-57565695D01*
X106864209Y-56765695D02*
X107359447Y-56765695D01*
X107359447Y-56765695D02*
X107092781Y-57070457D01*
X107092781Y-57070457D02*
X107207066Y-57070457D01*
X107207066Y-57070457D02*
X107283257Y-57108552D01*
X107283257Y-57108552D02*
X107321352Y-57146647D01*
X107321352Y-57146647D02*
X107359447Y-57222838D01*
X107359447Y-57222838D02*
X107359447Y-57413314D01*
X107359447Y-57413314D02*
X107321352Y-57489504D01*
X107321352Y-57489504D02*
X107283257Y-57527600D01*
X107283257Y-57527600D02*
X107207066Y-57565695D01*
X107207066Y-57565695D02*
X106978495Y-57565695D01*
X106978495Y-57565695D02*
X106902304Y-57527600D01*
X106902304Y-57527600D02*
X106864209Y-57489504D01*
X107664209Y-56841885D02*
X107702305Y-56803790D01*
X107702305Y-56803790D02*
X107778495Y-56765695D01*
X107778495Y-56765695D02*
X107968971Y-56765695D01*
X107968971Y-56765695D02*
X108045162Y-56803790D01*
X108045162Y-56803790D02*
X108083257Y-56841885D01*
X108083257Y-56841885D02*
X108121352Y-56918076D01*
X108121352Y-56918076D02*
X108121352Y-56994266D01*
X108121352Y-56994266D02*
X108083257Y-57108552D01*
X108083257Y-57108552D02*
X107626114Y-57565695D01*
X107626114Y-57565695D02*
X108121352Y-57565695D01*
X108578495Y-57108552D02*
X108502305Y-57070457D01*
X108502305Y-57070457D02*
X108464210Y-57032361D01*
X108464210Y-57032361D02*
X108426114Y-56956171D01*
X108426114Y-56956171D02*
X108426114Y-56918076D01*
X108426114Y-56918076D02*
X108464210Y-56841885D01*
X108464210Y-56841885D02*
X108502305Y-56803790D01*
X108502305Y-56803790D02*
X108578495Y-56765695D01*
X108578495Y-56765695D02*
X108730876Y-56765695D01*
X108730876Y-56765695D02*
X108807067Y-56803790D01*
X108807067Y-56803790D02*
X108845162Y-56841885D01*
X108845162Y-56841885D02*
X108883257Y-56918076D01*
X108883257Y-56918076D02*
X108883257Y-56956171D01*
X108883257Y-56956171D02*
X108845162Y-57032361D01*
X108845162Y-57032361D02*
X108807067Y-57070457D01*
X108807067Y-57070457D02*
X108730876Y-57108552D01*
X108730876Y-57108552D02*
X108578495Y-57108552D01*
X108578495Y-57108552D02*
X108502305Y-57146647D01*
X108502305Y-57146647D02*
X108464210Y-57184742D01*
X108464210Y-57184742D02*
X108426114Y-57260933D01*
X108426114Y-57260933D02*
X108426114Y-57413314D01*
X108426114Y-57413314D02*
X108464210Y-57489504D01*
X108464210Y-57489504D02*
X108502305Y-57527600D01*
X108502305Y-57527600D02*
X108578495Y-57565695D01*
X108578495Y-57565695D02*
X108730876Y-57565695D01*
X108730876Y-57565695D02*
X108807067Y-57527600D01*
X108807067Y-57527600D02*
X108845162Y-57489504D01*
X108845162Y-57489504D02*
X108883257Y-57413314D01*
X108883257Y-57413314D02*
X108883257Y-57260933D01*
X108883257Y-57260933D02*
X108845162Y-57184742D01*
X108845162Y-57184742D02*
X108807067Y-57146647D01*
X108807067Y-57146647D02*
X108730876Y-57108552D01*
X109226115Y-57565695D02*
X109226115Y-56765695D01*
X109226115Y-56765695D02*
X109530877Y-56765695D01*
X109530877Y-56765695D02*
X109607067Y-56803790D01*
X109607067Y-56803790D02*
X109645162Y-56841885D01*
X109645162Y-56841885D02*
X109683258Y-56918076D01*
X109683258Y-56918076D02*
X109683258Y-57032361D01*
X109683258Y-57032361D02*
X109645162Y-57108552D01*
X109645162Y-57108552D02*
X109607067Y-57146647D01*
X109607067Y-57146647D02*
X109530877Y-57184742D01*
X109530877Y-57184742D02*
X109226115Y-57184742D01*
X110026115Y-57260933D02*
X110635639Y-57260933D01*
X110978495Y-57337123D02*
X111359448Y-57337123D01*
X110902305Y-57565695D02*
X111168972Y-56765695D01*
X111168972Y-56765695D02*
X111435638Y-57565695D01*
X111702305Y-56765695D02*
X111702305Y-57413314D01*
X111702305Y-57413314D02*
X111740400Y-57489504D01*
X111740400Y-57489504D02*
X111778495Y-57527600D01*
X111778495Y-57527600D02*
X111854686Y-57565695D01*
X111854686Y-57565695D02*
X112007067Y-57565695D01*
X112007067Y-57565695D02*
X112083257Y-57527600D01*
X112083257Y-57527600D02*
X112121352Y-57489504D01*
X112121352Y-57489504D02*
X112159448Y-57413314D01*
X112159448Y-57413314D02*
X112159448Y-56765695D01*
D11*
X131318095Y-83764819D02*
X131318095Y-82764819D01*
X131318095Y-83241009D02*
X131889523Y-83241009D01*
X131889523Y-83764819D02*
X131889523Y-82764819D01*
X132270476Y-82764819D02*
X132889523Y-82764819D01*
X132889523Y-82764819D02*
X132556190Y-83145771D01*
X132556190Y-83145771D02*
X132699047Y-83145771D01*
X132699047Y-83145771D02*
X132794285Y-83193390D01*
X132794285Y-83193390D02*
X132841904Y-83241009D01*
X132841904Y-83241009D02*
X132889523Y-83336247D01*
X132889523Y-83336247D02*
X132889523Y-83574342D01*
X132889523Y-83574342D02*
X132841904Y-83669580D01*
X132841904Y-83669580D02*
X132794285Y-83717200D01*
X132794285Y-83717200D02*
X132699047Y-83764819D01*
X132699047Y-83764819D02*
X132413333Y-83764819D01*
X132413333Y-83764819D02*
X132318095Y-83717200D01*
X132318095Y-83717200D02*
X132270476Y-83669580D01*
X83138228Y-67760790D02*
X83614419Y-67760790D01*
X82614419Y-68094123D02*
X83138228Y-67760790D01*
X83138228Y-67760790D02*
X82614419Y-67427457D01*
X83614419Y-66570314D02*
X83614419Y-67141742D01*
X83614419Y-66856028D02*
X82614419Y-66856028D01*
X82614419Y-66856028D02*
X82757276Y-66951266D01*
X82757276Y-66951266D02*
X82852514Y-67046504D01*
X82852514Y-67046504D02*
X82900133Y-67141742D01*
D10*
X86984895Y-68662381D02*
X86984895Y-69119524D01*
X86984895Y-68890952D02*
X86184895Y-68890952D01*
X86184895Y-68890952D02*
X86299180Y-68967143D01*
X86299180Y-68967143D02*
X86375371Y-69043333D01*
X86375371Y-69043333D02*
X86413466Y-69119524D01*
X86184895Y-67976666D02*
X86184895Y-68129047D01*
X86184895Y-68129047D02*
X86222990Y-68205238D01*
X86222990Y-68205238D02*
X86261085Y-68243333D01*
X86261085Y-68243333D02*
X86375371Y-68319523D01*
X86375371Y-68319523D02*
X86527752Y-68357619D01*
X86527752Y-68357619D02*
X86832514Y-68357619D01*
X86832514Y-68357619D02*
X86908704Y-68319523D01*
X86908704Y-68319523D02*
X86946800Y-68281428D01*
X86946800Y-68281428D02*
X86984895Y-68205238D01*
X86984895Y-68205238D02*
X86984895Y-68052857D01*
X86984895Y-68052857D02*
X86946800Y-67976666D01*
X86946800Y-67976666D02*
X86908704Y-67938571D01*
X86908704Y-67938571D02*
X86832514Y-67900476D01*
X86832514Y-67900476D02*
X86642038Y-67900476D01*
X86642038Y-67900476D02*
X86565847Y-67938571D01*
X86565847Y-67938571D02*
X86527752Y-67976666D01*
X86527752Y-67976666D02*
X86489657Y-68052857D01*
X86489657Y-68052857D02*
X86489657Y-68205238D01*
X86489657Y-68205238D02*
X86527752Y-68281428D01*
X86527752Y-68281428D02*
X86565847Y-68319523D01*
X86565847Y-68319523D02*
X86642038Y-68357619D01*
X86984895Y-67557618D02*
X86184895Y-67557618D01*
X86184895Y-67557618D02*
X86756323Y-67290952D01*
X86756323Y-67290952D02*
X86184895Y-67024285D01*
X86184895Y-67024285D02*
X86984895Y-67024285D01*
X86984895Y-66643332D02*
X86184895Y-66643332D01*
X86565847Y-66643332D02*
X86565847Y-66186189D01*
X86984895Y-66186189D02*
X86184895Y-66186189D01*
X86451561Y-65881428D02*
X86451561Y-65462380D01*
X86451561Y-65462380D02*
X86984895Y-65881428D01*
X86984895Y-65881428D02*
X86984895Y-65462380D01*
D11*
X80518095Y-53284819D02*
X80518095Y-52284819D01*
X80518095Y-52761009D02*
X81089523Y-52761009D01*
X81089523Y-53284819D02*
X81089523Y-52284819D01*
X82089523Y-53284819D02*
X81518095Y-53284819D01*
X81803809Y-53284819D02*
X81803809Y-52284819D01*
X81803809Y-52284819D02*
X81708571Y-52427676D01*
X81708571Y-52427676D02*
X81613333Y-52522914D01*
X81613333Y-52522914D02*
X81518095Y-52570533D01*
X131318095Y-53284819D02*
X131318095Y-52284819D01*
X131318095Y-52761009D02*
X131889523Y-52761009D01*
X131889523Y-53284819D02*
X131889523Y-52284819D01*
X132794285Y-52618152D02*
X132794285Y-53284819D01*
X132556190Y-52237200D02*
X132318095Y-52951485D01*
X132318095Y-52951485D02*
X132937142Y-52951485D01*
X105055333Y-76403580D02*
X105007714Y-76451200D01*
X105007714Y-76451200D02*
X104864857Y-76498819D01*
X104864857Y-76498819D02*
X104769619Y-76498819D01*
X104769619Y-76498819D02*
X104626762Y-76451200D01*
X104626762Y-76451200D02*
X104531524Y-76355961D01*
X104531524Y-76355961D02*
X104483905Y-76260723D01*
X104483905Y-76260723D02*
X104436286Y-76070247D01*
X104436286Y-76070247D02*
X104436286Y-75927390D01*
X104436286Y-75927390D02*
X104483905Y-75736914D01*
X104483905Y-75736914D02*
X104531524Y-75641676D01*
X104531524Y-75641676D02*
X104626762Y-75546438D01*
X104626762Y-75546438D02*
X104769619Y-75498819D01*
X104769619Y-75498819D02*
X104864857Y-75498819D01*
X104864857Y-75498819D02*
X105007714Y-75546438D01*
X105007714Y-75546438D02*
X105055333Y-75594057D01*
X105960095Y-75498819D02*
X105483905Y-75498819D01*
X105483905Y-75498819D02*
X105436286Y-75975009D01*
X105436286Y-75975009D02*
X105483905Y-75927390D01*
X105483905Y-75927390D02*
X105579143Y-75879771D01*
X105579143Y-75879771D02*
X105817238Y-75879771D01*
X105817238Y-75879771D02*
X105912476Y-75927390D01*
X105912476Y-75927390D02*
X105960095Y-75975009D01*
X105960095Y-75975009D02*
X106007714Y-76070247D01*
X106007714Y-76070247D02*
X106007714Y-76308342D01*
X106007714Y-76308342D02*
X105960095Y-76403580D01*
X105960095Y-76403580D02*
X105912476Y-76451200D01*
X105912476Y-76451200D02*
X105817238Y-76498819D01*
X105817238Y-76498819D02*
X105579143Y-76498819D01*
X105579143Y-76498819D02*
X105483905Y-76451200D01*
X105483905Y-76451200D02*
X105436286Y-76403580D01*
D10*
X104654504Y-79841495D02*
X104197361Y-79841495D01*
X104425933Y-79841495D02*
X104425933Y-79041495D01*
X104425933Y-79041495D02*
X104349742Y-79155780D01*
X104349742Y-79155780D02*
X104273552Y-79231971D01*
X104273552Y-79231971D02*
X104197361Y-79270066D01*
X105149743Y-79041495D02*
X105225933Y-79041495D01*
X105225933Y-79041495D02*
X105302124Y-79079590D01*
X105302124Y-79079590D02*
X105340219Y-79117685D01*
X105340219Y-79117685D02*
X105378314Y-79193876D01*
X105378314Y-79193876D02*
X105416409Y-79346257D01*
X105416409Y-79346257D02*
X105416409Y-79536733D01*
X105416409Y-79536733D02*
X105378314Y-79689114D01*
X105378314Y-79689114D02*
X105340219Y-79765304D01*
X105340219Y-79765304D02*
X105302124Y-79803400D01*
X105302124Y-79803400D02*
X105225933Y-79841495D01*
X105225933Y-79841495D02*
X105149743Y-79841495D01*
X105149743Y-79841495D02*
X105073552Y-79803400D01*
X105073552Y-79803400D02*
X105035457Y-79765304D01*
X105035457Y-79765304D02*
X104997362Y-79689114D01*
X104997362Y-79689114D02*
X104959266Y-79536733D01*
X104959266Y-79536733D02*
X104959266Y-79346257D01*
X104959266Y-79346257D02*
X104997362Y-79193876D01*
X104997362Y-79193876D02*
X105035457Y-79117685D01*
X105035457Y-79117685D02*
X105073552Y-79079590D01*
X105073552Y-79079590D02*
X105149743Y-79041495D01*
X105911648Y-79041495D02*
X105987838Y-79041495D01*
X105987838Y-79041495D02*
X106064029Y-79079590D01*
X106064029Y-79079590D02*
X106102124Y-79117685D01*
X106102124Y-79117685D02*
X106140219Y-79193876D01*
X106140219Y-79193876D02*
X106178314Y-79346257D01*
X106178314Y-79346257D02*
X106178314Y-79536733D01*
X106178314Y-79536733D02*
X106140219Y-79689114D01*
X106140219Y-79689114D02*
X106102124Y-79765304D01*
X106102124Y-79765304D02*
X106064029Y-79803400D01*
X106064029Y-79803400D02*
X105987838Y-79841495D01*
X105987838Y-79841495D02*
X105911648Y-79841495D01*
X105911648Y-79841495D02*
X105835457Y-79803400D01*
X105835457Y-79803400D02*
X105797362Y-79765304D01*
X105797362Y-79765304D02*
X105759267Y-79689114D01*
X105759267Y-79689114D02*
X105721171Y-79536733D01*
X105721171Y-79536733D02*
X105721171Y-79346257D01*
X105721171Y-79346257D02*
X105759267Y-79193876D01*
X105759267Y-79193876D02*
X105797362Y-79117685D01*
X105797362Y-79117685D02*
X105835457Y-79079590D01*
X105835457Y-79079590D02*
X105911648Y-79041495D01*
X106521172Y-79308161D02*
X106521172Y-79841495D01*
X106521172Y-79384352D02*
X106559267Y-79346257D01*
X106559267Y-79346257D02*
X106635457Y-79308161D01*
X106635457Y-79308161D02*
X106749743Y-79308161D01*
X106749743Y-79308161D02*
X106825934Y-79346257D01*
X106825934Y-79346257D02*
X106864029Y-79422447D01*
X106864029Y-79422447D02*
X106864029Y-79841495D01*
X107511648Y-79422447D02*
X107244982Y-79422447D01*
X107244982Y-79841495D02*
X107244982Y-79041495D01*
X107244982Y-79041495D02*
X107625934Y-79041495D01*
D11*
X101407933Y-76584980D02*
X101360314Y-76632600D01*
X101360314Y-76632600D02*
X101217457Y-76680219D01*
X101217457Y-76680219D02*
X101122219Y-76680219D01*
X101122219Y-76680219D02*
X100979362Y-76632600D01*
X100979362Y-76632600D02*
X100884124Y-76537361D01*
X100884124Y-76537361D02*
X100836505Y-76442123D01*
X100836505Y-76442123D02*
X100788886Y-76251647D01*
X100788886Y-76251647D02*
X100788886Y-76108790D01*
X100788886Y-76108790D02*
X100836505Y-75918314D01*
X100836505Y-75918314D02*
X100884124Y-75823076D01*
X100884124Y-75823076D02*
X100979362Y-75727838D01*
X100979362Y-75727838D02*
X101122219Y-75680219D01*
X101122219Y-75680219D02*
X101217457Y-75680219D01*
X101217457Y-75680219D02*
X101360314Y-75727838D01*
X101360314Y-75727838D02*
X101407933Y-75775457D01*
X101741267Y-75680219D02*
X102360314Y-75680219D01*
X102360314Y-75680219D02*
X102026981Y-76061171D01*
X102026981Y-76061171D02*
X102169838Y-76061171D01*
X102169838Y-76061171D02*
X102265076Y-76108790D01*
X102265076Y-76108790D02*
X102312695Y-76156409D01*
X102312695Y-76156409D02*
X102360314Y-76251647D01*
X102360314Y-76251647D02*
X102360314Y-76489742D01*
X102360314Y-76489742D02*
X102312695Y-76584980D01*
X102312695Y-76584980D02*
X102265076Y-76632600D01*
X102265076Y-76632600D02*
X102169838Y-76680219D01*
X102169838Y-76680219D02*
X101884124Y-76680219D01*
X101884124Y-76680219D02*
X101788886Y-76632600D01*
X101788886Y-76632600D02*
X101741267Y-76584980D01*
D10*
X100184152Y-79092295D02*
X100260342Y-79092295D01*
X100260342Y-79092295D02*
X100336533Y-79130390D01*
X100336533Y-79130390D02*
X100374628Y-79168485D01*
X100374628Y-79168485D02*
X100412723Y-79244676D01*
X100412723Y-79244676D02*
X100450818Y-79397057D01*
X100450818Y-79397057D02*
X100450818Y-79587533D01*
X100450818Y-79587533D02*
X100412723Y-79739914D01*
X100412723Y-79739914D02*
X100374628Y-79816104D01*
X100374628Y-79816104D02*
X100336533Y-79854200D01*
X100336533Y-79854200D02*
X100260342Y-79892295D01*
X100260342Y-79892295D02*
X100184152Y-79892295D01*
X100184152Y-79892295D02*
X100107961Y-79854200D01*
X100107961Y-79854200D02*
X100069866Y-79816104D01*
X100069866Y-79816104D02*
X100031771Y-79739914D01*
X100031771Y-79739914D02*
X99993675Y-79587533D01*
X99993675Y-79587533D02*
X99993675Y-79397057D01*
X99993675Y-79397057D02*
X100031771Y-79244676D01*
X100031771Y-79244676D02*
X100069866Y-79168485D01*
X100069866Y-79168485D02*
X100107961Y-79130390D01*
X100107961Y-79130390D02*
X100184152Y-79092295D01*
X100793676Y-79816104D02*
X100831771Y-79854200D01*
X100831771Y-79854200D02*
X100793676Y-79892295D01*
X100793676Y-79892295D02*
X100755580Y-79854200D01*
X100755580Y-79854200D02*
X100793676Y-79816104D01*
X100793676Y-79816104D02*
X100793676Y-79892295D01*
X101593675Y-79892295D02*
X101136532Y-79892295D01*
X101365104Y-79892295D02*
X101365104Y-79092295D01*
X101365104Y-79092295D02*
X101288913Y-79206580D01*
X101288913Y-79206580D02*
X101212723Y-79282771D01*
X101212723Y-79282771D02*
X101136532Y-79320866D01*
X102888914Y-79358961D02*
X102888914Y-79892295D01*
X102546057Y-79358961D02*
X102546057Y-79778009D01*
X102546057Y-79778009D02*
X102584152Y-79854200D01*
X102584152Y-79854200D02*
X102660342Y-79892295D01*
X102660342Y-79892295D02*
X102774628Y-79892295D01*
X102774628Y-79892295D02*
X102850819Y-79854200D01*
X102850819Y-79854200D02*
X102888914Y-79816104D01*
X103536533Y-79473247D02*
X103269867Y-79473247D01*
X103269867Y-79892295D02*
X103269867Y-79092295D01*
X103269867Y-79092295D02*
X103650819Y-79092295D01*
D11*
X125218866Y-59373419D02*
X125218866Y-60087704D01*
X125218866Y-60087704D02*
X125171247Y-60230561D01*
X125171247Y-60230561D02*
X125076009Y-60325800D01*
X125076009Y-60325800D02*
X124933152Y-60373419D01*
X124933152Y-60373419D02*
X124837914Y-60373419D01*
X126123628Y-59706752D02*
X126123628Y-60373419D01*
X125885533Y-59325800D02*
X125647438Y-60040085D01*
X125647438Y-60040085D02*
X126266485Y-60040085D01*
%TO.C,J3*%
D12*
X87520000Y-85200000D02*
X87520000Y-83820000D01*
X88900000Y-85200000D02*
X87520000Y-85200000D01*
X90170000Y-82440000D02*
X110600000Y-82440000D01*
X90170000Y-85200000D02*
X90170000Y-82440000D01*
X90170000Y-85200000D02*
X110600000Y-85200000D01*
X110600000Y-85200000D02*
X110600000Y-82440000D01*
%TO.C,BT1*%
X82440000Y-73550000D02*
X83820000Y-73550000D01*
X82440000Y-74930000D02*
X82440000Y-73550000D01*
X82440000Y-76200000D02*
X82440000Y-78850000D01*
X82440000Y-76200000D02*
X85200000Y-76200000D01*
X82440000Y-78850000D02*
X85200000Y-78850000D01*
X85200000Y-76200000D02*
X85200000Y-78850000D01*
%TO.C,D1*%
X116172500Y-63952000D02*
X118857500Y-63952000D01*
X118857500Y-62032000D02*
X116172500Y-62032000D01*
X118857500Y-63952000D02*
X118857500Y-62032000D01*
%TO.C,R1*%
X98325000Y-68195564D02*
X98325000Y-67741436D01*
X99795000Y-68195564D02*
X99795000Y-67741436D01*
%TO.C,R7*%
X114176436Y-76989000D02*
X114630564Y-76989000D01*
X114176436Y-78459000D02*
X114630564Y-78459000D01*
%TO.C,D2*%
X119982500Y-63952000D02*
X122667500Y-63952000D01*
X122667500Y-62032000D02*
X119982500Y-62032000D01*
X122667500Y-63952000D02*
X122667500Y-62032000D01*
%TO.C,C2*%
X112580748Y-62257000D02*
X113103252Y-62257000D01*
X112580748Y-63727000D02*
X113103252Y-63727000D01*
%TO.C,R2*%
X98325000Y-71958564D02*
X98325000Y-71504436D01*
X99795000Y-71958564D02*
X99795000Y-71504436D01*
%TO.C,R6*%
X114072936Y-71909000D02*
X114527064Y-71909000D01*
X114072936Y-73379000D02*
X114527064Y-73379000D01*
%TO.C,C4*%
X109466748Y-76989000D02*
X109989252Y-76989000D01*
X109466748Y-78459000D02*
X109989252Y-78459000D01*
%TO.C,Y2*%
X101502000Y-70276000D02*
X101502000Y-73996000D01*
X101502000Y-73996000D02*
X108872000Y-73996000D01*
X108872000Y-70276000D02*
X101502000Y-70276000D01*
%TO.C,J2*%
X114190000Y-85200000D02*
X114190000Y-83820000D01*
X115570000Y-85200000D02*
X114190000Y-85200000D01*
X116840000Y-82440000D02*
X124570000Y-82440000D01*
X116840000Y-85200000D02*
X116840000Y-82440000D01*
X116840000Y-85200000D02*
X124570000Y-85200000D01*
X124570000Y-85200000D02*
X124570000Y-82440000D01*
%TO.C,U1*%
X89188000Y-57692000D02*
X94708000Y-57692000D01*
X89188000Y-57962000D02*
X89188000Y-57692000D01*
X89188000Y-63212000D02*
X89188000Y-62942000D01*
X94708000Y-57692000D02*
X94708000Y-57962000D01*
X94708000Y-62942000D02*
X94708000Y-63212000D01*
X94708000Y-63212000D02*
X89188000Y-63212000D01*
X88358000Y-57952000D02*
X88018000Y-57482000D01*
X88698000Y-57482000D01*
X88358000Y-57952000D01*
G36*
X88358000Y-57952000D02*
G01*
X88018000Y-57482000D01*
X88698000Y-57482000D01*
X88358000Y-57952000D01*
G37*
%TO.C,R5*%
X119764436Y-66321000D02*
X120218564Y-66321000D01*
X119764436Y-67791000D02*
X120218564Y-67791000D01*
%TO.C,C1*%
X97848748Y-76989000D02*
X98371252Y-76989000D01*
X97848748Y-78459000D02*
X98371252Y-78459000D01*
%TO.C,J1*%
X126128000Y-70248000D02*
X127508000Y-70248000D01*
X126128000Y-71628000D02*
X126128000Y-70248000D01*
X126128000Y-72898000D02*
X126128000Y-80628000D01*
X126128000Y-72898000D02*
X128888000Y-72898000D01*
X126128000Y-80628000D02*
X128888000Y-80628000D01*
X128888000Y-72898000D02*
X128888000Y-80628000D01*
%TO.C,R3*%
X116208436Y-66321000D02*
X116662564Y-66321000D01*
X116208436Y-67791000D02*
X116662564Y-67791000D01*
%TO.C,U3*%
D13*
X89440000Y-73172000D02*
X93440000Y-73172000D01*
X89440000Y-78212000D02*
X93440000Y-78212000D01*
D14*
X87095000Y-73197000D02*
G75*
G02*
X86895000Y-73197000I-100000J0D01*
G01*
X86895000Y-73197000D02*
G75*
G02*
X87095000Y-73197000I100000J0D01*
G01*
%TO.C,R4*%
D12*
X112652436Y-66321000D02*
X113106564Y-66321000D01*
X112652436Y-67791000D02*
X113106564Y-67791000D01*
%TO.C,U2*%
X89188000Y-65312000D02*
X94708000Y-65312000D01*
X89188000Y-65582000D02*
X89188000Y-65312000D01*
X89188000Y-70832000D02*
X89188000Y-70562000D01*
X94708000Y-65312000D02*
X94708000Y-65582000D01*
X94708000Y-70562000D02*
X94708000Y-70832000D01*
X94708000Y-70832000D02*
X89188000Y-70832000D01*
X88358000Y-65572000D02*
X88018000Y-65102000D01*
X88698000Y-65102000D01*
X88358000Y-65572000D01*
G36*
X88358000Y-65572000D02*
G01*
X88018000Y-65102000D01*
X88698000Y-65102000D01*
X88358000Y-65572000D01*
G37*
%TO.C,U4*%
D13*
X102164000Y-59492000D02*
X102164000Y-59597000D01*
X102164000Y-59492000D02*
X102269000Y-59492000D01*
X102164000Y-66492000D02*
X102164000Y-66387000D01*
X102164000Y-66492000D02*
X102269000Y-66492000D01*
X109164000Y-59492000D02*
X109059000Y-59492000D01*
X109164000Y-59492000D02*
X109164000Y-59597000D01*
X109164000Y-66492000D02*
X109059000Y-66492000D01*
X109164000Y-66492000D02*
X109164000Y-66387000D01*
D14*
X99924000Y-60192000D02*
G75*
G02*
X99724000Y-60192000I-100000J0D01*
G01*
X99724000Y-60192000D02*
G75*
G02*
X99924000Y-60192000I100000J0D01*
G01*
%TO.C,Y1*%
D12*
X81960000Y-64550000D02*
X81960000Y-71920000D01*
X81960000Y-71920000D02*
X85680000Y-71920000D01*
X85680000Y-71920000D02*
X85680000Y-64550000D01*
%TO.C,C5*%
X104960748Y-76989000D02*
X105483252Y-76989000D01*
X104960748Y-78459000D02*
X105483252Y-78459000D01*
%TO.C,C3*%
X101404748Y-76989000D02*
X101927252Y-76989000D01*
X101404748Y-78459000D02*
X101927252Y-78459000D01*
%TO.C,J4*%
X124604000Y-61104000D02*
X125984000Y-61104000D01*
X124604000Y-62484000D02*
X124604000Y-61104000D01*
X124604000Y-63754000D02*
X124604000Y-68944000D01*
X124604000Y-63754000D02*
X127254000Y-63754000D01*
X124604000Y-68944000D02*
X129904000Y-68944000D01*
X127254000Y-61104000D02*
X129904000Y-61104000D01*
X127254000Y-63754000D02*
X127254000Y-61104000D01*
X129904000Y-61104000D02*
X129904000Y-68944000D01*
%TD*%
M02*
