M48
; DRILL file KiCad 10.0.1 date 2026-07-27T21:54:12
; FORMAT={-:-/ absolute / inch / decimal}
; #@! TF.CreationDate,2026-07-27T21:54:12+01:00
; #@! TF.GenerationSoftware,Kicad,Pcbnew,10.0.1
; #@! TF.FileFunction,Plated,1,4,PTH
FMAT,2
INCH
; #@! TA.AperFunction,Plated,PTH,ViaDrill
T1C0.0118
; #@! TA.AperFunction,Plated,PTH,ComponentDrill
T2C0.0394
%
G90
G05
T1
X3.392Y-3.002
X3.4283Y-3.102
X3.4568Y-2.824
X3.485Y-3.1
X3.497Y-3.22
X3.543Y-2.455
X3.5509Y-2.9908
X3.5744Y-3.019
X3.592Y-2.8004
X3.6098Y-2.4578
X3.6214Y-3.1042
X3.644Y-2.649
X3.677Y-2.5814
X3.6847Y-2.6797
X3.703Y-2.736
X3.704Y-2.777
X3.742Y-2.512
X3.748Y-2.955
X3.7543Y-2.7943
X3.7559Y-3.0142
X3.7708Y-2.9767
X3.773Y-2.898
X3.7774Y-2.6375
X3.7802Y-2.8352
X3.791Y-3.1
X3.7972Y-2.9446
X3.8106Y-2.4926
X3.815Y-3.215
X3.8444Y-2.878
X3.857Y-2.921
X3.8602Y-2.785
X3.8627Y-2.6073
X3.8859Y-2.3839
X3.8902Y-3.153
X3.9472Y-2.9796
X3.9486Y-2.7119
X3.9487Y-3.0145
X3.953Y-3.171
X4.0Y-2.285
X4.0Y-2.645
X4.0444Y-2.3644
X4.0444Y-2.5671
X4.0479Y-3.005
X4.0494Y-2.4873
X4.097Y-3.172
X4.147Y-2.382
X4.158Y-2.492
X4.171Y-3.004
X4.1911Y-3.2021
X4.2024Y-2.4586
X4.203Y-2.3584
X4.2378Y-3.2712
X4.255Y-3.197
X4.262Y-2.501
X4.263Y-2.586
X4.2756Y-2.5317
X4.282Y-3.1808
X4.305Y-2.672
X4.3413Y-2.622
X4.3694Y-2.8576
X4.4165Y-2.6036
X4.4638Y-2.58
X4.464Y-2.689
X4.487Y-2.976
X4.5199Y-2.8133
X4.5328Y-3.2162
X4.566Y-2.545
X4.5767Y-2.9393
X4.686Y-2.718
X4.6863Y-2.5533
X4.802Y-2.5836
X4.803Y-2.5364
X4.814Y-2.6557
X4.827Y-2.6028
X4.862Y-2.6557
X4.896Y-2.663
X4.9837Y-2.7337
X5.0974Y-3.004
T2
X3.3Y-2.95
X3.3Y-3.05
X3.5Y-3.3
X3.6Y-3.3
X3.7Y-3.3
X3.8Y-3.3
X3.9Y-3.3
X4.0Y-3.3
X4.1Y-3.3
X4.2Y-3.3
X4.3Y-3.3
X4.55Y-3.3
X4.65Y-3.3
X4.75Y-3.3
X4.85Y-3.3
X4.96Y-2.46
X4.96Y-2.56
X4.96Y-2.66
X5.02Y-2.82
X5.02Y-2.92
X5.02Y-3.02
X5.02Y-3.12
X5.06Y-2.46
X5.06Y-2.56
X5.06Y-2.66
M30
