%TF.GenerationSoftware,KiCad,Pcbnew,10.0.1*%
%TF.CreationDate,2026-07-27T21:53:35+01:00*%
%TF.ProjectId,MCU Datalogger,4d435520-4461-4746-916c-6f676765722e,rev?*%
%TF.SameCoordinates,Original*%
%TF.FileFunction,Soldermask,Top*%
%TF.FilePolarity,Negative*%
%FSLAX46Y46*%
G04 Gerber Fmt 4.6, Leading zero omitted, Abs format (unit mm)*
G04 Created by KiCad (PCBNEW 10.0.1) date 2026-07-27 21:53:35*
%MOMM*%
%LPD*%
G01*
G04 APERTURE LIST*
G04 Aperture macros list*
%AMRoundRect*
0 Rectangle with rounded corners*
0 $1 Rounding radius*
0 $2 $3 $4 $5 $6 $7 $8 $9 X,Y pos of 4 corners*
0 Add a 4 corners polygon primitive as box body*
4,1,4,$2,$3,$4,$5,$6,$7,$8,$9,$2,$3,0*
0 Add four circle primitives for the rounded corners*
1,1,$1+$1,$2,$3*
1,1,$1+$1,$4,$5*
1,1,$1+$1,$6,$7*
1,1,$1+$1,$8,$9*
0 Add four rect primitives between the rounded corners*
20,1,$1+$1,$2,$3,$4,$5,0*
20,1,$1+$1,$4,$5,$6,$7,0*
20,1,$1+$1,$6,$7,$8,$9,0*
20,1,$1+$1,$8,$9,$2,$3,0*%
G04 Aperture macros list end*
%ADD10R,1.700000X1.700000*%
%ADD11C,1.700000*%
%ADD12RoundRect,0.243750X0.243750X0.456250X-0.243750X0.456250X-0.243750X-0.456250X0.243750X-0.456250X0*%
%ADD13RoundRect,0.250000X0.450000X-0.262500X0.450000X0.262500X-0.450000X0.262500X-0.450000X-0.262500X0*%
%ADD14RoundRect,0.250000X-0.262500X-0.450000X0.262500X-0.450000X0.262500X0.450000X-0.262500X0.450000X0*%
%ADD15RoundRect,0.250000X-0.250000X-0.475000X0.250000X-0.475000X0.250000X0.475000X-0.250000X0.475000X0*%
%ADD16C,2.100000*%
%ADD17RoundRect,0.250001X-1.499999X-0.949999X1.499999X-0.949999X1.499999X0.949999X-1.499999X0.949999X0*%
%ADD18RoundRect,0.162500X-0.650000X-0.162500X0.650000X-0.162500X0.650000X0.162500X-0.650000X0.162500X0*%
%ADD19RoundRect,0.099250X-0.987750X-0.297750X0.987750X-0.297750X0.987750X0.297750X-0.987750X0.297750X0*%
%ADD20RoundRect,0.094250X-0.742750X-0.282750X0.742750X-0.282750X0.742750X0.282750X-0.742750X0.282750X0*%
%ADD21RoundRect,0.094250X-0.282750X-0.742750X0.282750X-0.742750X0.282750X0.742750X-0.282750X0.742750X0*%
%ADD22RoundRect,0.250001X0.949999X-1.499999X0.949999X1.499999X-0.949999X1.499999X-0.949999X-1.499999X0*%
G04 APERTURE END LIST*
D10*
%TO.C,J3*%
X88900000Y-83820000D03*
D11*
X91440000Y-83820000D03*
X93980000Y-83820000D03*
X96520000Y-83820000D03*
X99060000Y-83820000D03*
X101600000Y-83820000D03*
X104140000Y-83820000D03*
X106680000Y-83820000D03*
X109220000Y-83820000D03*
%TD*%
D10*
%TO.C,BT1*%
X83820000Y-74930000D03*
D11*
X83820000Y-77470000D03*
%TD*%
D12*
%TO.C,D1*%
X118110000Y-62992000D03*
X116235000Y-62992000D03*
%TD*%
D13*
%TO.C,R1*%
X99060000Y-68881000D03*
X99060000Y-67056000D03*
%TD*%
D14*
%TO.C,R7*%
X113491000Y-77724000D03*
X115316000Y-77724000D03*
%TD*%
D12*
%TO.C,D2*%
X121920000Y-62992000D03*
X120045000Y-62992000D03*
%TD*%
D15*
%TO.C,C2*%
X111892000Y-62992000D03*
X113792000Y-62992000D03*
%TD*%
D13*
%TO.C,R2*%
X99060000Y-72644000D03*
X99060000Y-70819000D03*
%TD*%
D14*
%TO.C,R6*%
X113387500Y-72644000D03*
X115212500Y-72644000D03*
%TD*%
D15*
%TO.C,C4*%
X108778000Y-77724000D03*
X110678000Y-77724000D03*
%TD*%
D16*
%TO.C,H2*%
X81280000Y-86360000D03*
%TD*%
D17*
%TO.C,Y2*%
X103512000Y-72136000D03*
X108712000Y-72136000D03*
%TD*%
D10*
%TO.C,J2*%
X115570000Y-83820000D03*
D11*
X118110000Y-83820000D03*
X120650000Y-83820000D03*
X123190000Y-83820000D03*
%TD*%
D18*
%TO.C,U1*%
X88360500Y-58547000D03*
X88360500Y-59817000D03*
X88360500Y-61087000D03*
X88360500Y-62357000D03*
X95535500Y-62357000D03*
X95535500Y-61087000D03*
X95535500Y-59817000D03*
X95535500Y-58547000D03*
%TD*%
D14*
%TO.C,R5*%
X119079000Y-67056000D03*
X120904000Y-67056000D03*
%TD*%
D15*
%TO.C,C1*%
X97160000Y-77724000D03*
X99060000Y-77724000D03*
%TD*%
D10*
%TO.C,J1*%
X127508000Y-71628000D03*
D11*
X127508000Y-74168000D03*
X127508000Y-76708000D03*
X127508000Y-79248000D03*
%TD*%
D14*
%TO.C,R3*%
X115523000Y-67056000D03*
X117348000Y-67056000D03*
%TD*%
D19*
%TO.C,U3*%
X88965000Y-73787000D03*
X88965000Y-75057000D03*
X88965000Y-76327000D03*
X88965000Y-77597000D03*
X93915000Y-77597000D03*
X93915000Y-76327000D03*
X93915000Y-75057000D03*
X93915000Y-73787000D03*
%TD*%
D14*
%TO.C,R4*%
X111967000Y-67056000D03*
X113792000Y-67056000D03*
%TD*%
D18*
%TO.C,U2*%
X88360500Y-66167000D03*
X88360500Y-67437000D03*
X88360500Y-68707000D03*
X88360500Y-69977000D03*
X95535500Y-69977000D03*
X95535500Y-68707000D03*
X95535500Y-67437000D03*
X95535500Y-66167000D03*
%TD*%
D20*
%TO.C,U4*%
X101494000Y-60192000D03*
X101494000Y-60992000D03*
X101494000Y-61792000D03*
X101494000Y-62592000D03*
X101494000Y-63392000D03*
X101494000Y-64192000D03*
X101494000Y-64992000D03*
X101494000Y-65792000D03*
D21*
X102864000Y-67162000D03*
X103664000Y-67162000D03*
X104464000Y-67162000D03*
X105264000Y-67162000D03*
X106064000Y-67162000D03*
X106864000Y-67162000D03*
X107664000Y-67162000D03*
X108464000Y-67162000D03*
D20*
X109834000Y-65792000D03*
X109834000Y-64992000D03*
X109834000Y-64192000D03*
X109834000Y-63392000D03*
X109834000Y-62592000D03*
X109834000Y-61792000D03*
X109834000Y-60992000D03*
X109834000Y-60192000D03*
D21*
X108464000Y-58822000D03*
X107664000Y-58822000D03*
X106864000Y-58822000D03*
X106064000Y-58822000D03*
X105264000Y-58822000D03*
X104464000Y-58822000D03*
X103664000Y-58822000D03*
X102864000Y-58822000D03*
%TD*%
D16*
%TO.C,H3*%
X132080000Y-86360000D03*
%TD*%
D22*
%TO.C,Y1*%
X83820000Y-69910000D03*
X83820000Y-64710000D03*
%TD*%
D16*
%TO.C,H1*%
X81280000Y-55880000D03*
%TD*%
%TO.C,H4*%
X132080000Y-55880000D03*
%TD*%
D15*
%TO.C,C5*%
X104272000Y-77724000D03*
X106172000Y-77724000D03*
%TD*%
%TO.C,C3*%
X100716000Y-77724000D03*
X102616000Y-77724000D03*
%TD*%
D10*
%TO.C,J4*%
X125984000Y-62484000D03*
D11*
X128524000Y-62484000D03*
X125984000Y-65024000D03*
X128524000Y-65024000D03*
X125984000Y-67564000D03*
X128524000Y-67564000D03*
%TD*%
M02*
