%TF.GenerationSoftware,KiCad,Pcbnew,10.0.1*%
%TF.CreationDate,2026-07-27T21:53:35+01:00*%
%TF.ProjectId,MCU Datalogger,4d435520-4461-4746-916c-6f676765722e,rev?*%
%TF.SameCoordinates,Original*%
%TF.FileFunction,Copper,L1,Top*%
%TF.FilePolarity,Positive*%
%FSLAX46Y46*%
G04 Gerber Fmt 4.6, Leading zero omitted, Abs format (unit mm)*
G04 Created by KiCad (PCBNEW 10.0.1) date 2026-07-27 21:53:35*
%MOMM*%
%LPD*%
G01*
G04 APERTURE LIST*
G04 Aperture macros list*
%AMRoundRect*
0 Rectangle with rounded corners*
0 $1 Rounding radius*
0 $2 $3 $4 $5 $6 $7 $8 $9 X,Y pos of 4 corners*
0 Add a 4 corners polygon primitive as box body*
4,1,4,$2,$3,$4,$5,$6,$7,$8,$9,$2,$3,0*
0 Add four circle primitives for the rounded corners*
1,1,$1+$1,$2,$3*
1,1,$1+$1,$4,$5*
1,1,$1+$1,$6,$7*
1,1,$1+$1,$8,$9*
0 Add four rect primitives between the rounded corners*
20,1,$1+$1,$2,$3,$4,$5,0*
20,1,$1+$1,$4,$5,$6,$7,0*
20,1,$1+$1,$6,$7,$8,$9,0*
20,1,$1+$1,$8,$9,$2,$3,0*%
G04 Aperture macros list end*
%TA.AperFunction,ComponentPad*%
%ADD10R,1.700000X1.700000*%
%TD*%
%TA.AperFunction,ComponentPad*%
%ADD11C,1.700000*%
%TD*%
%TA.AperFunction,SMDPad,CuDef*%
%ADD12RoundRect,0.243750X0.243750X0.456250X-0.243750X0.456250X-0.243750X-0.456250X0.243750X-0.456250X0*%
%TD*%
%TA.AperFunction,SMDPad,CuDef*%
%ADD13RoundRect,0.250000X0.450000X-0.262500X0.450000X0.262500X-0.450000X0.262500X-0.450000X-0.262500X0*%
%TD*%
%TA.AperFunction,SMDPad,CuDef*%
%ADD14RoundRect,0.250000X-0.262500X-0.450000X0.262500X-0.450000X0.262500X0.450000X-0.262500X0.450000X0*%
%TD*%
%TA.AperFunction,SMDPad,CuDef*%
%ADD15RoundRect,0.250000X-0.250000X-0.475000X0.250000X-0.475000X0.250000X0.475000X-0.250000X0.475000X0*%
%TD*%
%TA.AperFunction,SMDPad,CuDef*%
%ADD16RoundRect,0.250001X-1.499999X-0.949999X1.499999X-0.949999X1.499999X0.949999X-1.499999X0.949999X0*%
%TD*%
%TA.AperFunction,SMDPad,CuDef*%
%ADD17RoundRect,0.162500X-0.650000X-0.162500X0.650000X-0.162500X0.650000X0.162500X-0.650000X0.162500X0*%
%TD*%
%TA.AperFunction,SMDPad,CuDef*%
%ADD18RoundRect,0.073750X-0.911250X-0.221250X0.911250X-0.221250X0.911250X0.221250X-0.911250X0.221250X0*%
%TD*%
%TA.AperFunction,SMDPad,CuDef*%
%ADD19RoundRect,0.068750X-0.666250X-0.206250X0.666250X-0.206250X0.666250X0.206250X-0.666250X0.206250X0*%
%TD*%
%TA.AperFunction,SMDPad,CuDef*%
%ADD20RoundRect,0.068750X-0.206250X-0.666250X0.206250X-0.666250X0.206250X0.666250X-0.206250X0.666250X0*%
%TD*%
%TA.AperFunction,SMDPad,CuDef*%
%ADD21RoundRect,0.250001X0.949999X-1.499999X0.949999X1.499999X-0.949999X1.499999X-0.949999X-1.499999X0*%
%TD*%
%TA.AperFunction,ViaPad*%
%ADD22C,0.600000*%
%TD*%
%TA.AperFunction,Conductor*%
%ADD23C,0.200000*%
%TD*%
G04 APERTURE END LIST*
D10*
%TO.P,J3,1,Pin_1_1*%
%TO.N,/D2*%
X88900000Y-83820000D03*
D11*
%TO.P,J3,2,Pin_2_2*%
%TO.N,/D3*%
X91440000Y-83820000D03*
%TO.P,J3,3,Pin_3_3*%
%TO.N,/D4*%
X93980000Y-83820000D03*
%TO.P,J3,4,Pin_4_4*%
%TO.N,/D5*%
X96520000Y-83820000D03*
%TO.P,J3,5,Pin_5_5*%
%TO.N,/D6*%
X99060000Y-83820000D03*
%TO.P,J3,6,Pin_6_6*%
%TO.N,/D7*%
X101600000Y-83820000D03*
%TO.P,J3,7,Pin_7_7*%
%TO.N,/D8*%
X104140000Y-83820000D03*
%TO.P,J3,8,Pin_8_8*%
%TO.N,GND*%
X106680000Y-83820000D03*
%TO.P,J3,9,Pin_9_9*%
%TO.N,/VCC*%
X109220000Y-83820000D03*
%TD*%
D10*
%TO.P,BT1,1,+_1*%
%TO.N,/VCC*%
X83820000Y-74930000D03*
D11*
%TO.P,BT1,2,-_2*%
%TO.N,GND*%
X83820000Y-77470000D03*
%TD*%
D12*
%TO.P,D1,1,K_1*%
%TO.N,Net-(D1-K)*%
X118110000Y-62992000D03*
%TO.P,D1,2,A_2*%
%TO.N,/SCK*%
X116235000Y-62992000D03*
%TD*%
D13*
%TO.P,R1,1*%
%TO.N,/VCC*%
X99060000Y-68881000D03*
%TO.P,R1,2*%
%TO.N,/SCK*%
X99060000Y-67056000D03*
%TD*%
D14*
%TO.P,R7,1*%
%TO.N,/VCC*%
X113491000Y-77724000D03*
%TO.P,R7,2*%
%TO.N,Net-(U3-~{INTA})*%
X115316000Y-77724000D03*
%TD*%
D12*
%TO.P,D2,1,K_1*%
%TO.N,Net-(D2-K)*%
X121920000Y-62992000D03*
%TO.P,D2,2,A_2*%
%TO.N,/VCC*%
X120045000Y-62992000D03*
%TD*%
D15*
%TO.P,C2,1*%
%TO.N,GND*%
X111892000Y-62992000D03*
%TO.P,C2,2*%
%TO.N,Net-(U4-PB6)*%
X113792000Y-62992000D03*
%TD*%
D13*
%TO.P,R2,1*%
%TO.N,/VCC*%
X99060000Y-72644000D03*
%TO.P,R2,2*%
%TO.N,/SDA*%
X99060000Y-70819000D03*
%TD*%
D14*
%TO.P,R6,1*%
%TO.N,/VCC*%
X113387500Y-72644000D03*
%TO.P,R6,2*%
%TO.N,Net-(U3-SQW{slash}~INT)*%
X115212500Y-72644000D03*
%TD*%
D15*
%TO.P,C4,1*%
%TO.N,GND*%
X108778000Y-77724000D03*
%TO.P,C4,2*%
%TO.N,Net-(U4-AREF)*%
X110678000Y-77724000D03*
%TD*%
D16*
%TO.P,Y2,1,1_1*%
%TO.N,Net-(U3-X2)*%
X103512000Y-72136000D03*
%TO.P,Y2,2,2_2*%
%TO.N,Net-(U3-X1)*%
X108712000Y-72136000D03*
%TD*%
D10*
%TO.P,J2,1,Pin_1_1*%
%TO.N,GND*%
X115570000Y-83820000D03*
D11*
%TO.P,J2,2,Pin_2_2*%
%TO.N,/VCC*%
X118110000Y-83820000D03*
%TO.P,J2,3,Pin_3_3*%
%TO.N,/RX*%
X120650000Y-83820000D03*
%TO.P,J2,4,Pin_4_4*%
%TO.N,/TX*%
X123190000Y-83820000D03*
%TD*%
D17*
%TO.P,U1,1,A0_1*%
%TO.N,/VCC*%
X88360500Y-58547000D03*
%TO.P,U1,2,A1_2*%
X88360500Y-59817000D03*
%TO.P,U1,3,A2_3*%
X88360500Y-61087000D03*
%TO.P,U1,4,GND_4*%
%TO.N,GND*%
X88360500Y-62357000D03*
%TO.P,U1,5,SDA_5*%
%TO.N,/SDA*%
X95535500Y-62357000D03*
%TO.P,U1,6,SCL_6*%
%TO.N,/SCK*%
X95535500Y-61087000D03*
%TO.P,U1,7,WP_7*%
%TO.N,GND*%
X95535500Y-59817000D03*
%TO.P,U1,8,VCC_8*%
%TO.N,/VCC*%
X95535500Y-58547000D03*
%TD*%
D14*
%TO.P,R5,1*%
%TO.N,Net-(D2-K)*%
X119079000Y-67056000D03*
%TO.P,R5,2*%
%TO.N,GND*%
X120904000Y-67056000D03*
%TD*%
D15*
%TO.P,C1,1*%
%TO.N,Net-(U4-PB7)*%
X97160000Y-77724000D03*
%TO.P,C1,2*%
%TO.N,GND*%
X99060000Y-77724000D03*
%TD*%
D10*
%TO.P,J1,1,Pin_1_1*%
%TO.N,GND*%
X127508000Y-71628000D03*
D11*
%TO.P,J1,2,Pin_2_2*%
%TO.N,/VCC*%
X127508000Y-74168000D03*
%TO.P,J1,3,Pin_3_3*%
%TO.N,/SDA*%
X127508000Y-76708000D03*
%TO.P,J1,4,Pin_4_4*%
%TO.N,/SCK*%
X127508000Y-79248000D03*
%TD*%
D14*
%TO.P,R3,1*%
%TO.N,/VCC*%
X115523000Y-67056000D03*
%TO.P,R3,2*%
%TO.N,/RESET*%
X117348000Y-67056000D03*
%TD*%
D18*
%TO.P,U3,1,X1_1*%
%TO.N,Net-(U3-X1)*%
X88965000Y-73787000D03*
%TO.P,U3,2,X2_2*%
%TO.N,Net-(U3-X2)*%
X88965000Y-75057000D03*
%TO.P,U3,3,~{INTA}_3*%
%TO.N,Net-(U3-~{INTA})*%
X88965000Y-76327000D03*
%TO.P,U3,4,GND_4*%
%TO.N,GND*%
X88965000Y-77597000D03*
%TO.P,U3,5,SDA_5*%
%TO.N,/SDA*%
X93915000Y-77597000D03*
%TO.P,U3,6,SCL_6*%
%TO.N,/SCK*%
X93915000Y-76327000D03*
%TO.P,U3,7,SQW/~INT_7*%
%TO.N,Net-(U3-SQW{slash}~INT)*%
X93915000Y-75057000D03*
%TO.P,U3,8,VCC_8*%
%TO.N,/VCC*%
X93915000Y-73787000D03*
%TD*%
D14*
%TO.P,R4,1*%
%TO.N,GND*%
X111967000Y-67056000D03*
%TO.P,R4,2*%
%TO.N,Net-(D1-K)*%
X113792000Y-67056000D03*
%TD*%
D17*
%TO.P,U2,1,A0_1*%
%TO.N,/VCC*%
X88360500Y-66167000D03*
%TO.P,U2,2,A1_2*%
%TO.N,GND*%
X88360500Y-67437000D03*
%TO.P,U2,3,A2_3*%
%TO.N,/VCC*%
X88360500Y-68707000D03*
%TO.P,U2,4,GND_4*%
%TO.N,GND*%
X88360500Y-69977000D03*
%TO.P,U2,5,SDA_5*%
%TO.N,/SDA*%
X95535500Y-69977000D03*
%TO.P,U2,6,SCL_6*%
%TO.N,/SCK*%
X95535500Y-68707000D03*
%TO.P,U2,7,WP_7*%
%TO.N,GND*%
X95535500Y-67437000D03*
%TO.P,U2,8,VCC_8*%
%TO.N,/VCC*%
X95535500Y-66167000D03*
%TD*%
D19*
%TO.P,U4,1,PD3_1*%
%TO.N,/D3*%
X101494000Y-60192000D03*
%TO.P,U4,2,PD4_2*%
%TO.N,/D4*%
X101494000Y-60992000D03*
%TO.P,U4,3,GND_3*%
%TO.N,GND*%
X101494000Y-61792000D03*
%TO.P,U4,4,VCC_4*%
%TO.N,/VCC*%
X101494000Y-62592000D03*
%TO.P,U4,5,GND_5*%
%TO.N,GND*%
X101494000Y-63392000D03*
%TO.P,U4,6,VCC_6*%
%TO.N,unconnected-(U4-VCC-Pad6)*%
X101494000Y-64192000D03*
%TO.P,U4,7,PB6_7*%
%TO.N,Net-(U4-PB6)*%
X101494000Y-64992000D03*
%TO.P,U4,8,PB7_8*%
%TO.N,Net-(U4-PB7)*%
X101494000Y-65792000D03*
D20*
%TO.P,U4,9,PD5_9*%
%TO.N,/D5*%
X102864000Y-67162000D03*
%TO.P,U4,10,PD6_10*%
%TO.N,/D6*%
X103664000Y-67162000D03*
%TO.P,U4,11,PD7_11*%
%TO.N,/D7*%
X104464000Y-67162000D03*
%TO.P,U4,12,PB0_12*%
%TO.N,/D8*%
X105264000Y-67162000D03*
%TO.P,U4,13,PB1_13*%
%TO.N,unconnected-(U4-PB1-Pad13)*%
X106064000Y-67162000D03*
%TO.P,U4,14,PB2_14*%
%TO.N,unconnected-(U4-PB2-Pad14)*%
X106864000Y-67162000D03*
%TO.P,U4,15,PB3_15*%
%TO.N,/MOSI*%
X107664000Y-67162000D03*
%TO.P,U4,16,PB4_16*%
%TO.N,/MISO*%
X108464000Y-67162000D03*
D19*
%TO.P,U4,17,PB5_17*%
%TO.N,/SCK*%
X109834000Y-65792000D03*
%TO.P,U4,18,AVCC_18*%
%TO.N,/VCC*%
X109834000Y-64992000D03*
%TO.P,U4,19,ADC6_19*%
%TO.N,unconnected-(U4-ADC6-Pad19)*%
X109834000Y-64192000D03*
%TO.P,U4,20,AREF_20*%
%TO.N,Net-(U4-AREF)*%
X109834000Y-63392000D03*
%TO.P,U4,21,GND_21*%
%TO.N,GND*%
X109834000Y-62592000D03*
%TO.P,U4,22,ADC7_22*%
%TO.N,unconnected-(U4-ADC7-Pad22)*%
X109834000Y-61792000D03*
%TO.P,U4,23,PC0_23*%
%TO.N,unconnected-(U4-PC0-Pad23)*%
X109834000Y-60992000D03*
%TO.P,U4,24,PC1_24*%
%TO.N,unconnected-(U4-PC1-Pad24)*%
X109834000Y-60192000D03*
D20*
%TO.P,U4,25,PC2_25*%
%TO.N,unconnected-(U4-PC2-Pad25)*%
X108464000Y-58822000D03*
%TO.P,U4,26,PC3_26*%
%TO.N,unconnected-(U4-PC3-Pad26)*%
X107664000Y-58822000D03*
%TO.P,U4,27,PC4_27*%
%TO.N,/SDA*%
X106864000Y-58822000D03*
%TO.P,U4,28,PC5_28*%
%TO.N,/SCK*%
X106064000Y-58822000D03*
%TO.P,U4,29,PC6/~{RESET}_29*%
%TO.N,/RESET*%
X105264000Y-58822000D03*
%TO.P,U4,30,PD0_30*%
%TO.N,/RX*%
X104464000Y-58822000D03*
%TO.P,U4,31,PD1_31*%
%TO.N,/TX*%
X103664000Y-58822000D03*
%TO.P,U4,32,PD2_32*%
%TO.N,/D2*%
X102864000Y-58822000D03*
%TD*%
D21*
%TO.P,Y1,1,1_1*%
%TO.N,Net-(U4-PB7)*%
X83820000Y-69910000D03*
%TO.P,Y1,2,2_2*%
%TO.N,Net-(U4-PB6)*%
X83820000Y-64710000D03*
%TD*%
D15*
%TO.P,C5,1*%
%TO.N,/VCC*%
X104272000Y-77724000D03*
%TO.P,C5,2*%
%TO.N,GND*%
X106172000Y-77724000D03*
%TD*%
%TO.P,C3,1*%
%TO.N,/VCC*%
X100716000Y-77724000D03*
%TO.P,C3,2*%
%TO.N,GND*%
X102616000Y-77724000D03*
%TD*%
D10*
%TO.P,J4,1,Pin_1_1*%
%TO.N,/MISO*%
X125984000Y-62484000D03*
D11*
%TO.P,J4,2,Pin_2_2*%
%TO.N,/VCC*%
X128524000Y-62484000D03*
%TO.P,J4,3,Pin_3_3*%
%TO.N,/SCK*%
X125984000Y-65024000D03*
%TO.P,J4,4,Pin_4_4*%
%TO.N,/MOSI*%
X128524000Y-65024000D03*
%TO.P,J4,5,Pin_5_5*%
%TO.N,/RESET*%
X125984000Y-67564000D03*
%TO.P,J4,6,Pin_6_6*%
%TO.N,GND*%
X128524000Y-67564000D03*
%TD*%
D22*
%TO.N,/D2*%
X96789835Y-63312635D03*
X88823800Y-81788000D03*
%TO.N,GND*%
X102816000Y-76327000D03*
X122275600Y-67456000D03*
X106452862Y-81332262D03*
X87080000Y-78790800D03*
X95945236Y-66992000D03*
X126586438Y-69436438D03*
X91689666Y-62428865D03*
X98113786Y-66225753D03*
X105943400Y-76301600D03*
X115133035Y-81691565D03*
X114805518Y-71458045D03*
X102854200Y-63178649D03*
X93591465Y-68064465D03*
X122605969Y-66110379D03*
X108762997Y-80792202D03*
X91236800Y-71128900D03*
X90789200Y-76682600D03*
X89992200Y-62357000D03*
X106742017Y-62447383D03*
X112179500Y-66132000D03*
X100260000Y-75681382D03*
X98810000Y-80086200D03*
X107640227Y-83088376D03*
X92557600Y-67284600D03*
X88519000Y-78740000D03*
%TO.N,/VCC*%
X95834200Y-73609200D03*
X100406200Y-80543400D03*
X100297713Y-76567622D03*
X86156800Y-76250800D03*
X97648000Y-73101200D03*
X108077000Y-81203800D03*
X104063800Y-80568800D03*
X97967800Y-74193400D03*
X108599000Y-64304369D03*
X113385600Y-68300600D03*
%TO.N,/SCK*%
X110269000Y-66599921D03*
X113379500Y-65532000D03*
X119031865Y-64853665D03*
X94056200Y-69494400D03*
X93395800Y-65567000D03*
X115976400Y-64643000D03*
X105613200Y-63296800D03*
X95778513Y-75608726D03*
X94081600Y-70535800D03*
X101600000Y-67183000D03*
X100295192Y-68882279D03*
%TO.N,Net-(U3-~{INTA})*%
X113969800Y-75590400D03*
X90191870Y-75966257D03*
%TO.N,Net-(D2-K)*%
X121996200Y-64424000D03*
X121970800Y-65624000D03*
%TO.N,Net-(U4-PB6)*%
X101600000Y-58039000D03*
X102729000Y-60057000D03*
%TO.N,/SDA*%
X106756200Y-59902800D03*
X95046800Y-63804800D03*
X96017165Y-72014165D03*
X129474000Y-76301600D03*
X96448000Y-74793400D03*
X87803443Y-71728900D03*
X98049265Y-70740265D03*
X95359135Y-70975135D03*
X95399979Y-76560063D03*
X98702370Y-60551570D03*
%TO.N,Net-(U3-SQW{slash}~INT)*%
X116249215Y-74657185D03*
X95199200Y-75057000D03*
%TO.N,Net-(U4-AREF)*%
X110981763Y-72584037D03*
X108254800Y-63525400D03*
%TO.N,Net-(U4-PB7)*%
X96291400Y-78740000D03*
X102729000Y-65205472D03*
X96901197Y-81661197D03*
X91983835Y-78846235D03*
%TO.N,/RESET*%
X124358400Y-67640200D03*
X105333800Y-60502800D03*
%TO.N,/MOSI*%
X108280200Y-65684400D03*
X119024400Y-69037200D03*
%TO.N,/MISO*%
X123494800Y-67456000D03*
X109347000Y-67868800D03*
%TD*%
%TO.N,/D2*%
D23*
X88823800Y-81788000D02*
X88823800Y-82042000D01*
X88823800Y-82042000D02*
X88900000Y-82118200D01*
X101280470Y-58822000D02*
X96789835Y-63312635D01*
X102864000Y-58822000D02*
X101280470Y-58822000D01*
X88900000Y-82118200D02*
X88900000Y-83820000D01*
%TO.N,/D3*%
X96648000Y-70534800D02*
X93990800Y-73192000D01*
X91440000Y-80238600D02*
X91440000Y-83820000D01*
X92630000Y-79048600D02*
X91440000Y-80238600D01*
X100759000Y-60192000D02*
X96648000Y-64303000D01*
X92630000Y-73408894D02*
X92630000Y-79048600D01*
X101494000Y-60192000D02*
X100759000Y-60192000D01*
X93990800Y-73192000D02*
X92846894Y-73192000D01*
X96648000Y-64303000D02*
X96648000Y-70534800D01*
X92846894Y-73192000D02*
X92630000Y-73408894D01*
%TO.N,/D4*%
X93980000Y-79195106D02*
X93980000Y-83820000D01*
X97719271Y-74793400D02*
X98094800Y-74793400D01*
X95200000Y-77975106D02*
X93980000Y-79195106D01*
X97048000Y-64673800D02*
X97048000Y-74122129D01*
X95200000Y-77608571D02*
X95200000Y-77975106D01*
X101494000Y-60992000D02*
X100729800Y-60992000D01*
X96509570Y-76299000D02*
X95200000Y-77608571D01*
X98094800Y-75748084D02*
X97543884Y-76299000D01*
X97048000Y-74122129D02*
X97719271Y-74793400D01*
X97543884Y-76299000D02*
X96509570Y-76299000D01*
X98094800Y-74793400D02*
X98094800Y-75748084D01*
X100729800Y-60992000D02*
X97048000Y-64673800D01*
%TO.N,/D5*%
X95600000Y-77774256D02*
X95600000Y-78140792D01*
X95600000Y-78140792D02*
X95580200Y-78160591D01*
X95580200Y-78160591D02*
X95580200Y-82880200D01*
X95580200Y-82880200D02*
X96520000Y-83820000D01*
X102864000Y-67162000D02*
X100060000Y-69966000D01*
X100060000Y-69966000D02*
X100060000Y-74348570D01*
X100060000Y-74348570D02*
X97709570Y-76699000D01*
X97709570Y-76699000D02*
X96675256Y-76699000D01*
X96675256Y-76699000D02*
X95600000Y-77774256D01*
%TO.N,/D6*%
X100460000Y-74514256D02*
X98210000Y-76764256D01*
X100460000Y-71066200D02*
X100460000Y-74514256D01*
X98210000Y-76764256D02*
X98210000Y-82970000D01*
X98210000Y-82970000D02*
X99060000Y-83820000D01*
X103664000Y-67162000D02*
X103664000Y-67862200D01*
X103664000Y-67862200D02*
X100460000Y-71066200D01*
%TO.N,/D7*%
X102057200Y-78674944D02*
X102057200Y-83362800D01*
X102057200Y-83362800D02*
X101600000Y-83820000D01*
X101816000Y-77314256D02*
X101816000Y-78433744D01*
X100860000Y-71501000D02*
X100860000Y-76358256D01*
X104464000Y-67897000D02*
X100860000Y-71501000D01*
X100860000Y-76358256D02*
X101816000Y-77314256D01*
X101816000Y-78433744D02*
X102057200Y-78674944D01*
X104464000Y-67162000D02*
X104464000Y-67897000D01*
%TO.N,/D8*%
X105079800Y-73802944D02*
X105703104Y-73179640D01*
X105703104Y-68197000D02*
X105264000Y-67757896D01*
X105079800Y-82880200D02*
X105079800Y-73802944D01*
X105264000Y-67757896D02*
X105264000Y-67162000D01*
X104140000Y-83820000D02*
X105079800Y-82880200D01*
X105703104Y-73179640D02*
X105703104Y-68197000D01*
%TO.N,GND*%
X89440000Y-77122000D02*
X88965000Y-77597000D01*
X83820000Y-77470000D02*
X85140800Y-78790800D01*
X126651562Y-69436438D02*
X127508000Y-68580000D01*
X89712400Y-71328900D02*
X91036800Y-71328900D01*
X90789200Y-76682600D02*
X90349800Y-77122000D01*
X85140800Y-78790800D02*
X87080000Y-78790800D01*
X108778000Y-80777199D02*
X108762997Y-80792202D01*
X93573600Y-68630800D02*
X94767400Y-67437000D01*
X102529000Y-62092000D02*
X102529000Y-63092000D01*
X106886634Y-62592000D02*
X106742017Y-62447383D01*
X126586438Y-69436438D02*
X126651562Y-69436438D01*
X88360500Y-69977000D02*
X92227400Y-69977000D01*
X93573600Y-68082330D02*
X93573600Y-68630800D01*
X120904000Y-67056000D02*
X121660348Y-67056000D01*
X102616000Y-77724000D02*
X102285800Y-78054200D01*
X101494000Y-61792000D02*
X102229000Y-61792000D01*
X99060000Y-76881382D02*
X100260000Y-75681382D01*
X102616000Y-76527000D02*
X102816000Y-76327000D01*
X100759000Y-63392000D02*
X98113786Y-66037214D01*
X91036800Y-71328900D02*
X91236800Y-71128900D01*
X92405200Y-67437000D02*
X92557600Y-67284600D01*
X121660348Y-67056000D02*
X122605969Y-66110379D01*
X105943400Y-77495400D02*
X106172000Y-77724000D01*
X102767551Y-63092000D02*
X102529000Y-63092000D01*
X107640227Y-83088376D02*
X107411624Y-83088376D01*
X87248000Y-66525576D02*
X88159424Y-67437000D01*
X111892000Y-62992000D02*
X111892000Y-68544527D01*
X99060000Y-79836200D02*
X98810000Y-80086200D01*
X102229000Y-61792000D02*
X102529000Y-62092000D01*
X111892000Y-66981000D02*
X111967000Y-67056000D01*
X89992200Y-62357000D02*
X88360500Y-62357000D01*
X88360500Y-62357000D02*
X87248000Y-63469500D01*
X107830000Y-84970000D02*
X106680000Y-83820000D01*
X127508000Y-71628000D02*
X127508000Y-68580000D01*
X111892000Y-62992000D02*
X111892000Y-66981000D01*
X88159424Y-67437000D02*
X88360500Y-67437000D01*
X90349800Y-77122000D02*
X89440000Y-77122000D01*
X92227400Y-69977000D02*
X93573600Y-68630800D01*
X127508000Y-68580000D02*
X128524000Y-67564000D01*
X99060000Y-77724000D02*
X99060000Y-79836200D01*
X88360500Y-69977000D02*
X89712400Y-71328900D01*
X109834000Y-62592000D02*
X106886634Y-62592000D01*
X102616000Y-77724000D02*
X102616000Y-76527000D01*
X115570000Y-82128530D02*
X115570000Y-83820000D01*
X105943400Y-76301600D02*
X105943400Y-77495400D01*
X112179500Y-66132000D02*
X112179500Y-66843500D01*
X88360500Y-67437000D02*
X92405200Y-67437000D01*
X93591465Y-68064465D02*
X93573600Y-68082330D01*
X102854200Y-63178649D02*
X102767551Y-63092000D01*
X108778000Y-77724000D02*
X108778000Y-80777199D01*
X111892000Y-68544527D02*
X114805518Y-71458045D01*
X99060000Y-77724000D02*
X99060000Y-76881382D01*
X102229000Y-63392000D02*
X101494000Y-63392000D01*
X87248000Y-63469500D02*
X87248000Y-66525576D01*
X95945236Y-67027264D02*
X95535500Y-67437000D01*
X95535500Y-59817000D02*
X94301531Y-59817000D01*
X102529000Y-63092000D02*
X102229000Y-63392000D01*
X115133035Y-81691565D02*
X115570000Y-82128530D01*
X121875600Y-67056000D02*
X122275600Y-67456000D01*
X106172000Y-77724000D02*
X106172000Y-81051400D01*
X107411624Y-83088376D02*
X106680000Y-83820000D01*
X101494000Y-63392000D02*
X100759000Y-63392000D01*
X120904000Y-67056000D02*
X121875600Y-67056000D01*
X94301531Y-59817000D02*
X91689666Y-62428865D01*
X112179500Y-66843500D02*
X111967000Y-67056000D01*
X106172000Y-81051400D02*
X106452862Y-81332262D01*
X114420000Y-84970000D02*
X107830000Y-84970000D01*
X88519000Y-78740000D02*
X88519000Y-78043000D01*
X95945236Y-66992000D02*
X95945236Y-67027264D01*
X115570000Y-83820000D02*
X114420000Y-84970000D01*
X94767400Y-67437000D02*
X95535500Y-67437000D01*
X98113786Y-66037214D02*
X98113786Y-66225753D01*
X88519000Y-78043000D02*
X88965000Y-77597000D01*
%TO.N,/VCC*%
X109220000Y-83820000D02*
X108077000Y-82677000D01*
X113491000Y-79201000D02*
X113491000Y-77724000D01*
X129674000Y-72002000D02*
X127508000Y-74168000D01*
X126358000Y-82278346D02*
X123666346Y-84970000D01*
X120045000Y-62992000D02*
X121703000Y-61334000D01*
X95535500Y-66167000D02*
X88360500Y-66167000D01*
X94723001Y-58547000D02*
X88360500Y-64909501D01*
X116523000Y-66056000D02*
X116981000Y-66056000D01*
X88159424Y-68707000D02*
X88360500Y-68707000D01*
X88360500Y-58547000D02*
X88360500Y-59817000D01*
X116981000Y-66056000D02*
X120045000Y-62992000D01*
X88360500Y-59817000D02*
X88360500Y-61087000D01*
X123666346Y-84970000D02*
X124340000Y-84296346D01*
X108599000Y-64304369D02*
X108599000Y-64352200D01*
X99060000Y-72644000D02*
X97448000Y-71032000D01*
X122040000Y-84296346D02*
X122713654Y-84970000D01*
X109238800Y-64992000D02*
X109834000Y-64992000D01*
X100898104Y-62592000D02*
X101494000Y-62592000D01*
X124340000Y-75873000D02*
X115523000Y-67056000D01*
X97967800Y-74193400D02*
X97967800Y-73736200D01*
X97449265Y-72902465D02*
X97648000Y-73101200D01*
X122713654Y-84970000D02*
X123666346Y-84970000D01*
X100716000Y-77724000D02*
X100716000Y-76985909D01*
X104063800Y-80568800D02*
X104272000Y-80360600D01*
X100406200Y-80543400D02*
X100716000Y-80233600D01*
X119260000Y-84970000D02*
X118110000Y-83820000D01*
X115523000Y-67056000D02*
X114278400Y-68300600D01*
X126358000Y-75318000D02*
X126358000Y-82278346D01*
X124340000Y-84296346D02*
X124340000Y-75873000D01*
X83820000Y-74930000D02*
X87248000Y-71502000D01*
X118110000Y-83820000D02*
X113491000Y-79201000D01*
X88360500Y-58547000D02*
X95535500Y-58547000D01*
X88360500Y-68707000D02*
X92100400Y-68707000D01*
X109220000Y-83820000D02*
X113491000Y-79549000D01*
X128524000Y-62484000D02*
X129674000Y-63634000D01*
X100716000Y-80233600D02*
X100716000Y-77724000D01*
X123666346Y-84970000D02*
X119260000Y-84970000D01*
X121703000Y-61334000D02*
X127374000Y-61334000D01*
X122040000Y-81296500D02*
X122040000Y-84296346D01*
X97449265Y-70491736D02*
X97449265Y-72902465D01*
X95535500Y-58547000D02*
X94723001Y-58547000D01*
X127374000Y-61334000D02*
X128524000Y-62484000D01*
X100716000Y-76985909D02*
X100297713Y-76567622D01*
X115523000Y-67056000D02*
X116523000Y-66056000D01*
X97967800Y-73736200D02*
X99060000Y-72644000D01*
X87248000Y-71502000D02*
X87248000Y-69618424D01*
X97448000Y-67269000D02*
X97448000Y-66042104D01*
X114278400Y-68300600D02*
X113385600Y-68300600D01*
X113387500Y-72644000D02*
X122040000Y-81296500D01*
X86156800Y-76250800D02*
X85140800Y-76250800D01*
X127508000Y-74168000D02*
X126358000Y-75318000D01*
X113491000Y-79549000D02*
X113491000Y-79201000D01*
X99060000Y-68881000D02*
X97449265Y-70491736D01*
X88360500Y-64909501D02*
X88360500Y-66167000D01*
X97448000Y-71032000D02*
X97448000Y-70493000D01*
X94640400Y-66167000D02*
X88360500Y-66167000D01*
X95834200Y-73609200D02*
X94092800Y-73609200D01*
X87248000Y-69618424D02*
X88159424Y-68707000D01*
X129674000Y-63634000D02*
X129674000Y-72002000D01*
X108077000Y-82677000D02*
X108077000Y-81203800D01*
X108599000Y-64352200D02*
X109238800Y-64992000D01*
X104272000Y-80360600D02*
X104272000Y-77724000D01*
X97448000Y-66042104D02*
X100898104Y-62592000D01*
X85140800Y-76250800D02*
X83820000Y-74930000D01*
X99060000Y-68881000D02*
X97448000Y-67269000D01*
X92100400Y-68707000D02*
X94640400Y-66167000D01*
X94092800Y-73609200D02*
X93915000Y-73787000D01*
X97448000Y-70493000D02*
X99060000Y-68881000D01*
%TO.N,Net-(D1-K)*%
X118110000Y-62992000D02*
X118110000Y-63691999D01*
X118110000Y-63691999D02*
X115745999Y-66056000D01*
X114792000Y-66056000D02*
X113792000Y-67056000D01*
X115745999Y-66056000D02*
X114792000Y-66056000D01*
%TO.N,/SCK*%
X110269000Y-66227000D02*
X109834000Y-65792000D01*
X93395800Y-62414201D02*
X93395800Y-65567000D01*
X119202200Y-65024000D02*
X119031865Y-64853665D01*
X115775012Y-62992000D02*
X113379500Y-65387512D01*
X95427176Y-75960063D02*
X95778513Y-75608726D01*
X115976400Y-64643000D02*
X115976400Y-63250600D01*
X109238104Y-65792000D02*
X106064000Y-62617896D01*
X94081600Y-69519800D02*
X94056200Y-69494400D01*
X94843600Y-68707000D02*
X95535500Y-68707000D01*
X106064000Y-62617896D02*
X106064000Y-58822000D01*
X105613200Y-63068696D02*
X106064000Y-62617896D01*
X99060000Y-67056000D02*
X101473000Y-67056000D01*
X109834000Y-65792000D02*
X109238104Y-65792000D01*
X101473000Y-67056000D02*
X101600000Y-67183000D01*
X99060000Y-67056000D02*
X100295192Y-68291192D01*
X94723001Y-61087000D02*
X93395800Y-62414201D01*
X127508000Y-79248000D02*
X130074000Y-76682000D01*
X105613200Y-63296800D02*
X105613200Y-63068696D01*
X95535500Y-61087000D02*
X94723001Y-61087000D01*
X110269000Y-66599921D02*
X110269000Y-66227000D01*
X113379500Y-65387512D02*
X113379500Y-65532000D01*
X128600346Y-60934000D02*
X118293000Y-60934000D01*
X94056200Y-69494400D02*
X94843600Y-68707000D01*
X125984000Y-65024000D02*
X119202200Y-65024000D01*
X130074000Y-62407654D02*
X128600346Y-60934000D01*
X130074000Y-76682000D02*
X130074000Y-62407654D01*
X93915000Y-76327000D02*
X94281937Y-75960063D01*
X100295192Y-68291192D02*
X100295192Y-68882279D01*
X116235000Y-62992000D02*
X115775012Y-62992000D01*
X94081600Y-70535800D02*
X94081600Y-69519800D01*
X115976400Y-63250600D02*
X116235000Y-62992000D01*
X94281937Y-75960063D02*
X95427176Y-75960063D01*
X118293000Y-60934000D02*
X116235000Y-62992000D01*
%TO.N,Net-(U3-~{INTA})*%
X113969800Y-75590400D02*
X115316000Y-76936600D01*
X115316000Y-76936600D02*
X115316000Y-77724000D01*
X89831127Y-76327000D02*
X90191870Y-75966257D01*
X88965000Y-76327000D02*
X89831127Y-76327000D01*
%TO.N,Net-(D2-K)*%
X121996200Y-63068200D02*
X121920000Y-62992000D01*
X119079000Y-65960000D02*
X119415000Y-65624000D01*
X119415000Y-65624000D02*
X121970800Y-65624000D01*
X121996200Y-64424000D02*
X121996200Y-63068200D01*
X119079000Y-67056000D02*
X119079000Y-65960000D01*
%TO.N,Net-(U4-PB6)*%
X101600000Y-57088600D02*
X101701600Y-56987000D01*
X102089896Y-64992000D02*
X103454200Y-63627696D01*
X103454200Y-63627696D02*
X103454200Y-60782200D01*
X101600000Y-58039000D02*
X101600000Y-57088600D01*
X101701600Y-56987000D02*
X109156267Y-56987000D01*
X109156267Y-56987000D02*
X113792000Y-61622733D01*
X103454200Y-60782200D02*
X102729000Y-60057000D01*
X88449424Y-56987000D02*
X101701600Y-56987000D01*
X83820000Y-61616424D02*
X88449424Y-56987000D01*
X83820000Y-64710000D02*
X83820000Y-61616424D01*
X113792000Y-61622733D02*
X113792000Y-62992000D01*
X101494000Y-64992000D02*
X102089896Y-64992000D01*
%TO.N,/SDA*%
X96896940Y-62357000D02*
X98702370Y-60551570D01*
X96448000Y-74793400D02*
X96648000Y-74593400D01*
X127508000Y-76708000D02*
X129067600Y-76708000D01*
X95535500Y-69977000D02*
X93783600Y-71728900D01*
X95359135Y-70975135D02*
X95359135Y-70153365D01*
X106756200Y-58929800D02*
X106864000Y-58822000D01*
X98049265Y-70740265D02*
X98981265Y-70740265D01*
X95399979Y-76842906D02*
X94645885Y-77597000D01*
X106756200Y-59902800D02*
X106756200Y-58929800D01*
X96648000Y-72645000D02*
X96017165Y-72014165D01*
X95359135Y-70153365D02*
X95535500Y-69977000D01*
X95046800Y-63804800D02*
X95046800Y-62845700D01*
X129067600Y-76708000D02*
X129474000Y-76301600D01*
X95046800Y-62845700D02*
X95535500Y-62357000D01*
X95535500Y-62357000D02*
X96896940Y-62357000D01*
X95399979Y-76560063D02*
X95399979Y-76842906D01*
X96648000Y-74593400D02*
X96648000Y-72645000D01*
X94645885Y-77597000D02*
X93915000Y-77597000D01*
X98981265Y-70740265D02*
X99060000Y-70819000D01*
X93783600Y-71728900D02*
X87803443Y-71728900D01*
%TO.N,Net-(U3-SQW{slash}~INT)*%
X115212500Y-72644000D02*
X116249215Y-73680715D01*
X95199200Y-75057000D02*
X93915000Y-75057000D01*
X116249215Y-73680715D02*
X116249215Y-74657185D01*
%TO.N,Net-(U4-AREF)*%
X109700600Y-63525400D02*
X109834000Y-63392000D01*
X110981763Y-77420237D02*
X110981763Y-72584037D01*
X108254800Y-63525400D02*
X109700600Y-63525400D01*
X110678000Y-77724000D02*
X110981763Y-77420237D01*
%TO.N,Net-(U3-X2)*%
X90290000Y-79691541D02*
X90290000Y-84296346D01*
X91389200Y-78592341D02*
X90290000Y-79691541D01*
X91389200Y-76211776D02*
X91389200Y-78592341D01*
X102750000Y-79099744D02*
X103416000Y-78433744D01*
X102750000Y-84296346D02*
X102750000Y-79099744D01*
X90963654Y-84970000D02*
X102076346Y-84970000D01*
X103416000Y-72232000D02*
X103512000Y-72136000D01*
X102076346Y-84970000D02*
X102750000Y-84296346D01*
X90234424Y-75057000D02*
X91389200Y-76211776D01*
X103416000Y-78433744D02*
X103416000Y-72232000D01*
X90290000Y-84296346D02*
X90963654Y-84970000D01*
X88965000Y-75057000D02*
X90234424Y-75057000D01*
%TO.N,Net-(U3-X1)*%
X88965000Y-73787000D02*
X87980000Y-73787000D01*
X105290000Y-83343654D02*
X107340400Y-81293254D01*
X104216346Y-85370000D02*
X105290000Y-84296346D01*
X87980000Y-73787000D02*
X87680000Y-74087000D01*
X88150000Y-85370000D02*
X104216346Y-85370000D01*
X107340400Y-73507600D02*
X108712000Y-72136000D01*
X107340400Y-81293254D02*
X107340400Y-73507600D01*
X87680000Y-84900000D02*
X88150000Y-85370000D01*
X105290000Y-84296346D02*
X105290000Y-83343654D01*
X87680000Y-74087000D02*
X87680000Y-84900000D01*
%TO.N,/RX*%
X104464000Y-58087000D02*
X104464000Y-58822000D01*
X110869000Y-71622744D02*
X110869000Y-59831104D01*
X108824896Y-57787000D02*
X104764000Y-57787000D01*
X120650000Y-81403744D02*
X110869000Y-71622744D01*
X104764000Y-57787000D02*
X104464000Y-58087000D01*
X110869000Y-59831104D02*
X108824896Y-57787000D01*
X120650000Y-83820000D02*
X120650000Y-81403744D01*
%TO.N,/TX*%
X104364000Y-57387000D02*
X103664000Y-58087000D01*
X123190000Y-83820000D02*
X123190000Y-78994000D01*
X123190000Y-78994000D02*
X112779500Y-68583500D01*
X112779500Y-68583500D02*
X112779500Y-61175919D01*
X103664000Y-58087000D02*
X103664000Y-58822000D01*
X108990581Y-57387000D02*
X104364000Y-57387000D01*
X112779500Y-61175919D02*
X108990581Y-57387000D01*
%TO.N,Net-(U4-PB7)*%
X86756800Y-76499329D02*
X86756800Y-72558885D01*
X82670000Y-76080000D02*
X84404314Y-76080000D01*
X91456485Y-72558885D02*
X91983835Y-73086235D01*
X83820000Y-69910000D02*
X82620001Y-71109999D01*
X96901197Y-81661197D02*
X96901197Y-79349797D01*
X101494000Y-65792000D02*
X102142472Y-65792000D01*
X86756800Y-72558885D02*
X91456485Y-72558885D01*
X86405329Y-76850800D02*
X86756800Y-76499329D01*
X91983835Y-73086235D02*
X91983835Y-78846235D01*
X85175114Y-76850800D02*
X86405329Y-76850800D01*
X102142472Y-65792000D02*
X102729000Y-65205472D01*
X82620001Y-71109999D02*
X82620001Y-76030001D01*
X96901197Y-79349797D02*
X96291400Y-78740000D01*
X84404314Y-76080000D02*
X85175114Y-76850800D01*
X96291400Y-78592600D02*
X97160000Y-77724000D01*
X96291400Y-78740000D02*
X96291400Y-78592600D01*
X82620001Y-76030001D02*
X82670000Y-76080000D01*
%TO.N,/RESET*%
X105333800Y-60502800D02*
X105333800Y-58891800D01*
X118348000Y-68056000D02*
X117348000Y-67056000D01*
X105333800Y-58891800D02*
X105264000Y-58822000D01*
X124434600Y-67564000D02*
X124358400Y-67640200D01*
X125984000Y-67564000D02*
X124434600Y-67564000D01*
X125492000Y-68056000D02*
X118348000Y-68056000D01*
X125984000Y-67564000D02*
X125492000Y-68056000D01*
%TO.N,/MOSI*%
X127134000Y-66414000D02*
X127134000Y-68040346D01*
X127134000Y-68040346D02*
X126137146Y-69037200D01*
X108280200Y-65684400D02*
X107664000Y-66300600D01*
X126137146Y-69037200D02*
X119024400Y-69037200D01*
X107664000Y-66300600D02*
X107664000Y-67162000D01*
X128524000Y-65024000D02*
X127134000Y-66414000D01*
%TO.N,/MISO*%
X109170800Y-67868800D02*
X108464000Y-67162000D01*
X124776800Y-66174000D02*
X123494800Y-67456000D01*
X127134000Y-63634000D02*
X127134000Y-65500346D01*
X127134000Y-65500346D02*
X126460346Y-66174000D01*
X125984000Y-62484000D02*
X127134000Y-63634000D01*
X109347000Y-67868800D02*
X109170800Y-67868800D01*
X126460346Y-66174000D02*
X124776800Y-66174000D01*
%TD*%
M02*
