%TF.GenerationSoftware,KiCad,Pcbnew,10.0.1*%
%TF.CreationDate,2026-07-27T21:53:35+01:00*%
%TF.ProjectId,MCU Datalogger,4d435520-4461-4746-916c-6f676765722e,rev?*%
%TF.SameCoordinates,Original*%
%TF.FileFunction,Copper,L2,Inr*%
%TF.FilePolarity,Positive*%
%FSLAX46Y46*%
G04 Gerber Fmt 4.6, Leading zero omitted, Abs format (unit mm)*
G04 Created by KiCad (PCBNEW 10.0.1) date 2026-07-27 21:53:35*
%MOMM*%
%LPD*%
G01*
G04 APERTURE LIST*
%TA.AperFunction,ComponentPad*%
%ADD10R,1.700000X1.700000*%
%TD*%
%TA.AperFunction,ComponentPad*%
%ADD11C,1.700000*%
%TD*%
%TA.AperFunction,ViaPad*%
%ADD12C,0.600000*%
%TD*%
%TA.AperFunction,Conductor*%
%ADD13C,0.200000*%
%TD*%
G04 APERTURE END LIST*
D10*
%TO.N,/D2*%
%TO.C,J3*%
X88900000Y-83820000D03*
D11*
%TO.N,/D3*%
X91440000Y-83820000D03*
%TO.N,/D4*%
X93980000Y-83820000D03*
%TO.N,/D5*%
X96520000Y-83820000D03*
%TO.N,/D6*%
X99060000Y-83820000D03*
%TO.N,/D7*%
X101600000Y-83820000D03*
%TO.N,/D8*%
X104140000Y-83820000D03*
%TO.N,GND*%
X106680000Y-83820000D03*
%TO.N,/VCC*%
X109220000Y-83820000D03*
%TD*%
D10*
%TO.N,/VCC*%
%TO.C,BT1*%
X83820000Y-74930000D03*
D11*
%TO.N,GND*%
X83820000Y-77470000D03*
%TD*%
D10*
%TO.N,GND*%
%TO.C,J2*%
X115570000Y-83820000D03*
D11*
%TO.N,/VCC*%
X118110000Y-83820000D03*
%TO.N,/RX*%
X120650000Y-83820000D03*
%TO.N,/TX*%
X123190000Y-83820000D03*
%TD*%
D10*
%TO.N,GND*%
%TO.C,J1*%
X127508000Y-71628000D03*
D11*
%TO.N,/VCC*%
X127508000Y-74168000D03*
%TO.N,/SDA*%
X127508000Y-76708000D03*
%TO.N,/SCK*%
X127508000Y-79248000D03*
%TD*%
D10*
%TO.N,/MISO*%
%TO.C,J4*%
X125984000Y-62484000D03*
D11*
%TO.N,/VCC*%
X128524000Y-62484000D03*
%TO.N,/SCK*%
X125984000Y-65024000D03*
%TO.N,/MOSI*%
X128524000Y-65024000D03*
%TO.N,/RESET*%
X125984000Y-67564000D03*
%TO.N,GND*%
X128524000Y-67564000D03*
%TD*%
D12*
%TO.N,/D2*%
X96789835Y-63312635D03*
X88823800Y-81788000D03*
%TO.N,GND*%
X102816000Y-76327000D03*
X122275600Y-67456000D03*
X106452862Y-81332262D03*
X87080000Y-78790800D03*
X95945236Y-66992000D03*
X126586438Y-69436438D03*
X91689666Y-62428865D03*
X98113786Y-66225753D03*
X105943400Y-76301600D03*
X115133035Y-81691565D03*
X114805518Y-71458045D03*
X102854200Y-63178649D03*
X93591465Y-68064465D03*
X122605969Y-66110379D03*
X108762997Y-80792202D03*
X91236800Y-71128900D03*
X90789200Y-76682600D03*
X89992200Y-62357000D03*
X106742017Y-62447383D03*
X112179500Y-66132000D03*
X100260000Y-75681382D03*
X98810000Y-80086200D03*
X107640227Y-83088376D03*
X92557600Y-67284600D03*
X88519000Y-78740000D03*
%TO.N,/VCC*%
X95834200Y-73609200D03*
X100406200Y-80543400D03*
X100297713Y-76567622D03*
X86156800Y-76250800D03*
X97648000Y-73101200D03*
X108077000Y-81203800D03*
X104063800Y-80568800D03*
X97967800Y-74193400D03*
X108599000Y-64304369D03*
X113385600Y-68300600D03*
%TO.N,/SCK*%
X110269000Y-66599921D03*
X113379500Y-65532000D03*
X119031865Y-64853665D03*
X94056200Y-69494400D03*
X93395800Y-65567000D03*
X115976400Y-64643000D03*
X105613200Y-63296800D03*
X95778513Y-75608726D03*
X94081600Y-70535800D03*
X101600000Y-67183000D03*
X100295192Y-68882279D03*
%TO.N,Net-(U3-~{INTA})*%
X113969800Y-75590400D03*
X90191870Y-75966257D03*
%TO.N,Net-(D2-K)*%
X121996200Y-64424000D03*
X121970800Y-65624000D03*
%TO.N,Net-(U4-PB6)*%
X101600000Y-58039000D03*
X102729000Y-60057000D03*
%TO.N,/SDA*%
X106756200Y-59902800D03*
X95046800Y-63804800D03*
X96017165Y-72014165D03*
X129474000Y-76301600D03*
X96448000Y-74793400D03*
X87803443Y-71728900D03*
X98049265Y-70740265D03*
X95359135Y-70975135D03*
X95399979Y-76560063D03*
X98702370Y-60551570D03*
%TO.N,Net-(U3-SQW{slash}~INT)*%
X116249215Y-74657185D03*
X95199200Y-75057000D03*
%TO.N,Net-(U4-AREF)*%
X110981763Y-72584037D03*
X108254800Y-63525400D03*
%TO.N,Net-(U4-PB7)*%
X96291400Y-78740000D03*
X102729000Y-65205472D03*
X96901197Y-81661197D03*
X91983835Y-78846235D03*
%TO.N,/RESET*%
X124358400Y-67640200D03*
X105333800Y-60502800D03*
%TO.N,/MOSI*%
X108280200Y-65684400D03*
X119024400Y-69037200D03*
%TO.N,/MISO*%
X123494800Y-67456000D03*
X109347000Y-67868800D03*
%TD*%
%TO.N,/D2*%
D13*
X95925864Y-81788000D02*
X88823800Y-81788000D01*
X100897713Y-76816151D02*
X95925864Y-81788000D01*
X96789835Y-63312635D02*
X100897713Y-67420513D01*
X100897713Y-67420513D02*
X100897713Y-76816151D01*
%TO.N,/VCC*%
X100297713Y-76567622D02*
X97967800Y-74237709D01*
X104063800Y-80568800D02*
X100431600Y-80568800D01*
X88214200Y-74193400D02*
X86156800Y-76250800D01*
X113000398Y-64304369D02*
X108599000Y-64304369D01*
X113385600Y-68300600D02*
X113979500Y-67706700D01*
X96342200Y-73101200D02*
X95834200Y-73609200D01*
X100431600Y-80568800D02*
X100406200Y-80543400D01*
X113979500Y-67706700D02*
X113979500Y-65283471D01*
X97648000Y-73101200D02*
X96342200Y-73101200D01*
X108077000Y-81203800D02*
X107442000Y-80568800D01*
X97967800Y-74237709D02*
X97967800Y-74193400D01*
X97967800Y-74193400D02*
X88214200Y-74193400D01*
X107442000Y-80568800D02*
X104063800Y-80568800D01*
X113979500Y-65283471D02*
X113000398Y-64304369D01*
%TO.N,/SCK*%
X110269000Y-66599921D02*
X110269000Y-66573400D01*
X111310400Y-65532000D02*
X113379500Y-65532000D01*
X119031865Y-64853665D02*
X118821200Y-64643000D01*
X110269000Y-66573400D02*
X111310400Y-65532000D01*
X118821200Y-64643000D02*
X115976400Y-64643000D01*
%TO.N,Net-(U4-PB6)*%
X102729000Y-60057000D02*
X101600000Y-58928000D01*
X101600000Y-58928000D02*
X101600000Y-58039000D01*
%TO.N,/SDA*%
X96017165Y-71633165D02*
X95359135Y-70975135D01*
X98702370Y-60551570D02*
X99253600Y-61102800D01*
X97957805Y-74793400D02*
X96448000Y-74793400D01*
X103885271Y-61102800D02*
X105085271Y-59902800D01*
X88519000Y-63804800D02*
X95046800Y-63804800D01*
X129674000Y-76101600D02*
X129674000Y-61897200D01*
X98437503Y-75273097D02*
X97957805Y-74793400D01*
X127679600Y-59902800D02*
X106756200Y-59902800D01*
X129474000Y-76301600D02*
X129674000Y-76101600D01*
X105085271Y-59902800D02*
X106756200Y-59902800D01*
X99253600Y-61102800D02*
X103885271Y-61102800D01*
X96017165Y-72014165D02*
X96017165Y-71633165D01*
X129674000Y-61897200D02*
X127679600Y-59902800D01*
X87045800Y-70971257D02*
X87045800Y-65278000D01*
X96850200Y-76860400D02*
X98437503Y-75273097D01*
X87045800Y-65278000D02*
X88519000Y-63804800D01*
X95700316Y-76860400D02*
X96850200Y-76860400D01*
X95399979Y-76560063D02*
X95700316Y-76860400D01*
X96017165Y-72014165D02*
X96775365Y-72014165D01*
X96775365Y-72014165D02*
X98049265Y-70740265D01*
X87803443Y-71728900D02*
X87045800Y-70971257D01*
%TO.N,Net-(U3-SQW{slash}~INT)*%
X94767400Y-75488800D02*
X93273200Y-75488800D01*
X95199200Y-75057000D02*
X94767400Y-75488800D01*
X93273200Y-75488800D02*
X88223800Y-80538200D01*
X88575271Y-82388000D02*
X108518400Y-82388000D01*
X88223800Y-80538200D02*
X88223800Y-82036529D01*
X108518400Y-82388000D02*
X116249215Y-74657185D01*
X88223800Y-82036529D02*
X88575271Y-82388000D01*
%TO.N,Net-(U4-AREF)*%
X107680200Y-69282474D02*
X107680200Y-64100000D01*
X110981763Y-72584037D02*
X107680200Y-69282474D01*
X107680200Y-64100000D02*
X108254800Y-63525400D01*
%TO.N,Net-(U4-PB7)*%
X102729000Y-75550549D02*
X99410000Y-78869549D01*
X96185165Y-78846235D02*
X96291400Y-78740000D01*
X98083532Y-81661197D02*
X96901197Y-81661197D01*
X99410000Y-80334729D02*
X98083532Y-81661197D01*
X99410000Y-78869549D02*
X99410000Y-80334729D01*
X91983835Y-78846235D02*
X96185165Y-78846235D01*
X102729000Y-65205472D02*
X102729000Y-75550549D01*
%TO.N,/RESET*%
X119837929Y-61417200D02*
X106248200Y-61417200D01*
X124358400Y-67640200D02*
X124358400Y-65937671D01*
X124358400Y-65937671D02*
X119837929Y-61417200D01*
X106248200Y-61417200D02*
X105333800Y-60502800D01*
%TO.N,/MOSI*%
X111081086Y-69037200D02*
X109947000Y-67903114D01*
X119024400Y-69037200D02*
X111081086Y-69037200D01*
X108280200Y-65953471D02*
X108280200Y-65684400D01*
X109947000Y-67620271D02*
X108280200Y-65953471D01*
X109947000Y-67903114D02*
X109947000Y-67620271D01*
%TO.N,/MISO*%
X123494800Y-67456000D02*
X121313600Y-69637200D01*
X121313600Y-69637200D02*
X111115400Y-69637200D01*
X111115400Y-69637200D02*
X109347000Y-67868800D01*
%TD*%
M02*
